<?xml version="1.0" encoding="UTF-8"?>
<svg id="Layer_2" data-name="Layer 2" xmlns="http://www.w3.org/2000/svg" xmlns:xlink="http://www.w3.org/1999/xlink" viewBox="0 0 256.52 132.02">
  <defs>
    <style>
      .cls-1 {
        fill: url(#linear-gradient-7);
      }

      .cls-2 {
        fill: url(#linear-gradient-5);
      }

      .cls-3 {
        fill: url(#linear-gradient-6);
      }

      .cls-4 {
        fill: url(#linear-gradient-4);
      }

      .cls-5 {
        fill: url(#linear-gradient-3);
      }

      .cls-6 {
        fill: url(#linear-gradient-2);
      }

      .cls-7 {
        fill: url(#linear-gradient);
      }

      .cls-8 {
        fill: #fff;
      }

      .cls-9 {
        fill: #77736d;
      }

      .cls-10 {
        fill: #24201b;
      }
    </style>
    <linearGradient id="linear-gradient" x1="34.26" y1="20.9" x2="34.26" y2="92.69" gradientUnits="userSpaceOnUse">
      <stop offset="0" stop-color="#24201b"/>
      <stop offset="1" stop-color="#231f20"/>
    </linearGradient>
    <linearGradient id="linear-gradient-2" x1="39.49" y1="109.68" x2="60.81" y2="109.68" xlink:href="#linear-gradient"/>
    <linearGradient id="linear-gradient-3" x1="31.69" y1="8.16" x2="31.69" y2="29.22" xlink:href="#linear-gradient"/>
    <linearGradient id="linear-gradient-4" x1="96" y1="37.17" x2="96" y2="93.46" xlink:href="#linear-gradient"/>
    <linearGradient id="linear-gradient-5" x1="135.61" y1="6.54" x2="135.61" y2="92.98" gradientUnits="userSpaceOnUse">
      <stop offset="0" stop-color="#dd7f3a"/>
      <stop offset="1" stop-color="#f26522"/>
    </linearGradient>
    <linearGradient id="linear-gradient-6" x1="197.43" y1="20.9" x2="197.43" y2="92.69" xlink:href="#linear-gradient-5"/>
    <linearGradient id="linear-gradient-7" x1="28.06" y1="45.45" x2="28.06" y2="85.2" xlink:href="#linear-gradient-5"/>
  </defs>
  <g id="Layer_1-2" data-name="Layer 1">
    <g>
      <path class="cls-8" d="M243.96,101.33c-2.18,0-4.15.44-5.86,1.24-1.68-.8-3.67-1.24-5.91-1.24-1.98,0-3.56.33-4.64.64l18.82-87.61h-29.3l-6.04,30.6-2.91-11.45h-12.38s-.96,0-.96,0h-11.42l-2.14,8.43c-.42-.06-.84-.11-1.26-.16l-2.16-11.14h-23.52c.4-3.63,1.12-5.99,1.4-6.8L163.91,0h-57.19l8.87,23.51c1.16,3.12,3.22,5.55,5.92,7.13h-21.57v41.1c-2.89,2.51-5.49,2.74-6.32,2.74-1,0-1.55,0-1.55-2.62V30.63h-23.56V14.36h-22.43V1.63h-28.78v29.56c-5.19,1.13-9.29,3.53-12.21,7.2C1.62,42.74,0,48.45,0,56.35v44.1h25.07l9.18-14.31,4.62,7.2h-6.53v24.25h7.29v9.67h26.79l57.58-.31v2.82h4.72c1.79,1.42,4.16,2.26,6.84,2.26,4.18,0,7.62-2.06,9.3-5.19l42.32-.23h12.27c.67.11,1.36.17,2.07.17s1.46-.06,2.22-.17h11.73v-.82h1.85c1.41.58,3.16.97,5.29.97,1.5,0,2.89-.21,4.17-.6v.46h14.81c.48.05.97.07,1.47.07.47,0,.96-.02,1.47-.07h11.99v-12.92c0-7.39-5.05-12.36-12.56-12.36ZM225.84,101.66l.25.18c-.09-.03-.19-.05-.28-.07.01-.04.02-.08.04-.11ZM149.11,126.6c.72-.1,1.41-.25,2.07-.46v.46h-2.07Z"/>
      <g>
        <path class="cls-10" d="M70.96,108.02h2.61v5.02l4.69-5.02h3.04l-3.7,3.87c.93.37,1.7.93,2.07,2.07l1.48,4.89h-2.61l-1.2-3.98c-.21-.67-.52-1.08-1.2-1.48l-2.58,2.69v2.76h-2.61v-10.83Z"/>
        <path class="cls-10" d="M89.99,117.13c-.78.97-2.02,1.87-3.87,1.87-2.54,0-3.72-1.51-3.72-3.87v-7.12h2.61v6.7c0,1.34.62,2.13,1.85,2.13,1.06,0,2.15-.6,2.95-1.64v-7.19h2.61v10.83h-2.3l-.15-1.72Z"/>
        <path class="cls-10" d="M94.38,108.02h2.3l.15,1.72c.78-.97,2.02-1.87,3.88-1.87,2.52,0,3.7,1.49,3.7,3.85v7.13h-2.61v-6.72c0-1.34-.62-2.13-1.85-2.13-1.06,0-2.13.6-2.95,1.64v7.21h-2.61v-10.83Z"/>
        <path class="cls-10" d="M110.89,112.39c0-1.23-.21-2.33-2.28-2.33-1.33,0-2.78.45-2.78.45v-2.11s1.14-.52,3.08-.52c4.28,0,4.59,2.52,4.59,4.35v6.63h-2.61v-6.46Z"/>
        <path class="cls-10" d="M114.78,108.02h2.61l3.16,8.85h.13c.92-1.16,1.85-2.97,1.85-4.61,0-1.33-.32-2.43-2.6-2.22v-2.05c3.75-.35,5.21,1.31,5.21,4.05,0,3.01-1.94,5.58-3.16,6.82h-3.23l-3.98-10.83Z"/>
        <path class="cls-10" d="M133.75,118.75c-.71.17-1.4.26-2.05.26-2.02,0-3.62-.88-3.62-3.23s1.53-3.19,4.03-3.38l3.4-.24v-.04c0-1.51-1.27-1.74-2.54-1.74-2.13,0-4.26.43-4.26.43v-2.43s1.77-.52,4.3-.52c1.05,0,1.92.15,2.61.39l1.05-1.36h3.17l-2.13,2.75c.65.84.78,2.09.78,3.21v5.99h-2.99v-4.41l-2.82.21c-.92.07-1.57.24-1.57,1.03s.63.95,1.51.95c.34,0,.73-.02,1.12-.06v2.19Z"/>
        <path class="cls-10" d="M131.16,120.25h3.59v1.21c0,.62.22.93.82.93s.78-.32.78-.95v-1.2h2.5v1.49c0,2.04-2.02,2.52-3.29,2.52-1.2,0-3.1-.45-3.1-2.17v-.09h-1.31v-1.76Z"/>
        <path class="cls-10" d="M135.9,102.36h2.89v4.11h-2.89v-4.11Z"/>
        <path class="cls-9" d="M147.14,112.5v2.05h-2.39c.17,1.62,1.05,1.92,2.26,1.92,1.68,0,2.45-.78,2.45-3.04s-1.08-3.04-3.01-3.04-4.03.43-4.03.43v-2.43s1.68-.52,4.16-.52c4.33,0,5.77,2.63,5.77,5.57s-1.12,5.57-5.34,5.57c-3.88,0-5.4-2.05-4.89-6.5h5.02Z"/>
        <path class="cls-9" d="M158.33,112.39c0-.77-.06-2-2.13-2-1.21,0-2.76.43-2.76.43v-2.43s1.2-.52,3.16-.52c4.59,0,4.72,2.86,4.72,4.3v6.69h-2.99v-6.46Z"/>
        <path class="cls-9" d="M164.79,114.05l-2.05-.45c0-4.09,2.39-5.73,5.81-5.73s5.6,2.09,5.6,5.27v5.71h-2.99v-5.4c0-1.87-.69-3.21-2.61-3.21s-2.67.75-2.97,2.3l.92.22c.78.19,1.29.65,1.29,1.44v4.65h-2.99v-4.8Z"/>
        <path class="cls-9" d="M180.31,112.39c0-.77-.06-2-2.13-2-1.21,0-2.76.43-2.76.43v-2.43s1.2-.52,3.16-.52c4.59,0,4.72,2.86,4.72,4.3v6.69h-2.99v-6.46Z"/>
        <path class="cls-9" d="M185.02,113.08c0-3.66,2.2-5.21,5.51-5.21.86,0,1.76.15,2.45.43l1.06-1.4h3.17l-2.19,2.82c.69.75,1.01,1.85,1.01,3.36v5.77h-2.99v-5.73c0-1.87-.82-2.84-2.52-2.84s-2.52.97-2.52,2.84v1.38c.58-.63,1.4-1.16,2.82-1.16h.69v2.24h-.69c-1.61,0-2.28.56-2.82,1.12v2.15h-2.99v-5.77Z"/>
        <path class="cls-9" d="M203.58,118.75c-.71.17-1.4.26-2.05.26-2.02,0-3.62-.88-3.62-3.23s1.53-3.19,4.03-3.38l3.4-.24v-.04c0-1.51-1.27-1.74-2.54-1.74-2.13,0-4.26.43-4.26.43v-2.43s1.77-.52,4.3-.52c1.05,0,1.92.15,2.61.39l1.05-1.36h3.17l-2.13,2.75c.65.84.78,2.09.78,3.21v5.99h-2.99v-4.41l-2.82.21c-.92.07-1.57.24-1.57,1.03s.63.95,1.51.95c.34,0,.73-.02,1.12-.06v2.19Z"/>
        <path class="cls-9" d="M212.9,109.29c-.13,1.18.3,1.27,1.49,1.27h1.79v2.11h-2.24c-2.99,0-3.94-1.01-3.6-3.38h2.56ZM212.9,114.65c-.13,1.18.3,1.27,1.49,1.27h1.79v2.11h-2.24c-2.99,0-3.94-1.01-3.6-3.38h2.56Z"/>
        <path class="cls-9" d="M222.74,112.5v2.05h-2.39c.17,1.62,1.05,1.92,2.26,1.92,1.68,0,2.45-.78,2.45-3.04s-1.08-3.04-3.01-3.04-4.03.43-4.03.43v-2.43s1.68-.52,4.16-.52c4.33,0,5.77,2.63,5.77,5.57s-1.12,5.57-5.34,5.57c-3.88,0-5.4-2.05-4.89-6.5h5.02Z"/>
        <path class="cls-9" d="M233.93,112.39c0-.77-.06-2-2.13-2-1.21,0-2.76.43-2.76.43v-2.43s1.2-.52,3.16-.52c4.59,0,4.72,2.86,4.72,4.3v6.69h-2.99v-6.46Z"/>
        <path class="cls-9" d="M244.67,118.77c-.58.09-1.12.15-1.61.15-3.62,0-4.65-2.58-4.65-5.29,0-3.85,2.05-5.77,5.55-5.77,3.31,0,5.42,1.55,5.42,5.21v5.77h-2.99v-5.73c0-1.87-.73-2.84-2.43-2.84-1.89,0-2.52,1.16-2.52,3.4,0,1.44.17,2.82,2.19,2.82.3,0,.65-.02,1.05-.09v2.37Z"/>
        <path class="cls-7" d="M47.34,75.17l-6.5-10.14c-2.18,3.14-9.96,5.25-13.46,6.86-5.99,2.74-11.35,6.98-13.72,13.31-1.1,0,.18-6.3.37-7.09,1.18-4.97,3.65-8.87,7.14-12.39v-6.73c0-6.13.19-10.63,7.2-10.63,1.12,0,2.34.19,3.83.38v-11.2c-2.8-.38-5.24-.57-7.48-.57-14.02,0-17.57,7.75-17.57,18.76v36.95h14.02l13.09-20.39,13.09,20.39h14.02V20.9h-14.02v54.28Z"/>
        <polygon class="cls-6" points="39.49 109.83 46.78 109.83 46.78 119.49 60.81 119.49 60.81 99.87 39.49 99.87 39.49 109.83"/>
        <rect class="cls-5" x="24.44" y="8.16" width="14.49" height="21.06"/>
        <path class="cls-4" d="M107.08,74.02c-4.39,5.17-9.54,6.99-13.46,6.99-5.33,0-8.69-3.45-8.69-9.76v-34.08h-14.96v36.57c0,12.06,6.26,19.72,18.7,19.72,9.82,0,15.61-4.69,19.44-9.09l.84,8.33h13.09v-55.52h-14.96v36.85Z"/>
        <path class="cls-2" d="M146.87,74.69v-39.63c0-5.84.93-10.91,2.06-14.17l4.95-14.36h-13.93l-4.3,13.21-4.95-13.21h-13.65l5.24,13.88c1.03,2.78,3.46,4.5,7.2,4.5h4.49l-.28.77c-.93,2.87-1.78,6.51-1.78,12.73v39.54c0,10.43,7.1,15.03,16.08,15.03,1.96,0,4.02-.19,6.17-.67v-11.2c-6.92.86-7.29-.96-7.29-6.41Z"/>
        <polygon class="cls-3" points="222.95 20.9 211.92 76.8 202.57 40.04 188.92 40.04 179.57 76.8 171.91 37.17 157.33 37.17 169.38 92.69 186.96 92.69 195.75 58.13 204.53 92.69 222.11 92.69 237.53 20.9 222.95 20.9"/>
        <path class="cls-1" d="M38.51,46.4c-2.97-2.34-1.75.13-2.04,2.29-.99,7.3-9.41,11.49-14.26,16.02-.36.33-.7.67-1.04,1.01-3.49,3.51-5.95,7.42-7.14,12.39-.19.79-1.46,7.09-.37,7.09,2.36-6.32,7.72-10.57,13.72-13.31,3.5-1.6,11.28-3.71,13.46-6.86,0,0,0-.01.01-.02,3.4-4.95,2.54-14.78-2.34-18.62Z"/>
      </g>
    </g>
  </g>
</svg>