<?xml version="1.0" encoding="UTF-8"?>
<svg id="Layer_2" data-name="Layer 2" xmlns="http://www.w3.org/2000/svg" xmlns:xlink="http://www.w3.org/1999/xlink" viewBox="0 0 329.87 128.05">
  <defs>
    <style>
      .cls-1 {
        fill: #686baf;
      }

      .cls-2 {
        fill: url(#linear-gradient-3);
      }

      .cls-3 {
        fill: url(#linear-gradient-2);
      }

      .cls-4 {
        fill: url(#linear-gradient);
      }

      .cls-5 {
        fill: #f9aa1f;
      }
    </style>
    <linearGradient id="linear-gradient" x1="51.09" y1="81.42" x2="83.3" y2="103.97" gradientUnits="userSpaceOnUse">
      <stop offset=".23" stop-color="#f6d622"/>
      <stop offset=".45" stop-color="#f39b27"/>
      <stop offset=".65" stop-color="#f06c2c"/>
      <stop offset=".75" stop-color="#f05a2e"/>
    </linearGradient>
    <linearGradient id="linear-gradient-2" x1="48.32" y1="75.73" x2="80.53" y2="98.29" gradientUnits="userSpaceOnUse">
      <stop offset=".18" stop-color="#f6d622"/>
      <stop offset=".22" stop-color="#f5cb23"/>
      <stop offset=".39" stop-color="#f3a226"/>
      <stop offset=".56" stop-color="#f1822a"/>
      <stop offset=".72" stop-color="#f06c2c"/>
      <stop offset=".87" stop-color="#f05e2d"/>
      <stop offset="1" stop-color="#f05a2e"/>
    </linearGradient>
    <linearGradient id="linear-gradient-3" x1="14.18" y1="51.83" x2="62.77" y2="85.85" gradientUnits="userSpaceOnUse">
      <stop offset=".7" stop-color="#f6d320"/>
      <stop offset=".78" stop-color="#f5d020"/>
      <stop offset=".83" stop-color="#f5c621"/>
      <stop offset=".87" stop-color="#f4b723"/>
      <stop offset=".92" stop-color="#f3a025"/>
      <stop offset=".96" stop-color="#f28329"/>
      <stop offset=".99" stop-color="#f0612d"/>
      <stop offset="1" stop-color="#f05a2e"/>
    </linearGradient>
  </defs>
  <g id="Layer_1-2" data-name="Layer 1">
    <g>
      <g>
        <path class="cls-1" d="M7.41,112.75c.09.24.08.42-.04.56-.12.14-.28.22-.45.24-.26.04-.47-.02-.63-.18-.16-.15-.29-.34-.4-.56-.11-.22-.19-.45-.24-.68-.05-.23-.1-.41-.15-.54H1.98l-.53,1.46c-.08.21-.22.36-.41.44-.19.08-.37.1-.54.06-.17-.04-.31-.12-.41-.26-.1-.14-.11-.31-.03-.53l2.78-7.16c.08-.2.21-.36.37-.46.17-.11.34-.16.52-.16s.35.05.52.15c.17.1.29.26.37.47l2.8,7.14ZM3.73,106.88l-1.3,3.54h2.6l-1.3-3.54Z"/>
        <path class="cls-1" d="M14.32,105.84c.18.14.28.31.3.51.02.2-.02.36-.12.5-.1.14-.25.22-.44.26-.19.04-.41-.04-.66-.21-.26-.18-.5-.31-.71-.41-.21-.09-.5-.14-.85-.14-.42,0-.78.08-1.1.23-.31.15-.58.37-.81.63-.23.27-.39.58-.51.94-.11.36-.17.75-.17,1.15s.06.78.17,1.14c.11.36.28.67.49.93.21.27.48.48.79.63.31.15.67.23,1.08.23.2,0,.38-.01.53-.04.15-.03.3-.07.44-.12.14-.05.27-.1.41-.17.14-.07.29-.14.45-.22.24-.11.45-.13.62-.06.18.07.3.17.37.32.07.15.08.32.04.51-.05.19-.18.35-.39.48-.25.15-.59.3-1.02.43-.43.13-.92.2-1.45.2-.64,0-1.21-.11-1.71-.33-.5-.22-.92-.52-1.26-.9-.34-.38-.59-.83-.77-1.35-.17-.52-.26-1.08-.26-1.67s.09-1.13.26-1.66c.17-.52.43-.98.77-1.36.34-.39.76-.69,1.26-.92.5-.23,1.09-.34,1.75-.34.58,0,1.09.09,1.51.28.43.18.75.37.96.54Z"/>
        <path class="cls-1" d="M22.12,112.75c.09.24.08.42-.04.56-.12.14-.28.22-.45.24-.26.04-.47-.02-.63-.18-.16-.15-.29-.34-.4-.56-.11-.22-.19-.45-.24-.68-.05-.23-.1-.41-.15-.54h-3.51l-.53,1.46c-.08.21-.22.36-.41.44-.19.08-.37.1-.54.06-.17-.04-.31-.12-.41-.26-.1-.14-.11-.31-.03-.53l2.78-7.16c.08-.2.21-.36.37-.46.17-.11.34-.16.52-.16s.35.05.52.15c.17.1.29.26.37.47l2.8,7.14ZM18.43,106.88l-1.3,3.54h2.6l-1.3-3.54Z"/>
        <path class="cls-1" d="M29.71,109.25c0,.62-.08,1.18-.25,1.7-.17.52-.41.96-.73,1.34-.32.37-.72.67-1.18.88-.47.21-1.01.32-1.61.32h-2.17c-.31,0-.52-.09-.64-.26-.12-.17-.18-.36-.18-.56v-6.75c0-.24.07-.43.2-.58.13-.15.34-.22.62-.22h2.03c.66,0,1.24.11,1.74.34.49.23.9.53,1.22.91.32.38.56.82.72,1.32.16.5.24,1.02.24,1.57ZM28.27,109.25c0-.39-.04-.76-.13-1.11-.09-.35-.24-.66-.45-.92-.21-.26-.48-.47-.81-.62-.33-.15-.74-.23-1.21-.23h-1.34v5.86h1.39c.46,0,.86-.08,1.18-.24.33-.16.59-.38.79-.65.2-.27.35-.59.44-.95.09-.36.13-.74.13-1.13Z"/>
        <path class="cls-1" d="M31.36,113.48c-.27,0-.48-.09-.63-.26-.15-.17-.22-.36-.22-.56v-6.75c0-.2.07-.39.22-.55.15-.17.36-.25.63-.25h3.13c.25,0,.44.07.56.2.12.14.19.28.19.45s-.06.31-.19.44c-.12.13-.31.2-.56.2h-2.56v2.26h2.33c.25,0,.44.07.57.2.13.14.2.28.2.45s-.07.31-.2.44-.32.2-.57.2h-2.33v2.24h2.56c.25,0,.44.07.56.2.12.14.19.28.19.45s-.06.31-.19.45c-.12.14-.31.2-.56.2h-3.13Z"/>
        <path class="cls-1" d="M43.53,112.83c0,.25-.07.43-.22.55-.15.12-.31.18-.48.17-.17,0-.33-.07-.48-.2-.15-.12-.22-.31-.22-.56v-3.88l.16-1.83-.46,1.82-1.44,4.13c-.13.34-.37.52-.73.52s-.58-.17-.71-.52l-1.44-4.11-.45-1.8.14,1.8v3.9c0,.24-.07.42-.22.54-.15.12-.31.19-.48.19s-.33-.06-.48-.18c-.15-.12-.22-.3-.22-.55v-6.93c0-.24.08-.44.25-.6.17-.16.4-.24.71-.24.25,0,.46.05.63.16.17.11.31.31.42.62l1.85,5.31,1.87-5.31c.11-.31.25-.52.42-.62.17-.11.38-.16.61-.16.32,0,.56.08.73.24.17.16.25.36.25.6v6.95Z"/>
        <path class="cls-1" d="M46.11,112.81c0,.25-.07.44-.22.57-.15.13-.31.2-.5.2s-.35-.07-.5-.2c-.15-.13-.22-.32-.22-.57v-7.03c0-.25.07-.44.22-.57.15-.13.31-.2.5-.2s.35.07.5.2c.15.13.22.32.22.57v7.03Z"/>
        <path class="cls-1" d="M53.59,105.84c.18.14.28.31.3.51.02.2-.02.36-.12.5-.1.14-.25.22-.44.26-.19.04-.41-.04-.66-.21-.26-.18-.5-.31-.71-.41-.21-.09-.5-.14-.85-.14-.42,0-.78.08-1.1.23-.31.15-.58.37-.81.63-.23.27-.39.58-.51.94-.11.36-.17.75-.17,1.15s.06.78.17,1.14c.11.36.28.67.49.93.21.27.48.48.79.63.31.15.67.23,1.08.23.2,0,.38-.01.53-.04.15-.03.3-.07.44-.12.14-.05.27-.1.41-.17.14-.07.29-.14.45-.22.24-.11.45-.13.62-.06.18.07.3.17.37.32.07.15.08.32.04.51-.05.19-.18.35-.39.48-.25.15-.59.3-1.02.43-.43.13-.92.2-1.45.2-.64,0-1.21-.11-1.71-.33-.5-.22-.92-.52-1.26-.9-.34-.38-.59-.83-.77-1.35-.17-.52-.26-1.08-.26-1.67s.09-1.13.26-1.66c.17-.52.43-.98.77-1.36.34-.39.76-.69,1.26-.92.5-.23,1.09-.34,1.75-.34.58,0,1.09.09,1.51.28.43.18.75.37.96.54Z"/>
        <path class="cls-1" d="M63.95,105.84c.18.14.28.31.3.51.02.2-.02.36-.12.5-.1.14-.25.22-.44.26-.19.04-.41-.04-.66-.21-.26-.18-.5-.31-.71-.41-.21-.09-.5-.14-.85-.14-.42,0-.78.08-1.1.23-.31.15-.58.37-.81.63-.23.27-.39.58-.51.94-.11.36-.17.75-.17,1.15s.06.78.17,1.14c.11.36.28.67.49.93.21.27.48.48.79.63.31.15.67.23,1.08.23.2,0,.38-.01.53-.04.15-.03.3-.07.44-.12.14-.05.27-.1.41-.17.14-.07.29-.14.45-.22.24-.11.45-.13.62-.06.18.07.3.17.37.32.07.15.08.32.04.51-.05.19-.18.35-.39.48-.25.15-.59.3-1.02.43-.43.13-.92.2-1.45.2-.64,0-1.21-.11-1.71-.33-.5-.22-.92-.52-1.26-.9-.34-.38-.59-.83-.77-1.35-.17-.52-.26-1.08-.26-1.67s.09-1.13.26-1.66c.17-.52.43-.98.77-1.36.34-.39.76-.69,1.26-.92.5-.23,1.09-.34,1.75-.34.58,0,1.09.09,1.51.28.43.18.75.37.96.54Z"/>
        <path class="cls-1" d="M65.84,113.48c-.27,0-.48-.09-.63-.26-.15-.17-.22-.36-.22-.56v-6.75c0-.2.07-.39.22-.55.15-.17.36-.25.63-.25h3.13c.25,0,.44.07.56.2.12.14.19.28.19.45s-.06.31-.19.44c-.12.13-.31.2-.56.2h-2.56v2.26h2.33c.25,0,.44.07.57.2.13.14.2.28.2.45s-.07.31-.2.44-.32.2-.57.2h-2.33v2.24h2.56c.25,0,.44.07.56.2.12.14.19.28.19.45s-.06.31-.19.45c-.12.14-.31.2-.56.2h-3.13Z"/>
        <path class="cls-1" d="M77.22,112.86c0,.17-.06.31-.18.44-.12.12-.26.2-.43.24-.17.04-.34.02-.53-.04-.18-.06-.34-.19-.47-.39l-3.51-5.18-.3-.61.04.66v4.83c0,.26-.07.46-.22.59-.15.13-.31.2-.48.2s-.33-.07-.48-.2c-.15-.13-.22-.33-.22-.59v-7.11c0-.17.06-.31.18-.44.12-.12.26-.2.43-.24.17-.04.34-.02.53.04.18.07.35.19.49.38l3.49,5.2.3.61-.04-.62v-4.9c0-.25.07-.44.22-.57.15-.13.31-.2.48-.2s.33.07.48.2c.15.13.22.32.22.57v7.12Z"/>
        <path class="cls-1" d="M81.57,106.41v6.38c0,.25-.07.44-.22.57-.15.13-.31.2-.5.2s-.35-.07-.5-.2c-.15-.13-.22-.32-.22-.57v-6.38h-1.51c-.25,0-.44-.07-.56-.2-.12-.14-.19-.29-.19-.45s.06-.32.19-.45c.12-.14.31-.2.56-.2h4.47c.25,0,.44.07.56.2.12.14.19.29.19.45s-.06.32-.19.45c-.12.14-.31.2-.56.2h-1.51Z"/>
        <path class="cls-1" d="M85.41,113.48c-.27,0-.48-.09-.63-.26-.15-.17-.22-.36-.22-.56v-6.75c0-.2.07-.39.22-.55.15-.17.36-.25.63-.25h3.13c.25,0,.44.07.56.2.12.14.19.28.19.45s-.06.31-.19.44c-.12.13-.31.2-.56.2h-2.56v2.26h2.33c.25,0,.44.07.57.2.13.14.2.28.2.45s-.07.31-.2.44-.32.2-.57.2h-2.33v2.24h2.56c.25,0,.44.07.56.2.12.14.19.28.19.45s-.06.31-.19.45c-.12.14-.31.2-.56.2h-3.13Z"/>
        <path class="cls-1" d="M95.67,107.61c0,.28-.05.57-.15.85-.1.28-.25.53-.45.76-.2.23-.45.42-.76.58-.3.16-.65.26-1.04.31l2.08,2.28c.19.2.27.39.25.58-.02.18-.1.33-.24.44-.14.11-.31.16-.51.15-.2,0-.39-.1-.57-.29l-2.85-3.1v2.65c0,.25-.07.44-.22.57-.15.13-.31.2-.5.2s-.35-.07-.5-.2c-.15-.13-.22-.32-.22-.57v-6.89c0-.23.07-.42.2-.58.14-.16.35-.24.65-.24h1.94c.47,0,.89.07,1.26.21.36.14.66.33.9.57.24.24.42.5.54.8.12.3.19.61.19.93ZM94.26,107.61c0-.31-.11-.59-.34-.85-.23-.26-.6-.39-1.12-.39h-1.37v2.51h1.42c.45,0,.8-.13,1.03-.39.24-.26.36-.55.37-.87Z"/>
        <path class="cls-1" d="M101.05,106.4v2.23h2.15c.25,0,.44.07.56.2.12.14.19.28.19.45s-.06.31-.19.45c-.12.14-.31.2-.56.2h-2.15v2.87c0,.25-.07.44-.22.57-.15.13-.31.2-.5.2s-.35-.07-.5-.2c-.15-.13-.22-.32-.22-.57v-6.89c0-.2.07-.39.2-.55.13-.17.35-.25.66-.25h3.1c.25,0,.44.07.56.2.12.14.19.28.19.45s-.06.31-.19.45c-.12.14-.31.2-.56.2h-2.51Z"/>
        <path class="cls-1" d="M112.22,109.3c0,.53-.08,1.05-.25,1.56-.17.5-.41.96-.74,1.35-.33.4-.73.72-1.21.96-.48.24-1.04.37-1.68.37s-1.21-.12-1.69-.37c-.49-.24-.89-.56-1.22-.96-.33-.4-.57-.85-.74-1.35-.17-.5-.25-1.02-.25-1.56s.08-1.06.25-1.57c.17-.51.41-.96.74-1.36.33-.4.73-.72,1.22-.96.49-.24,1.05-.37,1.69-.37s1.2.12,1.68.37c.48.24.88.56,1.21.96.33.4.57.85.74,1.36.17.51.25,1.03.25,1.57ZM110.84,109.3c0-.37-.05-.73-.15-1.1-.1-.36-.26-.69-.46-.97-.21-.28-.47-.51-.78-.69-.31-.17-.69-.26-1.11-.26s-.8.09-1.1.26c-.31.17-.56.4-.77.69-.2.28-.35.61-.45.97-.1.36-.14.73-.14,1.1s.05.75.14,1.1c.09.36.24.68.45.96.2.28.46.51.77.69.31.17.68.26,1.1.26s.8-.09,1.11-.26c.31-.17.58-.4.78-.69.21-.28.36-.61.46-.96.1-.36.15-.72.15-1.1Z"/>
        <path class="cls-1" d="M118.89,107.61c0,.28-.05.57-.15.85-.1.28-.25.53-.45.76-.2.23-.45.42-.76.58-.3.16-.65.26-1.04.31l2.08,2.28c.19.2.27.39.25.58-.02.18-.1.33-.24.44-.14.11-.31.16-.51.15-.2,0-.39-.1-.57-.29l-2.85-3.1v2.65c0,.25-.07.44-.22.57-.15.13-.31.2-.5.2s-.35-.07-.5-.2c-.15-.13-.22-.32-.22-.57v-6.89c0-.23.07-.42.2-.58.14-.16.35-.24.65-.24h1.94c.47,0,.89.07,1.26.21.36.14.66.33.9.57.24.24.42.5.54.8.12.3.19.61.19.93ZM117.49,107.61c0-.31-.11-.59-.34-.85-.23-.26-.6-.39-1.12-.39h-1.37v2.51h1.42c.45,0,.8-.13,1.03-.39.24-.26.36-.55.37-.87Z"/>
        <path class="cls-1" d="M129.6,112.75c.09.24.08.42-.04.56-.12.14-.28.22-.45.24-.26.04-.47-.02-.63-.18-.16-.15-.29-.34-.4-.56-.11-.22-.19-.45-.24-.68-.05-.23-.1-.41-.15-.54h-3.51l-.53,1.46c-.08.21-.22.36-.41.44-.19.08-.37.1-.54.06-.17-.04-.31-.12-.41-.26-.1-.14-.11-.31-.03-.53l2.78-7.16c.08-.2.21-.36.37-.46.17-.11.34-.16.52-.16s.35.05.52.15c.17.1.29.26.37.47l2.8,7.14ZM125.91,106.88l-1.3,3.54h2.6l-1.3-3.54Z"/>
        <path class="cls-1" d="M131.79,112.81c0,.25-.07.44-.22.57-.15.13-.31.2-.5.2s-.35-.07-.5-.2c-.15-.13-.22-.32-.22-.57v-7.03c0-.25.07-.44.22-.57.15-.13.31-.2.5-.2s.35.07.5.2c.15.13.22.32.22.57v7.03Z"/>
        <path class="cls-1" d="M138.77,107.61c0,.28-.05.57-.15.85-.1.28-.25.53-.45.76-.2.23-.45.42-.76.58-.3.16-.65.26-1.04.31l2.08,2.28c.19.2.27.39.25.58-.02.18-.1.33-.24.44-.14.11-.31.16-.51.15-.2,0-.39-.1-.57-.29l-2.85-3.1v2.65c0,.25-.07.44-.22.57-.15.13-.31.2-.5.2s-.35-.07-.5-.2c-.15-.13-.22-.32-.22-.57v-6.89c0-.23.07-.42.2-.58.14-.16.35-.24.65-.24h1.94c.47,0,.89.07,1.26.21.36.14.66.33.9.57.24.24.42.5.54.8.12.3.19.61.19.93ZM137.36,107.61c0-.31-.11-.59-.34-.85-.23-.26-.6-.39-1.12-.39h-1.37v2.51h1.42c.45,0,.8-.13,1.03-.39.24-.26.36-.55.37-.87Z"/>
        <path class="cls-1" d="M148.39,107.75c0,.33-.06.66-.19.97-.12.31-.31.6-.55.85-.24.25-.55.45-.91.61-.36.15-.78.23-1.26.23h-1.39v2.39c0,.25-.07.44-.22.57-.15.13-.31.2-.5.2s-.35-.07-.5-.2c-.15-.13-.22-.32-.22-.57v-6.89c0-.23.07-.42.2-.57.14-.15.35-.23.65-.23h1.94c.49,0,.91.07,1.28.22.37.15.67.35.92.6.24.25.43.53.55.85.12.32.19.65.19.98ZM146.98,107.75c0-.36-.12-.68-.37-.97-.24-.29-.63-.44-1.15-.44h-1.37v2.81h1.42c.46,0,.82-.15,1.07-.44.25-.29.38-.61.39-.97Z"/>
        <path class="cls-1" d="M156.51,109.3c0,.53-.08,1.05-.25,1.56-.17.5-.41.96-.74,1.35-.33.4-.73.72-1.21.96-.48.24-1.04.37-1.68.37s-1.21-.12-1.69-.37c-.49-.24-.89-.56-1.22-.96-.33-.4-.57-.85-.74-1.35-.17-.5-.25-1.02-.25-1.56s.08-1.06.25-1.57c.17-.51.41-.96.74-1.36.33-.4.73-.72,1.22-.96.49-.24,1.05-.37,1.69-.37s1.2.12,1.68.37c.48.24.88.56,1.21.96.33.4.57.85.74,1.36.17.51.25,1.03.25,1.57ZM155.13,109.3c0-.37-.05-.73-.15-1.1-.1-.36-.26-.69-.46-.97-.21-.28-.47-.51-.78-.69-.31-.17-.69-.26-1.11-.26s-.8.09-1.1.26c-.31.17-.56.4-.77.69-.2.28-.35.61-.45.97-.1.36-.14.73-.14,1.1s.05.75.14,1.1c.09.36.24.68.45.96.2.28.46.51.77.69.31.17.68.26,1.1.26s.8-.09,1.11-.26c.31-.17.58-.4.78-.69.21-.28.36-.61.46-.96.1-.36.15-.72.15-1.1Z"/>
        <path class="cls-1" d="M158.38,113.48c-.3,0-.51-.08-.65-.25-.14-.17-.2-.36-.2-.57v-6.89c0-.25.07-.44.22-.57.15-.13.31-.2.5-.2s.35.07.5.2c.15.13.22.32.22.57v6.39h2.24c.25,0,.44.07.56.2.12.14.19.29.19.45s-.06.32-.19.45c-.12.14-.31.2-.56.2h-2.83Z"/>
        <path class="cls-1" d="M163.47,113.48c-.3,0-.51-.08-.65-.25-.14-.17-.2-.36-.2-.57v-6.89c0-.25.07-.44.22-.57.15-.13.31-.2.5-.2s.35.07.5.2c.15.13.22.32.22.57v6.39h2.24c.25,0,.44.07.56.2.12.14.19.29.19.45s-.06.32-.19.45c-.12.14-.31.2-.56.2h-2.83Z"/>
        <path class="cls-1" d="M174.62,110.12c0,.71-.11,1.29-.33,1.74-.22.45-.5.79-.84,1.04s-.71.42-1.12.51-.8.13-1.17.13-.77-.04-1.18-.13c-.41-.09-.78-.26-1.12-.51-.34-.25-.62-.6-.84-1.04-.22-.45-.33-1.02-.33-1.74v-4.35c0-.21.07-.39.2-.53.13-.14.31-.2.53-.2.24,0,.42.07.55.2.13.14.2.31.2.53v4.72c0,.57.18,1.01.54,1.33.36.31.85.47,1.45.47s1.09-.16,1.45-.47c.36-.31.54-.76.54-1.33v-4.72c0-.21.07-.39.2-.53.13-.14.31-.2.53-.2s.4.07.53.2c.13.14.2.31.2.53v4.35Z"/>
        <path class="cls-1" d="M178.98,106.41v6.38c0,.25-.07.44-.22.57-.15.13-.31.2-.5.2s-.35-.07-.5-.2c-.15-.13-.22-.32-.22-.57v-6.38h-1.51c-.25,0-.44-.07-.56-.2-.12-.14-.19-.29-.19-.45s.06-.32.19-.45c.12-.14.31-.2.56-.2h4.47c.25,0,.44.07.56.2.12.14.19.29.19.45s-.06.32-.19.45c-.12.14-.31.2-.56.2h-1.51Z"/>
        <path class="cls-1" d="M183.38,112.81c0,.25-.07.44-.22.57-.15.13-.31.2-.5.2s-.35-.07-.5-.2c-.15-.13-.22-.32-.22-.57v-7.03c0-.25.07-.44.22-.57.15-.13.31-.2.5-.2s.35.07.5.2c.15.13.22.32.22.57v7.03Z"/>
        <path class="cls-1" d="M192.14,109.3c0,.53-.08,1.05-.25,1.56-.17.5-.41.96-.74,1.35-.33.4-.73.72-1.21.96-.48.24-1.04.37-1.68.37s-1.21-.12-1.69-.37c-.49-.24-.89-.56-1.22-.96-.33-.4-.57-.85-.74-1.35-.17-.5-.25-1.02-.25-1.56s.08-1.06.25-1.57c.17-.51.41-.96.74-1.36.33-.4.73-.72,1.22-.96.49-.24,1.05-.37,1.69-.37s1.2.12,1.68.37c.48.24.88.56,1.21.96.33.4.57.85.74,1.36.17.51.25,1.03.25,1.57ZM190.77,109.3c0-.37-.05-.73-.15-1.1-.1-.36-.26-.69-.46-.97-.21-.28-.47-.51-.78-.69-.31-.17-.69-.26-1.11-.26s-.8.09-1.1.26c-.31.17-.56.4-.77.69-.2.28-.35.61-.45.97-.1.36-.14.73-.14,1.1s.05.75.14,1.1c.09.36.24.68.45.96.2.28.46.51.77.69.31.17.68.26,1.1.26s.8-.09,1.11-.26c.31-.17.58-.4.78-.69.21-.28.36-.61.46-.96.1-.36.15-.72.15-1.1Z"/>
        <path class="cls-1" d="M199.94,112.86c0,.17-.06.31-.18.44-.12.12-.26.2-.43.24-.17.04-.34.02-.53-.04-.18-.06-.34-.19-.47-.39l-3.51-5.18-.3-.61.04.66v4.83c0,.26-.07.46-.22.59-.15.13-.31.2-.48.2s-.33-.07-.48-.2c-.15-.13-.22-.33-.22-.59v-7.11c0-.17.06-.31.18-.44.12-.12.26-.2.43-.24.17-.04.34-.02.53.04.18.07.35.19.49.38l3.49,5.2.3.61-.04-.62v-4.9c0-.25.07-.44.22-.57.15-.13.31-.2.48-.2s.33.07.48.2c.15.13.22.32.22.57v7.12Z"/>
        <path class="cls-1" d="M205.89,112.81c0,.25-.07.44-.22.57-.15.13-.31.2-.5.2s-.35-.07-.5-.2c-.15-.13-.22-.32-.22-.57v-7.03c0-.25.07-.44.22-.57.15-.13.31-.2.5-.2s.35.07.5.2c.15.13.22.32.22.57v7.03Z"/>
        <path class="cls-1" d="M213.99,112.86c0,.17-.06.31-.18.44-.12.12-.26.2-.43.24-.17.04-.34.02-.53-.04-.18-.06-.34-.19-.47-.39l-3.51-5.18-.3-.61.04.66v4.83c0,.26-.07.46-.22.59-.15.13-.31.2-.48.2s-.33-.07-.48-.2c-.15-.13-.22-.33-.22-.59v-7.11c0-.17.06-.31.18-.44.12-.12.26-.2.43-.24.17-.04.34-.02.53.04.18.07.35.19.49.38l3.49,5.2.3.61-.04-.62v-4.9c0-.25.07-.44.22-.57.15-.13.31-.2.48-.2s.33.07.48.2c.15.13.22.32.22.57v7.12Z"/>
        <path class="cls-1" d="M225.28,112.86c0,.17-.06.31-.18.44-.12.12-.26.2-.43.24-.17.04-.34.02-.53-.04-.18-.06-.34-.19-.47-.39l-3.51-5.18-.3-.61.04.66v4.83c0,.26-.07.46-.22.59-.15.13-.31.2-.48.2s-.33-.07-.48-.2c-.15-.13-.22-.33-.22-.59v-7.11c0-.17.06-.31.18-.44.12-.12.26-.2.43-.24.17-.04.34-.02.53.04.18.07.35.19.49.38l3.49,5.2.3.61-.04-.62v-4.9c0-.25.07-.44.22-.57.15-.13.31-.2.48-.2s.33.07.48.2c.15.13.22.32.22.57v7.12Z"/>
        <path class="cls-1" d="M234.03,109.3c0,.53-.08,1.05-.25,1.56-.17.5-.41.96-.74,1.35-.33.4-.73.72-1.21.96-.48.24-1.04.37-1.68.37s-1.21-.12-1.69-.37c-.49-.24-.89-.56-1.22-.96-.33-.4-.57-.85-.74-1.35-.17-.5-.25-1.02-.25-1.56s.08-1.06.25-1.57c.17-.51.41-.96.74-1.36.33-.4.73-.72,1.22-.96.49-.24,1.05-.37,1.69-.37s1.2.12,1.68.37c.48.24.88.56,1.21.96.33.4.57.85.74,1.36.17.51.25,1.03.25,1.57ZM232.66,109.3c0-.37-.05-.73-.15-1.1-.1-.36-.26-.69-.46-.97-.21-.28-.47-.51-.78-.69-.31-.17-.69-.26-1.11-.26s-.8.09-1.1.26c-.31.17-.56.4-.77.69-.2.28-.35.61-.45.97-.1.36-.14.73-.14,1.1s.05.75.14,1.1c.09.36.24.68.45.96.2.28.46.51.77.69.31.17.68.26,1.1.26s.8-.09,1.11-.26c.31-.17.58-.4.78-.69.21-.28.36-.61.46-.96.1-.36.15-.72.15-1.1Z"/>
        <path class="cls-1" d="M240.71,107.61c0,.28-.05.57-.15.85-.1.28-.25.53-.45.76-.2.23-.45.42-.76.58-.3.16-.65.26-1.04.31l2.08,2.28c.19.2.27.39.25.58-.02.18-.1.33-.24.44-.14.11-.31.16-.51.15-.2,0-.39-.1-.57-.29l-2.85-3.1v2.65c0,.25-.07.44-.22.57-.15.13-.31.2-.5.2s-.35-.07-.5-.2c-.15-.13-.22-.32-.22-.57v-6.89c0-.23.07-.42.2-.58.14-.16.35-.24.65-.24h1.94c.47,0,.89.07,1.26.21.36.14.66.33.9.57.24.24.42.5.54.8.12.3.19.61.19.93ZM239.3,107.61c0-.31-.11-.59-.34-.85-.23-.26-.6-.39-1.12-.39h-1.37v2.51h1.42c.45,0,.8-.13,1.03-.39.24-.26.36-.55.37-.87Z"/>
        <path class="cls-1" d="M244.45,106.41v6.38c0,.25-.07.44-.22.57-.15.13-.31.2-.5.2s-.35-.07-.5-.2c-.15-.13-.22-.32-.22-.57v-6.38h-1.51c-.25,0-.44-.07-.56-.2-.12-.14-.19-.29-.19-.45s.06-.32.19-.45c.12-.14.31-.2.56-.2h4.47c.25,0,.44.07.56.2.12.14.19.29.19.45s-.06.32-.19.45c-.12.14-.31.2-.56.2h-1.51Z"/>
        <path class="cls-1" d="M253.85,112.75c0,.28-.07.5-.22.64-.15.14-.31.21-.5.21s-.35-.07-.5-.21c-.15-.14-.22-.36-.22-.64v-2.92h-3.58v2.92c0,.28-.07.5-.22.64-.15.14-.31.21-.5.21s-.35-.07-.5-.21c-.15-.14-.22-.36-.22-.64v-6.91c0-.28.07-.5.22-.65.15-.15.31-.22.5-.22s.35.07.5.22c.15.15.22.37.22.65v2.74h3.58v-2.74c0-.28.07-.5.22-.65.15-.15.31-.22.5-.22s.35.07.5.22c.15.15.22.37.22.65v6.91Z"/>
        <path class="cls-1" d="M256.02,113.48c-.27,0-.48-.09-.63-.26-.15-.17-.22-.36-.22-.56v-6.75c0-.2.07-.39.22-.55.15-.17.36-.25.63-.25h3.13c.25,0,.44.07.56.2.12.14.19.28.19.45s-.06.31-.19.44c-.12.13-.31.2-.56.2h-2.56v2.26h2.33c.25,0,.44.07.57.2.13.14.2.28.2.45s-.07.31-.2.44c-.13.13-.32.2-.57.2h-2.33v2.24h2.56c.25,0,.44.07.56.2.12.14.19.28.19.45s-.06.31-.19.45c-.12.14-.31.2-.56.2h-3.13Z"/>
        <path class="cls-1" d="M266.28,107.61c0,.28-.05.57-.15.85-.1.28-.25.53-.45.76-.2.23-.45.42-.76.58-.3.16-.65.26-1.04.31l2.08,2.28c.19.2.27.39.25.58-.02.18-.1.33-.24.44-.14.11-.31.16-.51.15-.2,0-.39-.1-.57-.29l-2.85-3.1v2.65c0,.25-.07.44-.22.57-.15.13-.31.2-.5.2s-.35-.07-.5-.2c-.15-.13-.22-.32-.22-.57v-6.89c0-.23.07-.42.2-.58.14-.16.35-.24.65-.24h1.94c.47,0,.89.07,1.26.21.36.14.66.33.9.57.24.24.42.5.54.8.12.3.19.61.19.93ZM264.87,107.61c0-.31-.11-.59-.34-.85-.23-.26-.6-.39-1.12-.39h-1.37v2.51h1.42c.45,0,.8-.13,1.03-.39.24-.26.36-.55.37-.87Z"/>
        <path class="cls-1" d="M273.76,112.86c0,.17-.06.31-.18.44-.12.12-.26.2-.43.24-.17.04-.34.02-.53-.04-.18-.06-.34-.19-.47-.39l-3.51-5.18-.3-.61.04.66v4.83c0,.26-.07.46-.22.59-.15.13-.31.2-.48.2s-.33-.07-.48-.2c-.15-.13-.22-.33-.22-.59v-7.11c0-.17.06-.31.18-.44.12-.12.26-.2.43-.24.17-.04.34-.02.53.04.18.07.35.19.49.38l3.49,5.2.3.61-.04-.62v-4.9c0-.25.07-.44.22-.57.15-.13.31-.2.48-.2s.33.07.48.2c.15.13.22.32.22.57v7.12Z"/>
        <path class="cls-1" d="M281.31,106.41v6.38c0,.25-.07.44-.22.57-.15.13-.31.2-.5.2s-.35-.07-.5-.2c-.15-.13-.22-.32-.22-.57v-6.38h-1.51c-.25,0-.44-.07-.56-.2-.12-.14-.19-.29-.19-.45s.06-.32.19-.45c.12-.14.31-.2.56-.2h4.47c.25,0,.44.07.56.2.12.14.19.29.19.45s-.06.32-.19.45c-.12.14-.31.2-.56.2h-1.51Z"/>
        <path class="cls-1" d="M290.71,112.75c0,.28-.07.5-.22.64-.15.14-.31.21-.5.21s-.35-.07-.5-.21c-.15-.14-.22-.36-.22-.64v-2.92h-3.58v2.92c0,.28-.07.5-.22.64-.15.14-.31.21-.5.21s-.35-.07-.5-.21c-.15-.14-.22-.36-.22-.64v-6.91c0-.28.07-.5.22-.65.15-.15.31-.22.5-.22s.35.07.5.22c.15.15.22.37.22.65v2.74h3.58v-2.74c0-.28.07-.5.22-.65.15-.15.31-.22.5-.22s.35.07.5.22c.15.15.22.37.22.65v6.91Z"/>
        <path class="cls-1" d="M298.8,112.75c.09.24.08.42-.04.56-.12.14-.28.22-.45.24-.26.04-.47-.02-.63-.18-.16-.15-.29-.34-.4-.56-.11-.22-.19-.45-.24-.68-.05-.23-.1-.41-.15-.54h-3.51l-.53,1.46c-.08.21-.22.36-.41.44-.19.08-.37.1-.54.06-.17-.04-.31-.12-.41-.26-.1-.14-.11-.31-.03-.53l2.78-7.16c.08-.2.21-.36.37-.46.17-.11.34-.16.52-.16s.35.05.52.15c.17.1.29.26.37.47l2.8,7.14ZM295.11,106.88l-1.3,3.54h2.6l-1.3-3.54Z"/>
        <path class="cls-1" d="M300.99,112.81c0,.25-.07.44-.22.57-.15.13-.31.2-.5.2s-.35-.07-.5-.2c-.15-.13-.22-.32-.22-.57v-7.03c0-.25.07-.44.22-.57.15-.13.31-.2.5-.2s.35.07.5.2c.15.13.22.32.22.57v7.03Z"/>
        <path class="cls-1" d="M303.16,113.48c-.3,0-.51-.08-.65-.25-.14-.17-.2-.36-.2-.57v-6.89c0-.25.07-.44.22-.57.15-.13.31-.2.5-.2s.35.07.5.2c.15.13.22.32.22.57v6.39h2.24c.25,0,.44.07.56.2.12.14.19.29.19.45s-.06.32-.19.45c-.12.14-.31.2-.56.2h-2.83Z"/>
        <path class="cls-1" d="M314.2,112.75c.09.24.08.42-.04.56-.12.14-.28.22-.45.24-.26.04-.47-.02-.63-.18-.16-.15-.29-.34-.4-.56-.11-.22-.19-.45-.24-.68-.05-.23-.1-.41-.15-.54h-3.51l-.53,1.46c-.08.21-.22.36-.41.44-.19.08-.37.1-.54.06-.17-.04-.31-.12-.41-.26-.1-.14-.11-.31-.03-.53l2.78-7.16c.08-.2.21-.36.37-.46.17-.11.34-.16.52-.16s.35.05.52.15c.17.1.29.26.37.47l2.8,7.14ZM310.52,106.88l-1.3,3.54h2.6l-1.3-3.54Z"/>
        <path class="cls-1" d="M321.73,112.86c0,.17-.06.31-.18.44-.12.12-.26.2-.43.24-.17.04-.34.02-.53-.04-.18-.06-.34-.19-.47-.39l-3.51-5.18-.3-.61.04.66v4.83c0,.26-.07.46-.22.59-.15.13-.31.2-.48.2s-.33-.07-.48-.2c-.15-.13-.22-.33-.22-.59v-7.11c0-.17.06-.31.18-.44.12-.12.26-.2.43-.24.17-.04.34-.02.53.04.18.07.35.19.49.38l3.49,5.2.3.61-.04-.62v-4.9c0-.25.07-.44.22-.57.15-.13.31-.2.48-.2s.33.07.48.2c.15.13.22.32.22.57v7.12Z"/>
        <path class="cls-1" d="M329.87,109.25c0,.62-.08,1.18-.25,1.7-.17.52-.41.96-.73,1.34-.32.37-.72.67-1.18.88-.47.21-1.01.32-1.61.32h-2.17c-.31,0-.52-.09-.64-.26-.12-.17-.18-.36-.18-.56v-6.75c0-.24.07-.43.2-.58.13-.15.34-.22.62-.22h2.03c.66,0,1.24.11,1.74.34.49.23.9.53,1.22.91.32.38.56.82.72,1.32.16.5.24,1.02.24,1.57ZM328.43,109.25c0-.39-.04-.76-.13-1.11-.09-.35-.24-.66-.45-.92-.21-.26-.48-.47-.81-.62-.33-.15-.74-.23-1.21-.23h-1.34v5.86h1.39c.46,0,.86-.08,1.18-.24.33-.16.59-.38.79-.65.2-.27.35-.59.44-.95.09-.36.13-.74.13-1.13Z"/>
        <path class="cls-1" d="M105.21,119.71c.19.15.3.33.33.54.03.21-.02.39-.12.54-.11.15-.26.24-.47.28-.2.04-.44-.04-.71-.23-.28-.19-.54-.34-.77-.44-.23-.1-.54-.15-.92-.15-.45,0-.84.08-1.18.25-.34.17-.63.39-.87.68-.24.29-.42.62-.55,1.01-.12.39-.18.8-.18,1.23s.06.84.18,1.22c.12.38.3.72.53,1,.23.29.51.51.85.68.34.17.72.25,1.16.25.22,0,.41-.02.57-.05.17-.03.32-.07.47-.12.15-.05.29-.11.44-.18.15-.07.31-.15.49-.24.25-.11.48-.14.67-.07.19.07.33.18.4.34.08.16.09.34.04.55-.05.2-.19.38-.42.52-.27.17-.63.32-1.1.46-.47.14-.98.21-1.56.21-.69,0-1.3-.12-1.84-.35-.54-.24-.98-.56-1.35-.97-.36-.41-.64-.89-.82-1.45-.18-.56-.28-1.16-.28-1.8s.09-1.22.28-1.78c.18-.56.46-1.05.82-1.46.36-.41.82-.74,1.36-.98.54-.24,1.17-.36,1.88-.36.62,0,1.17.1,1.63.3.46.2.8.39,1.03.58Z"/>
        <path class="cls-1" d="M113.2,127.13c0,.31-.08.54-.24.69-.16.15-.34.23-.54.23s-.38-.08-.54-.23c-.16-.15-.24-.38-.24-.69v-3.14h-3.84v3.14c0,.31-.08.54-.24.69-.16.15-.34.23-.54.23s-.38-.08-.54-.23c-.16-.15-.24-.38-.24-.69v-7.42c0-.31.08-.54.24-.7.16-.16.34-.24.54-.24s.38.08.54.24c.16.16.24.39.24.7v2.95h3.84v-2.95c0-.31.08-.54.24-.7.16-.16.34-.24.54-.24s.38.08.54.24c.16.16.24.39.24.7v7.42Z"/>
        <path class="cls-1" d="M116.13,127.19c0,.27-.08.47-.24.61-.16.14-.34.21-.54.21s-.38-.07-.54-.21c-.16-.14-.24-.34-.24-.61v-7.55c0-.27.08-.47.24-.61.16-.14.34-.21.54-.21s.38.07.54.21c.16.14.24.34.24.61v7.55Z"/>
        <path class="cls-1" d="M124.85,127.13c.1.26.09.46-.05.6-.13.15-.3.23-.49.26-.28.04-.51-.03-.68-.19-.17-.17-.32-.37-.43-.6-.11-.24-.2-.48-.26-.73-.06-.25-.11-.44-.16-.58h-3.77l-.57,1.57c-.09.23-.24.39-.44.47-.2.08-.4.11-.58.07-.18-.04-.33-.13-.44-.28-.11-.15-.12-.33-.03-.56l2.98-7.69c.09-.22.22-.38.4-.5.18-.11.36-.17.55-.17s.38.05.55.16c.18.11.31.28.4.51l3,7.67ZM120.89,120.82l-1.4,3.81h2.79l-1.4-3.81Z"/>
        <path class="cls-1" d="M132.94,127.25c0,.18-.06.33-.19.47-.13.13-.28.22-.46.26-.18.04-.37.03-.56-.04-.2-.06-.37-.2-.51-.42l-3.77-5.57-.33-.65.04.71v5.18c0,.28-.08.49-.24.63-.16.14-.33.21-.52.21s-.36-.07-.52-.21c-.16-.14-.24-.35-.24-.63v-7.63c0-.18.06-.33.19-.47.13-.13.28-.22.46-.26.18-.04.37-.02.56.05.2.07.37.21.53.41l3.75,5.58.33.65-.04-.67v-5.26c0-.27.08-.47.24-.61.16-.14.33-.21.52-.21s.36.07.52.21c.16.14.24.34.24.61v7.65Z"/>
        <path class="cls-1" d="M141.95,123.98c0,.47-.06.95-.18,1.42-.12.48-.33.91-.63,1.29-.3.38-.7.7-1.2.94-.5.24-1.13.36-1.88.36-.69,0-1.29-.13-1.8-.39-.51-.26-.94-.61-1.28-1.04-.34-.43-.6-.92-.76-1.46-.17-.54-.25-1.1-.25-1.67,0-.62.09-1.22.28-1.78.18-.56.46-1.05.82-1.46.36-.41.82-.74,1.36-.98.54-.24,1.17-.36,1.88-.36.62,0,1.17.1,1.63.3.46.2.8.39,1.03.58.19.15.3.33.32.54.02.21-.03.39-.13.55-.11.15-.26.25-.47.29-.2.04-.43-.04-.69-.23-.28-.2-.54-.35-.77-.45s-.54-.14-.92-.14c-.46,0-.86.08-1.2.25-.34.17-.63.39-.87.67-.24.28-.41.62-.53,1-.11.39-.17.8-.17,1.23,0,.4.06.78.17,1.17.11.38.28.73.5,1.03.22.31.48.55.8.74.32.18.69.28,1.11.28.38,0,.72-.07,1-.2s.53-.31.72-.53c.19-.22.33-.45.42-.71.09-.25.13-.51.13-.77v-.13h-1.51c-.27,0-.47-.07-.6-.22-.13-.15-.2-.31-.2-.49s.07-.34.2-.49c.13-.15.33-.22.6-.22h1.95c.42,0,.71.1.88.31.17.2.25.47.25.78Z"/>
        <path class="cls-1" d="M154.26,127.21c0,.27-.08.47-.24.59-.16.13-.33.19-.52.18-.18,0-.36-.08-.52-.21-.16-.13-.24-.33-.24-.6v-4.17l.17-1.97-.5,1.95-1.55,4.44c-.14.37-.4.55-.78.55s-.62-.18-.77-.55l-1.55-4.42-.48-1.93.15,1.93v4.19c0,.26-.08.45-.24.58-.16.13-.33.2-.52.2s-.36-.06-.52-.19c-.16-.13-.24-.33-.24-.59v-7.44c0-.25.09-.47.27-.64.18-.17.43-.26.77-.26.27,0,.49.06.68.17.18.11.33.34.45.67l1.99,5.7,2.01-5.7c.11-.33.26-.55.45-.67.18-.11.4-.17.66-.17.34,0,.61.09.78.26.18.17.27.39.27.64v7.46Z"/>
        <path class="cls-1" d="M162.79,127.13c.1.26.09.46-.05.6-.13.15-.3.23-.49.26-.28.04-.51-.03-.68-.19-.17-.17-.32-.37-.43-.6-.11-.24-.2-.48-.26-.73-.06-.25-.11-.44-.16-.58h-3.77l-.57,1.57c-.09.23-.24.39-.44.47-.2.08-.4.11-.58.07-.18-.04-.33-.13-.44-.28-.11-.15-.12-.33-.03-.56l2.98-7.69c.09-.22.22-.38.4-.5.18-.11.36-.17.55-.17s.38.05.55.16c.18.11.31.28.4.51l3,7.67ZM158.83,120.82l-1.4,3.81h2.79l-1.4-3.81Z"/>
        <path class="cls-1" d="M165.14,127.19c0,.27-.08.47-.24.61-.16.14-.34.21-.54.21s-.38-.07-.54-.21c-.16-.14-.24-.34-.24-.61v-7.55c0-.27.08-.47.24-.61.16-.14.34-.21.54-.21s.38.07.54.21c.16.14.24.34.24.61v7.55Z"/>
        <path class="cls-1" d="M177.42,124.3c0,.77-.12,1.39-.35,1.86-.24.48-.54.85-.9,1.12s-.76.45-1.2.55-.86.14-1.25.14-.83-.05-1.27-.14c-.44-.1-.84-.28-1.2-.55-.36-.27-.66-.64-.9-1.12-.24-.48-.35-1.1-.35-1.86v-4.67c0-.23.07-.42.21-.56.14-.15.33-.22.57-.22.25,0,.45.07.59.22.14.15.21.33.21.56v5.07c0,.61.19,1.09.58,1.42.39.34.91.51,1.56.51s1.17-.17,1.56-.51c.39-.34.58-.81.58-1.42v-5.07c0-.23.07-.42.21-.56.14-.15.33-.22.57-.22s.43.07.57.22c.14.15.21.33.21.56v4.67Z"/>
        <path class="cls-1" d="M186.12,127.25c0,.18-.06.33-.19.47-.13.13-.28.22-.46.26-.18.04-.37.03-.56-.04-.2-.06-.37-.2-.51-.42l-3.77-5.57-.33-.65.04.71v5.18c0,.28-.08.49-.24.63-.16.14-.33.21-.52.21s-.36-.07-.52-.21c-.16-.14-.24-.35-.24-.63v-7.63c0-.18.06-.33.19-.47.13-.13.28-.22.46-.26.18-.04.37-.02.56.05.2.07.37.21.53.41l3.75,5.58.33.65-.04-.67v-5.26c0-.27.08-.47.24-.61.16-.14.33-.21.52-.21s.36.07.52.21c.16.14.24.34.24.61v7.65Z"/>
        <path class="cls-1" d="M189.07,127.19c0,.27-.08.47-.24.61-.16.14-.34.21-.54.21s-.38-.07-.54-.21c-.16-.14-.24-.34-.24-.61v-7.55c0-.27.08-.47.24-.61.16-.14.34-.21.54-.21s.38.07.54.21c.16.14.24.34.24.61v7.55Z"/>
        <path class="cls-1" d="M197.2,119.5c0,.17-.03.33-.1.48l-2.73,7.29c-.06.18-.16.34-.28.49-.12.15-.32.22-.58.22s-.48-.07-.59-.22c-.11-.15-.2-.31-.27-.49l-2.75-7.29c-.05-.14-.08-.3-.08-.48s.06-.33.19-.46c.13-.13.3-.19.52-.19.29,0,.5.08.61.25.11.17.21.36.29.57l2.08,5.68s.06-.15.13-.37c.08-.22.17-.5.29-.84.11-.34.24-.72.38-1.14.14-.42.29-.85.45-1.28.16-.43.32-.85.48-1.25.16-.4.31-.76.45-1.06.06-.18.16-.32.28-.41.12-.1.29-.14.51-.14s.39.06.53.19c.13.13.2.28.2.46Z"/>
        <path class="cls-1" d="M198.92,127.92c-.29,0-.52-.09-.68-.28-.16-.18-.24-.39-.24-.6v-7.25c0-.22.08-.41.24-.59.16-.18.39-.27.68-.27h3.37c.27,0,.47.07.6.22.13.15.2.31.2.48s-.07.33-.2.47c-.13.14-.33.21-.6.21h-2.75v2.43h2.51c.27,0,.47.07.61.22.14.15.21.31.21.48s-.07.33-.21.47-.34.21-.61.21h-2.51v2.41h2.75c.27,0,.47.07.6.22.13.15.2.31.2.48s-.07.33-.2.48c-.13.15-.33.22-.6.22h-3.37Z"/>
        <path class="cls-1" d="M209.94,121.61c0,.31-.05.61-.16.91-.11.3-.27.57-.49.81-.22.24-.49.45-.81.62-.33.17-.7.28-1.12.33l2.24,2.45c.2.22.29.42.27.62-.03.2-.11.35-.26.47-.15.11-.33.17-.55.16-.22,0-.42-.11-.61-.32l-3.06-3.33v2.85c0,.27-.08.47-.24.61-.16.14-.34.21-.54.21s-.38-.07-.54-.21c-.16-.14-.24-.34-.24-.61v-7.4c0-.24.07-.45.22-.62.15-.17.38-.26.7-.26h2.08c.51,0,.96.08,1.35.23.39.15.71.36.97.61.25.26.45.54.58.86.13.32.2.65.2.99ZM208.42,121.61c0-.33-.12-.64-.36-.92-.24-.28-.64-.42-1.2-.42h-1.47v2.7h1.53c.48,0,.85-.14,1.11-.42.25-.28.39-.59.4-.94Z"/>
        <path class="cls-1" d="M216.21,125.28c0,.37-.07.72-.21,1.05-.14.33-.34.62-.61.87-.27.25-.6.44-.98.58-.39.14-.83.21-1.33.21-.66,0-1.19-.08-1.59-.24-.4-.16-.71-.34-.94-.54-.19-.15-.3-.33-.32-.54-.02-.2.02-.38.12-.53.1-.15.25-.24.46-.28.2-.04.44.04.71.23.17.13.36.25.58.35.22.11.54.16.95.16.27,0,.5-.04.7-.12.2-.08.36-.19.48-.32.12-.13.21-.27.28-.42.06-.15.1-.3.1-.44,0-.32-.11-.58-.32-.77-.21-.2-.48-.37-.79-.51-.32-.14-.67-.27-1.04-.4-.38-.13-.72-.29-1.04-.48-.32-.19-.58-.44-.79-.74-.21-.3-.32-.69-.32-1.16,0-.4.08-.75.23-1.05.15-.31.36-.56.63-.76.27-.2.57-.35.92-.45.34-.1.71-.15,1.09-.15.62,0,1.11.08,1.46.24.35.16.64.33.87.53.19.15.3.33.32.55.02.21-.03.39-.13.53-.11.14-.26.23-.47.27-.2.04-.43-.04-.69-.23-.23-.18-.43-.31-.6-.39-.17-.08-.42-.12-.76-.12-.41,0-.72.1-.93.3-.21.2-.32.43-.32.7,0,.15.04.29.12.4.08.11.18.22.31.31.12.09.25.16.39.22.14.06.27.11.4.16.36.15.72.3,1.09.45.37.15.7.33.98.55.29.22.52.48.71.79.18.31.28.71.28,1.2Z"/>
        <path class="cls-1" d="M218.71,127.19c0,.27-.08.47-.24.61-.16.14-.34.21-.54.21s-.38-.07-.54-.21c-.16-.14-.24-.34-.24-.61v-7.55c0-.27.08-.47.24-.61.16-.14.34-.21.54-.21s.38.07.54.21c.16.14.24.34.24.61v7.55Z"/>
        <path class="cls-1" d="M223.4,120.32v6.85c0,.27-.08.47-.24.61-.16.14-.34.21-.54.21s-.38-.07-.54-.21c-.16-.14-.24-.34-.24-.61v-6.85h-1.63c-.27,0-.47-.07-.6-.22-.13-.15-.2-.31-.2-.49s.07-.34.2-.49c.13-.15.33-.22.6-.22h4.8c.27,0,.47.07.6.22.13.15.2.31.2.49s-.07.34-.2.49c-.13.15-.33.22-.6.22h-1.63Z"/>
        <path class="cls-1" d="M232.66,119.5c0,.15-.07.34-.21.55l-2.39,3.69v3.44c0,.23-.07.42-.21.56-.14.15-.33.22-.57.22s-.43-.07-.57-.22c-.14-.15-.21-.33-.21-.56v-3.44l-2.37-3.69c-.14-.22-.21-.4-.21-.55,0-.22.08-.38.23-.49.15-.11.32-.16.5-.16.32,0,.57.15.75.44l1.89,2.93,1.89-2.93c.1-.17.22-.28.34-.34.13-.06.26-.1.4-.1.19,0,.36.05.52.16.15.11.23.27.23.49Z"/>
        <rect class="cls-1" x="240.74" y="122.72" width="89.13" height="1.9"/>
        <rect class="cls-1" x=".82" y="122.72" width="89.13" height="1.9"/>
      </g>
      <path class="cls-4" d="M77.86,97.37l-13.7-29.97c-1.67,15.95-11.32,28.44-23.31,29.84l-.06.13h37.08Z"/>
      <path class="cls-3" d="M64.16,67.4l-4.92-10.77-18.39,40.6c11.99-1.4,21.64-13.88,23.31-29.84Z"/>
      <path class="cls-2" d="M64.16,67.4l-4.92-10.77-18.39,40.6c11.99-1.4,21.64-13.88,23.31-29.84Z"/>
      <path class="cls-1" d="M12.27,97.17L58.78,1.23c.4-.1.29.08.4.22.48.61.96,1.78,1.32,2.51,8.33,16.76,16.54,33.64,24.65,50.51,2.73,5.68,4.45,10.79,8.42,15.87,11.55,14.76,33.3,17.56,48.41,6.46,6.09-4.48,8.25-10.25,11.53-16.79,8.63-17.23,16.75-34.73,25.23-52.03,1-2.05,2.03-4.35,3.12-6.32.11-.2.13-.47.44-.43l46.6,95.95h-14.51l-31.12-63.61c-.41-.09-.28.06-.39.22-1.18,1.82-2.42,4.83-3.43,6.88-4.7,9.54-9.07,19.61-14.03,28.97-4.08,7.69-11.38,15.97-18.88,20.45-23.95,14.34-54.29,6.47-67.68-17.96-6.74-12.3-12.15-25.69-18.67-38.14l-.44-.43-31.12,63.62H12.27Z"/>
      <path class="cls-1" d="M321.73,97.17h-29.29c-.15,0-.98-.44-1.14-.61l-19.22-37.42c-.06-.48,0-.86.46-1.1,6.46-1.92,12.84-6.16,14-13.27,1.21-7.43-3.59-15.88-10.92-18-6.58-.53-13.94.57-20.42-.04-.45-.04-.84-.08-1.22-.35-.44-.32-2.14-3.81-2.56-4.61-3.5-6.67-6.88-13.42-10.28-20.14l.09-.6c11.11.26,22.28-.34,33.39,0,19.5.58,37.85,8.33,42.86,28.81,2.86,11.67.86,22.63-5.47,32.7-1.15,1.84-2.85,3.64-3.89,5.37-.94,1.57-.3,2.12.41,3.56,4.1,8.39,8.94,16.47,13.07,24.86l.14.82Z"/>
      <path class="cls-5" d="M276.8,97.17h-31.91c-.25,0-1.2-.97-1.35-1.28l-31.61-59.98.26-.26c4.63-.12,9.22.45,13.73-.79,5.71-1.56,10.91-5.92,13.12-11.45.36.21.58.69.79,1.05,3.14,5.46,6.07,11.6,8.98,17.24,8.96,17.38,18,34.8,26.69,52.31.49,1,1.08,2.08,1.31,3.15Z"/>
      <path class="cls-1" d="M151.09,26.04c-.5.35-1.44-1.18-1.74-1.48-8.46-8.77-19.41-13.22-31.74-11.97-16.28,1.65-30.29,14.74-32.78,30.93l-.39-.23-7.65-14.9C88.73,2.55,120.97-7.7,145.97,6.26c4.06,2.27,8.2,5.33,11.22,8.82l-6.1,10.95Z"/>
      <path class="cls-5" d="M219.42.4c10.58-.63,18.41,10.15,14.46,20.04-4.33,10.86-19.43,12.42-25.82,2.58-6.1-9.38.25-21.95,11.37-22.62Z"/>
    </g>
  </g>
</svg>