<?xml version="1.0" encoding="UTF-8"?>
<svg id="Layer_2" data-name="Layer 2" xmlns="http://www.w3.org/2000/svg" viewBox="0 0 297.13 125.24">
  <defs>
    <style>
      .cls-1 {
        fill: #f9ab1d;
      }

      .cls-2 {
        fill: #6869ab;
      }
    </style>
  </defs>
  <g id="Layer_1-2" data-name="Layer 1">
    <g id="c">
      <path class="cls-2" d="M88,77.06h0c0-6.08-4.93-11.01-11.01-11.01h-32.99c-12.13,0-21.98-9.82-21.98-21.96h0c0-12.15,9.84-21.98,21.98-21.98h32.99c6.08,0,11.01-4.92,11.01-10.99S83.07.11,76.99.11h-32.99C19.7.11,0,19.8,0,44.09s19.7,43.98,43.99,43.98h32.99c6.08,0,11.01-4.93,11.01-11.01"/>
      <path class="cls-2" d="M173.91,20.14c-3.21-4.56-9.24-5.96-14.08-3.5l-11.14,7.82L116.45,1.99h0C114.63.72,112.4-.02,109.99,0c-6.1.06-10.93,5.19-10.93,11.27v65.68c0,6.08,4.95,11.01,11.06,11.01s11.06-4.93,11.06-11.01v-44.79l21.17,14.76c1.91,1.34,4.14,1.99,6.36,1.99s4.44-.67,6.36-1.99l20.86-14.61v-5.82c0-2.19-.64-4.4-1.99-6.33h-.02Z"/>
      <path class="cls-1" d="M187.11,0c-.98,0-1.92.11-2.82.33-1.05.26-2.04.67-2.95,1.2l-21.51,15.1c4.84-2.45,10.87-1.05,14.08,3.5,1.36,1.93,1.99,4.14,1.99,6.33v50.66c0,6.09,4.95,11.03,11.07,11.03s11.07-4.94,11.07-11.03V11.29c.01-6.09-4.83-11.23-10.93-11.29Z"/>
      <path class="cls-2" d="M286.12,0h0c-6.09,0-11.03,4.93-11.03,11.02v33.02c0,12.15-9.84,22-21.99,22h0c-12.15,0-22-9.84-22-22V11.02C231.11,4.93,226.17,0,220.08,0s-11.02,4.93-11.02,11.02v33.02c0,24.32,19.72,44.03,44.04,44.03s44.04-19.71,44.04-44.03V11.02C297.13,4.93,292.19,0,286.12,0"/>
      <path class="cls-2" d="M0,117.07C0,112.3,3.65,108.9,8.55,108.9c2.72,0,5,.99,6.49,2.8l-2.34,2.17c-1.06-1.23-2.39-1.86-3.96-1.86-2.95,0-5.04,2.08-5.04,5.05s2.09,5.06,5.04,5.06c1.57,0,2.91-.63,3.96-1.87l2.34,2.17c-1.49,1.83-3.76,2.82-6.51,2.82-4.89,0-8.53-3.4-8.53-8.17"/>
      <polygon class="cls-2" points="32.04 109.17 32.04 125.02 28.36 125.02 28.36 118.52 21.13 118.52 21.13 125.02 17.46 125.02 17.46 109.17 21.13 109.17 21.13 115.42 28.36 115.42 28.36 109.17 32.04 109.17"/>
      <rect class="cls-2" x="35.67" y="109.23" width="3.73" height="15.69"/>
      <path class="cls-2" d="M53.48,121.55h-7.32l-1.4,3.36h-3.74l7.02-15.69h3.6l7.04,15.69h-3.83l-1.4-3.36h.01ZM52.35,118.79l-2.5-6-2.5,6h5Z"/>
      <polygon class="cls-2" points="74.84 109.17 74.84 124.91 71.83 124.91 63.96 115.35 63.96 124.91 60.36 124.91 60.36 109.17 63.38 109.17 71.23 118.73 71.23 109.17 74.84 109.17"/>
      <path class="cls-2" d="M89.19,116.82h3.36v6.41c-1.75,1.31-4.15,2.01-6.41,2.01-4.99,0-8.65-3.4-8.65-8.17s3.66-8.17,8.73-8.17c2.79,0,5.1.95,6.64,2.74l-2.35,2.17c-1.15-1.23-2.49-1.78-4.1-1.78-3.08,0-5.19,2.06-5.19,5.05s2.1,5.05,5.14,5.05c1,0,1.93-.19,2.86-.68v-4.63h-.01Z"/>
      <polygon class="cls-2" points="116.61 125.02 116.59 115.51 111.95 123.35 110.3 123.35 105.68 115.72 105.68 125.02 102.25 125.02 102.25 109.17 105.27 109.17 111.18 119.03 117 109.17 119.99 109.17 120.04 125.02 116.61 125.02"/>
      <path class="cls-2" d="M134.13,121.55h-7.32l-1.4,3.36h-3.74l7.02-15.69h3.6l7.04,15.69h-3.83l-1.4-3.36h.01ZM132.99,118.79l-2.5-6-2.5,6s5,0,5,0Z"/>
      <rect class="cls-2" x="141" y="109.23" width="3.73" height="15.69"/>
      <path class="cls-2" d="M154.61,118.05v-8.81h3.68v8.68c0,3,1.31,4.22,3.54,4.22s3.54-1.24,3.54-4.22v-8.68h3.63v8.81c0,4.63-2.67,7.19-7.19,7.19s-7.18-2.56-7.18-7.19"/>
      <polygon class="cls-2" points="186.97 109.23 186.97 124.91 183.98 124.91 176.1 115.39 176.1 124.91 172.49 124.91 172.49 109.23 175.51 109.23 183.37 118.76 183.37 109.23 186.97 109.23"/>
      <rect class="cls-2" x="190.7" y="109.17" width="3.74" height="15.7"/>
      <polygon class="cls-2" points="213.19 109.23 206.33 124.91 202.71 124.91 195.86 109.23 199.82 109.23 204.65 120.43 209.54 109.23 213.19 109.23"/>
      <polygon class="cls-2" points="226.69 122 226.69 124.91 214.48 124.91 214.48 109.23 226.4 109.23 226.4 112.14 218.11 112.14 218.11 115.55 225.43 115.55 225.43 118.37 218.11 118.37 218.11 122 226.69 122"/>
      <path class="cls-2" d="M239.65,124.91l-3.06-4.37h-3.37v4.37h-3.66v-15.69h6.85c4.23,0,6.87,2.17,6.87,5.7,0,2.35-1.2,4.07-3.26,4.95l3.55,5.04h-3.94.01ZM236.22,112.18h-2.98v5.47h2.98c2.24,0,3.37-1.03,3.37-2.74s-1.13-2.74-3.37-2.74"/>
      <path class="cls-2" d="M244.85,123.41l1.24-2.75c1.32.97,3.31,1.65,5.2,1.65,2.17,0,3.03-.72,3.03-1.7,0-2.96-9.16-.93-9.16-6.8,0-2.69,2.17-4.92,6.65-4.92,1.98,0,4.01.47,5.47,1.4l-1.13,2.77c-1.46-.83-2.97-1.24-4.37-1.24-2.15,0-3,.82-3,1.81,0,2.91,9.16.9,9.16,6.7,0,2.64-2.18,4.9-6.69,4.9-2.5,0-5.03-.74-6.41-1.83"/>
      <rect class="cls-2" x="260.49" y="109.12" width="3.73" height="15.8"/>
      <polygon class="cls-2" points="271.18 112.18 266.12 112.18 266.12 109.23 279.91 109.23 279.91 112.18 274.84 112.18 274.84 124.91 271.18 124.91 271.18 112.18"/>
      <polygon class="cls-2" points="290.96 119.36 290.96 124.91 287.27 124.91 287.27 119.31 281.11 109.23 285.03 109.23 289.27 116.19 293.52 109.23 297.13 109.23 290.96 119.36"/>
    </g>
  </g>
</svg>