<?xml version="1.0" encoding="UTF-8"?>
<svg id="Layer_2" data-name="Layer 2" xmlns="http://www.w3.org/2000/svg" xmlns:xlink="http://www.w3.org/1999/xlink" viewBox="0 0 316.89 115.48">
  <defs>
    <style>
      .cls-1 {
        fill: url(#linear-gradient-4);
      }

      .cls-2 {
        fill: url(#linear-gradient-3);
      }

      .cls-3 {
        fill: url(#linear-gradient-2);
      }

      .cls-4 {
        fill: url(#linear-gradient);
      }

      .cls-5 {
        fill: #fff;
      }

      .cls-6 {
        fill: #415631;
      }

      .cls-7 {
        fill: #475433;
      }
    </style>
    <linearGradient id="linear-gradient" x1="15.58" y1="40.39" x2="60.29" y2="66.2" gradientUnits="userSpaceOnUse">
      <stop offset=".54" stop-color="#6c542c"/>
      <stop offset=".58" stop-color="#72572f"/>
      <stop offset=".85" stop-color="#946940"/>
      <stop offset="1" stop-color="#a27147"/>
    </linearGradient>
    <linearGradient id="linear-gradient-2" x1="9.66" y1="47.65" x2="29.02" y2="-5.54" gradientUnits="userSpaceOnUse">
      <stop offset=".07" stop-color="#265666"/>
      <stop offset=".12" stop-color="#297780"/>
      <stop offset=".17" stop-color="#2d9a9b"/>
      <stop offset=".21" stop-color="#2fafab"/>
      <stop offset=".24" stop-color="#30b7b2"/>
      <stop offset=".45" stop-color="#a9dbd3"/>
      <stop offset=".76" stop-color="#54c2bd"/>
      <stop offset=".97" stop-color="#295764"/>
    </linearGradient>
    <linearGradient id="linear-gradient-3" x1="50.14" y1="37.02" x2="73.88" y2="17.11" gradientUnits="userSpaceOnUse">
      <stop offset=".54" stop-color="#8ec454"/>
      <stop offset=".68" stop-color="#7aa949"/>
      <stop offset=".89" stop-color="#5f873c"/>
      <stop offset="1" stop-color="#567a37"/>
    </linearGradient>
    <linearGradient id="linear-gradient-4" x1="37.78" y1="33.79" x2="74.22" y2="33.79" xlink:href="#linear-gradient-3"/>
  </defs>
  <g id="Layer_1-2" data-name="Layer 1">
    <g>
      <rect class="cls-6" x="7.93" y="78.72" width="307.32" height="19.84"/>
      <path class="cls-6" d="M253.22,58.99c.9,1.47,1.22,2.77-.04,4.28-.44.53-1.27,1.22-2.13,1.22l-5.01.02c-.92,0-1.84-.62-2.28-1.41-3.22-5.76-6.23-11.5-8.5-17.69l-1.29-3.52h-17.33c-.37,0-.91.55-.91.93v19.25c-.51.79-1.56,2.01-2.51,2.1-1.58.15-3.23.13-4.71.03-.95-.07-2.68-1.3-2.68-2.44V6.56c0-1.16,1.86-2.47,2.88-2.47l22.37-.02,1.46.24c3.59.6,13.06-.77,17.82,6.81,1.74,2.77,2.4,5.92,2.61,9.2.23,3.66.14,9.05-1.13,12.4-2.95,7.75-8.15,6.54-7.34,8.55l1.11,2.78c2.09,5.23,4.68,10.16,7.61,14.95ZM241.44,30.54c2.14-1.55,1.71-7.8,1.52-10.34-.13-1.81-.51-3.99-2.49-4.76-1.76-.68-3.88-1.08-5.87-1.09l-17.94-.12c-.39,0-.92.54-.92.92l.03,15.9c0,.53,1.15.97,1.6.97l12.31-.08,3.6-.19c2.33-.12,6.53-.01,8.17-1.2Z"/>
      <path class="cls-6" d="M100.73,39.01c-1.17.05-2.04.18-2.99.46l.05,14.6,13.25.17c3.02.04,5.96.17,8.96.02,1.96-.18,3.91-.19,5.89-.09l4.58.25c1.48.08,2.47,1.92,2.46,3.26l-.03,3.26c-.01,1.41-1.25,3.31-2.95,3.31h-39.65c-1.29-.01-2.73-1.68-2.73-2.94V6.58c.29-1.29,1.92-2.51,3.18-2.51h38.94c1.64,0,2.97,1.47,3.14,2.95.15,1.33.16,2.7,0,3.98-.25,2.02-1.88,3.2-3.92,3.21l-31.13.04-.03,13.93c0,.44.48.86.93.91l28.14.03c1.4,0,2.83,1.64,2.9,2.84.09,1.53.14,2.94-.04,4.34-.26,2.02-2.44,3.15-4.25,2.99l-2.72-.23-21.99-.04Z"/>
      <path class="cls-6" d="M172.61,64.5c-8.01.66-16.94-1.25-24.23-4.42-.88-.38-1.9-1.01-2.58-1.53-1.01-.79-.32-2.27.07-3.11l1.77-3.83c.29-.63.52-1.27,1.07-1.55s1.43-.29,2.12.03c4.81,2.21,9.72,3.68,15.06,4.18,5.25.49,15.32.31,15.88-6.85.51-6.45-6.81-7.4-11.92-8.33-3.33-.6-6.52-1.2-9.8-1.99-3.88-.94-7.44-2.62-10.27-5.41-3.23-3.17-4.71-8.55-3.99-12.96.67-4.08,2.35-7.79,5.56-10.37,6.54-5.28,15.14-5.8,23.16-5.18,1.22.09,2.52.37,3.74.57,3.99.63,7.67,1.6,11.37,3.35.4.75.89,1.89,1.14,2.71l-2.48,5.61c-.38.85-1.6,1.25-2.54.84-3.28-1.43-6.63-2.35-10.23-2.78-5.4-.64-11.47-1.02-16.38,1.72-3.09,1.72-4.41,5.65-2.51,8.75,1.66,2.71,8.06,4,11.04,4.56,3.73.69,7.36,1.23,10.96,2.26,8.39,2.41,13.81,8.09,13.18,17.16-.23,3.27-1.18,6.32-3.18,8.94-2.14,2.81-4.8,4.93-8.24,6.02-2.49.79-5.09,1.38-7.74,1.6Z"/>
      <path class="cls-6" d="M313.77,52.98l1.35,3.82c.36,1.02-.12,3.29-1.25,3.74-6.6,2.66-14.77,4.34-21.8,4.32-4.16-.01-8.13-.71-12.08-2-3.84-1.25-6.91-3.4-9.63-6.33s-3.89-6.37-4.29-10.14c-.35-1.04-.31-2.17-.36-3.32l-.18-4.32-.17-2.44c-.16-2.37-.16-4.77,0-7.15l.18-2.67.17-3.37c.09-1.83,1-6.12,1.83-7.85,5.02-10.53,17.65-13.37,28.33-12.39,4.88-.08,13.32,2.08,17.75,3.94,1.89.79,1.9,3.27,1.2,4.77-.55,1.17-.72,2.29-1.43,3.34-.54.8-2.25,1.53-3.25,1.2-4.65-1.53-9.14-2.89-14.05-3.22-5.49-.37-10.77-.23-15.53,2.57-3.02,1.77-4.24,4.69-4.65,8.15l-.41,3.37v12.15c.97,4.87-.58,8.28,3.54,11.7,2.59,2.15,5.95,3.39,9.46,3.66,9.05.69,14.47-.89,22.86-3.62,1.22-.4,2.09,1.2,2.41,2.1Z"/>
      <g>
        <path class="cls-4" d="M59.88,43.11c-.1-.08-1.85-1.32-1.97-1.38-13.32-5.77-22.21,9.51-32.61,12.98-6.69,2.24-10.95,1.4-17.38-1.08,10.44,13.51,27.19,25.09,44.7,17.17,10.72-4.85,18.36-18.93,7.25-27.7Z"/>
        <path class="cls-3" d="M17.92,48.17c.13-.03,2.29-.57,2.41-.63,13.5-6.64,7.39-23.92,11.62-34.46,2.72-6.78,6.24-9.59,12.51-13C26.78-.74,6.4,4.71.91,23.86c-3.36,11.72,2.64,27.2,17.01,24.31Z"/>
        <path class="cls-2" d="M79.82,29.87c-1.14-13.91-6.07-27.61-22.35-28.3-.4-.02-.81,0-1.21,0l-.3.59-.3-.59c-7.17.4-10.08,2-14.52,7.5l-6.01,2.42c.78.98,1.77.95,2.81.73-.1-.25-.15-.39-.15-.39,0,0,44.52-9.04,35.14,42.35-.18.79-.36,1.52-.56,2.19.06,0,.13,0,.2,0,.4-2.31,2.7-4.59,3.74-6.81,3.14-6.7,4.11-12.42,3.52-19.68Z"/>
        <path class="cls-1" d="M37.78,11.83s.05.13.15.39c1.06-.23,2.19-.66,3.22-.42-1.55,14.63,13.8,20.05,24.17,25.89.34,1.02,3.55,4.35,4.52,6.63,1.49,3.5,1.8,6.5,2.12,10.23.05.63-.36,1.77.4,1.81.2-.67.39-1.39.56-2.19C82.3,2.8,37.78,11.83,37.78,11.83Z"/>
      </g>
      <g>
        <path class="cls-5" d="M12.46,82.83h7.77v1.45h-6.09v3.57h5.15v1.46h-5.15v3.57h6.09v1.46h-7.77v-11.52Z"/>
        <path class="cls-5" d="M22.18,85.94h1.25l.13.64c.51-.39,1.81-.77,2.86-.77,2.3,0,3.32,1.02,3.32,3.24v5.3h-1.63v-5.15c0-1.5-.58-2.12-2.11-2.12-.74,0-1.6.2-2.19.54v6.73h-1.64v-8.41Z"/>
        <path class="cls-5" d="M31.05,85.94h1.73l2.37,7.12h.05l2.39-7.12h1.73l-3.06,8.41h-2.14l-3.06-8.41Z"/>
        <path class="cls-5" d="M40.88,82.57h1.65v2.01h-1.65v-2.01ZM40.88,85.94h1.63v8.41h-1.63v-8.41Z"/>
        <path class="cls-5" d="M44.95,86.31c.61-.33,2.22-.44,3.5-.44.49,0,.94.02,1.27.05v1.3c-.31-.05-.82-.07-1.35-.07-.66,0-1.37.03-1.78.11v7.09h-1.64v-8.04Z"/>
        <path class="cls-5" d="M50.36,89.53c0-2.34,1.3-3.72,3.98-3.72s3.98,1.38,3.98,3.72v1.22c0,2.35-1.3,3.73-3.98,3.73s-3.98-1.38-3.98-3.73v-1.22ZM56.69,90.71v-1.13c0-1.63-.77-2.5-2.35-2.5s-2.35.87-2.35,2.5v1.13c0,1.63.77,2.5,2.35,2.5s2.35-.87,2.35-2.5Z"/>
        <path class="cls-5" d="M60.18,85.94h1.25l.13.64c.51-.39,1.81-.77,2.86-.77,2.3,0,3.32,1.02,3.32,3.24v5.3h-1.63v-5.15c0-1.5-.58-2.12-2.11-2.12-.74,0-1.6.2-2.19.54v6.73h-1.64v-8.41Z"/>
        <path class="cls-5" d="M69.88,85.94h1.25l.13.64c.51-.39,1.58-.77,2.58-.77,1.07,0,1.81.31,2.25.82.53-.38,1.58-.82,2.81-.82,2.14,0,2.99,1.12,2.99,2.94v5.59h-1.64v-5.45c0-1.1-.36-1.83-1.73-1.83-.84,0-1.48.25-1.97.54.15.28.2.66.2,1.09v5.64h-1.63v-5.45c0-1.1-.31-1.83-1.68-1.83-.66,0-1.33.2-1.93.54v6.73h-1.64v-8.41Z"/>
        <path class="cls-5" d="M90.67,93.94c-.89.39-1.96.54-2.91.54-2.8,0-4.08-1.45-4.08-3.7v-1.05c0-2.2.94-3.92,3.68-3.92s3.67,1.71,3.67,3.92v1.12h-5.73v.12c0,1.45.69,2.27,2.53,2.27.97,0,1.97-.18,2.83-.46v1.17ZM89.52,89.63v-.08c0-1.46-.48-2.45-2.11-2.45s-2.11.99-2.11,2.45v.08h4.21Z"/>
        <path class="cls-5" d="M92.92,85.94h1.25l.13.64c.51-.39,1.81-.77,2.86-.77,2.3,0,3.32,1.02,3.32,3.24v5.3h-1.63v-5.15c0-1.5-.58-2.12-2.11-2.12-.74,0-1.6.2-2.19.54v6.73h-1.64v-8.41Z"/>
        <path class="cls-5" d="M102,85.94h1.41v-2.27h1.6v2.27h1.84v1.27h-1.84v4.38c0,1.33.53,1.71,2.24,1.56v1.17c-.43.07-.81.1-1.17.1-1.89,0-2.71-.91-2.71-2.78v-4.43h-1.37v-1.27Z"/>
        <path class="cls-5" d="M114.41,93.69c-.51.39-1.51.79-2.65.79-1.89,0-3.24-.58-3.24-2.47v-.28c0-1.76,1.23-2.4,3.29-2.4,1.4,0,2.34.2,2.34.2v-.46c0-1.46-.35-2.01-2.14-2.01-1.09,0-2.07.18-2.94.44v-1.17c.9-.38,1.96-.53,3.04-.53,2.75,0,3.69,1,3.69,3.16v5.38h-1.23l-.15-.66ZM114.14,90.68s-1.1-.18-2.01-.18c-1.23,0-2.07.15-2.07,1.2v.26c0,1.14.87,1.23,2.01,1.23.71,0,1.48-.2,2.07-.53v-1.99Z"/>
        <path class="cls-5" d="M118.34,82.83h1.64v11.52h-1.64v-11.52Z"/>
        <path class="cls-5" d="M127.58,92.54c1.09.28,2.53.54,3.6.54,1.23,0,2.83-.21,2.83-1.71,0-1.04-.84-1.45-1.6-1.79l-2.47-1.05c-1.61-.69-2.35-1.48-2.35-2.96,0-1.79,1.3-2.86,4.46-2.86.9,0,2.25.1,3.19.46v1.33c-.94-.23-2.16-.41-3.13-.41-1.92,0-2.81.48-2.81,1.53,0,.97.71,1.3,1.41,1.6l2.53,1.07c1.71.71,2.52,1.55,2.52,3.14,0,1.96-1.41,3.06-4.47,3.06-.99,0-2.53-.16-3.72-.59v-1.35Z"/>
        <path class="cls-5" d="M144.18,93.94c-.9.39-1.91.54-2.9.54-2.6,0-3.88-1.33-3.88-3.64v-1.4c0-2.3,1.28-3.64,3.88-3.64.99,0,1.99.15,2.9.54v1.17c-.79-.26-1.69-.43-2.63-.43-1.79,0-2.52.92-2.52,2.5v1.1c0,1.56.72,2.48,2.52,2.48.94,0,1.84-.15,2.63-.43v1.18Z"/>
        <path class="cls-5" d="M146.13,82.57h1.65v2.01h-1.65v-2.01ZM146.13,85.94h1.63v8.41h-1.63v-8.41Z"/>
        <path class="cls-5" d="M156.83,93.94c-.89.39-1.96.54-2.91.54-2.8,0-4.08-1.45-4.08-3.7v-1.05c0-2.2.94-3.92,3.68-3.92s3.67,1.71,3.67,3.92v1.12h-5.73v.12c0,1.45.69,2.27,2.53,2.27.97,0,1.97-.18,2.83-.46v1.17ZM155.67,89.63v-.08c0-1.46-.48-2.45-2.11-2.45s-2.11.99-2.11,2.45v.08h4.21Z"/>
        <path class="cls-5" d="M159.08,85.94h1.25l.13.64c.51-.39,1.81-.77,2.86-.77,2.3,0,3.32,1.02,3.32,3.24v5.3h-1.63v-5.15c0-1.5-.58-2.12-2.11-2.12-.74,0-1.6.2-2.19.54v6.73h-1.64v-8.41Z"/>
        <path class="cls-5" d="M175.2,93.94c-.9.39-1.91.54-2.9.54-2.6,0-3.88-1.33-3.88-3.64v-1.4c0-2.3,1.28-3.64,3.88-3.64.99,0,1.99.15,2.9.54v1.17c-.79-.26-1.69-.43-2.63-.43-1.79,0-2.52.92-2.52,2.5v1.1c0,1.56.72,2.48,2.52,2.48.94,0,1.84-.15,2.63-.43v1.18Z"/>
        <path class="cls-5" d="M183.45,93.94c-.89.39-1.96.54-2.91.54-2.8,0-4.08-1.45-4.08-3.7v-1.05c0-2.2.94-3.92,3.68-3.92s3.67,1.71,3.67,3.92v1.12h-5.73v.12c0,1.45.69,2.27,2.53,2.27.97,0,1.97-.18,2.83-.46v1.17ZM182.3,89.63v-.08c0-1.46-.48-2.45-2.11-2.45s-2.11.99-2.11,2.45v.08h4.21Z"/>
        <path class="cls-5" d="M190.99,82.83h4.87c2.25,0,3.6,1,3.6,3.27,0,2.07-1.17,3.22-3.49,3.22.56.07,1.02.58,1.48,1.3l2.34,3.72h-1.86l-2.12-3.47c-.48-.79-.9-1.18-1.81-1.18h-1.33v4.66h-1.68v-11.52ZM195.53,88.25c1.5,0,2.32-.48,2.32-2.01s-.79-1.96-2.32-1.96h-2.86v3.96h2.86Z"/>
        <path class="cls-5" d="M207.62,93.94c-.89.39-1.96.54-2.91.54-2.8,0-4.08-1.45-4.08-3.7v-1.05c0-2.2.94-3.92,3.68-3.92s3.67,1.71,3.67,3.92v1.12h-5.73v.12c0,1.45.69,2.27,2.53,2.27.97,0,1.97-.18,2.83-.46v1.17ZM206.47,89.63v-.08c0-1.46-.48-2.45-2.11-2.45s-2.11.99-2.11,2.45v.08h4.21Z"/>
        <path class="cls-5" d="M209.51,92.75c.86.3,2.09.48,3.04.48,1.55,0,1.96-.36,1.96-1.07s-.54-.99-1.14-1.2l-1.97-.72c-1.32-.46-1.81-1.23-1.81-2.2,0-1.4.92-2.22,3.36-2.22.99,0,2.02.15,2.9.53v1.2c-.86-.28-1.96-.48-2.94-.48-1.28,0-1.74.26-1.74.97,0,.63.35.84.89,1.04l2.02.74c1.4.51,2.04,1.2,2.04,2.35,0,1.45-.84,2.32-3.47,2.32-.97,0-2.25-.16-3.13-.53v-1.2Z"/>
        <path class="cls-5" d="M224.61,93.94c-.89.39-1.96.54-2.91.54-2.8,0-4.08-1.45-4.08-3.7v-1.05c0-2.2.94-3.92,3.68-3.92s3.67,1.71,3.67,3.92v1.12h-5.73v.12c0,1.45.69,2.27,2.53,2.27.97,0,1.97-.18,2.83-.46v1.17ZM223.46,89.63v-.08c0-1.46-.48-2.45-2.11-2.45s-2.11.99-2.11,2.45v.08h4.21Z"/>
        <path class="cls-5" d="M232.32,93.69c-.51.39-1.51.79-2.65.79-1.89,0-3.24-.58-3.24-2.47v-.28c0-1.76,1.23-2.4,3.29-2.4,1.4,0,2.34.2,2.34.2v-.46c0-1.46-.35-2.01-2.14-2.01-1.09,0-2.07.18-2.94.44v-1.17c.9-.38,1.96-.53,3.04-.53,2.75,0,3.69,1,3.69,3.16v5.38h-1.23l-.15-.66ZM232.06,90.68s-1.1-.18-2.01-.18c-1.23,0-2.07.15-2.07,1.2v.26c0,1.14.87,1.23,2.01,1.23.71,0,1.48-.2,2.07-.53v-1.99Z"/>
        <path class="cls-5" d="M235.97,86.31c.61-.33,2.22-.44,3.5-.44.49,0,.94.02,1.27.05v1.3c-.31-.05-.82-.07-1.35-.07-.66,0-1.37.03-1.78.11v7.09h-1.64v-8.04Z"/>
        <path class="cls-5" d="M248.21,93.94c-.9.39-1.91.54-2.9.54-2.6,0-3.88-1.33-3.88-3.64v-1.4c0-2.3,1.28-3.64,3.88-3.64.99,0,1.99.15,2.9.54v1.17c-.79-.26-1.69-.43-2.63-.43-1.79,0-2.52.92-2.52,2.5v1.1c0,1.56.72,2.48,2.52,2.48.94,0,1.84-.15,2.63-.43v1.18Z"/>
        <path class="cls-5" d="M250,82.83h1.64v3.62c.56-.36,1.71-.64,2.6-.64,2.3,0,3.32,1.02,3.32,3.24v5.3h-1.63v-5.15c0-1.5-.58-2.12-2.11-2.12-.74,0-1.6.25-2.19.59v6.68h-1.64v-11.52Z"/>
        <path class="cls-5" d="M273.13,93.91c-.82.31-2.04.58-3.32.58-3.41,0-5.05-1.86-5.05-5v-1.79c0-3.16,1.65-4.98,5.05-4.98,1.28,0,2.5.25,3.32.56v1.4c-.89-.31-2.07-.54-3.21-.54-2.3,0-3.47,1.27-3.47,3.57v1.79c0,2.32,1.17,3.57,3.47,3.57,1.13,0,2.32-.23,3.21-.54v1.4Z"/>
        <path class="cls-5" d="M281.7,93.94c-.89.39-1.96.54-2.91.54-2.8,0-4.08-1.45-4.08-3.7v-1.05c0-2.2.94-3.92,3.68-3.92s3.67,1.71,3.67,3.92v1.12h-5.73v.12c0,1.45.69,2.27,2.53,2.27.97,0,1.97-.18,2.83-.46v1.17ZM280.55,89.63v-.08c0-1.46-.48-2.45-2.11-2.45s-2.11.99-2.11,2.45v.08h4.21Z"/>
        <path class="cls-5" d="M283.95,85.94h1.25l.13.64c.51-.39,1.81-.77,2.86-.77,2.3,0,3.32,1.02,3.32,3.24v5.3h-1.63v-5.15c0-1.5-.58-2.12-2.11-2.12-.74,0-1.6.2-2.19.54v6.73h-1.64v-8.41Z"/>
        <path class="cls-5" d="M293.03,85.94h1.41v-2.27h1.6v2.27h1.84v1.27h-1.84v4.38c0,1.33.53,1.71,2.24,1.56v1.17c-.43.07-.81.1-1.17.1-1.89,0-2.71-.91-2.71-2.78v-4.43h-1.37v-1.27Z"/>
        <path class="cls-5" d="M306.44,93.94c-.89.39-1.96.54-2.91.54-2.8,0-4.08-1.45-4.08-3.7v-1.05c0-2.2.94-3.92,3.68-3.92s3.67,1.71,3.67,3.92v1.12h-5.73v.12c0,1.45.69,2.27,2.53,2.27.97,0,1.97-.18,2.83-.46v1.17ZM305.28,89.63v-.08c0-1.46-.48-2.45-2.11-2.45s-2.11.99-2.11,2.45v.08h4.21Z"/>
        <path class="cls-5" d="M308.69,86.31c.61-.33,2.22-.44,3.5-.44.49,0,.94.02,1.27.05v1.3c-.31-.05-.82-.07-1.35-.07-.66,0-1.37.03-1.78.11v7.09h-1.64v-8.04Z"/>
      </g>
      <g>
        <g>
          <path class="cls-7" d="M38.68,103.96h6.06v1.13h-4.75v2.86h4.03v1.13h-4.03v3.86h-1.31v-8.98Z"/>
          <path class="cls-7" d="M49.91,112.43c-.4.31-1.18.62-2.07.62-1.48,0-2.53-.45-2.53-1.93v-.22c0-1.37.96-1.87,2.57-1.87,1.09,0,1.82.15,1.82.15v-.36c0-1.14-.27-1.57-1.67-1.57-.85,0-1.62.14-2.3.35v-.91c.71-.3,1.53-.41,2.37-.41,2.14,0,2.87.78,2.87,2.46v4.2h-.96l-.12-.51ZM49.7,110.09s-.86-.14-1.57-.14c-.96,0-1.62.12-1.62.94v.21c0,.89.68.96,1.57.96.55,0,1.16-.15,1.62-.41v-1.55Z"/>
          <path class="cls-7" d="M57.76,112.63c-.71.31-1.49.42-2.26.42-2.03,0-3.03-1.04-3.03-2.84v-1.09c0-1.8,1-2.84,3.03-2.84.77,0,1.55.12,2.26.42v.91c-.62-.21-1.32-.33-2.05-.33-1.4,0-1.96.72-1.96,1.95v.86c0,1.22.56,1.94,1.96,1.94.73,0,1.44-.12,2.05-.33v.92Z"/>
          <path class="cls-7" d="M63.69,106.39h1.27v6.56h-.96l-.12-.51c-.37.31-1.4.62-2.22.62-1.8,0-2.59-.81-2.59-2.54v-4.12h1.27v3.99c0,1.18.46,1.66,1.64,1.66.58,0,1.24-.15,1.71-.4v-5.25Z"/>
          <path class="cls-7" d="M66.95,103.96h1.28v8.98h-1.28v-8.98Z"/>
          <path class="cls-7" d="M69.73,106.39h1.1v-1.77h1.24v1.77h1.44v.99h-1.44v3.41c0,1.04.41,1.33,1.75,1.22v.91c-.33.05-.63.08-.91.08-1.48,0-2.12-.71-2.12-2.17v-3.45h-1.07v-.99Z"/>
          <path class="cls-7" d="M75.28,114.15c.67.21,1.5.35,2.34.35,1.41,0,1.99-.42,1.99-1.58v-.55c-.45.27-1.36.51-2.08.51-1.8,0-2.59-.81-2.59-2.54v-4h1.27v3.89c0,1.17.46,1.66,1.64,1.66.58,0,1.24-.15,1.71-.41v-5.13h1.27v6.57c0,1.68-.87,2.57-3.12,2.57-.85,0-1.73-.12-2.43-.41v-.91Z"/>
          <path class="cls-7" d="M86.38,109.19c0-1.82,1.01-2.9,3.11-2.9s3.11,1.08,3.11,2.9v.95c0,1.84-1.01,2.91-3.11,2.91s-3.11-1.08-3.11-2.91v-.95ZM91.32,110.11v-.89c0-1.27-.6-1.95-1.84-1.95s-1.84.68-1.84,1.95v.89c0,1.27.6,1.95,1.84,1.95s1.84-.68,1.84-1.95Z"/>
          <path class="cls-7" d="M94.64,107.38h-1.09v-.99h1.09v-.46c0-1.48.62-2.16,2.1-2.16.26,0,.55.03.86.06v.91c-1.3-.12-1.69.15-1.69,1.21v.44h1.39v.99h-1.39v5.57h-1.27v-5.57Z"/>
          <path class="cls-7" d="M102.53,111.54c.85.22,1.98.42,2.81.42.96,0,2.21-.17,2.21-1.33,0-.81-.65-1.13-1.24-1.4l-1.93-.82c-1.26-.54-1.84-1.16-1.84-2.31,0-1.4,1.01-2.23,3.48-2.23.71,0,1.76.08,2.49.36v1.04c-.73-.18-1.68-.32-2.44-.32-1.5,0-2.19.37-2.19,1.19,0,.76.55,1.01,1.1,1.24l1.98.83c1.33.55,1.96,1.21,1.96,2.45,0,1.53-1.1,2.39-3.49,2.39-.77,0-1.98-.13-2.9-.46v-1.05Z"/>
          <path class="cls-7" d="M115.48,112.63c-.71.31-1.49.42-2.26.42-2.03,0-3.03-1.04-3.03-2.84v-1.09c0-1.8,1-2.84,3.03-2.84.77,0,1.55.12,2.26.42v.91c-.62-.21-1.32-.33-2.05-.33-1.4,0-1.96.72-1.96,1.95v.86c0,1.22.56,1.94,1.96,1.94.73,0,1.44-.12,2.05-.33v.92Z"/>
          <path class="cls-7" d="M117.01,103.76h1.28v1.57h-1.28v-1.57ZM117.01,106.39h1.27v6.56h-1.27v-6.56Z"/>
          <path class="cls-7" d="M125.35,112.63c-.69.31-1.53.42-2.27.42-2.18,0-3.18-1.13-3.18-2.89v-.82c0-1.72.73-3.05,2.87-3.05s2.86,1.33,2.86,3.05v.87h-4.47v.09c0,1.13.54,1.77,1.98,1.77.76,0,1.54-.14,2.21-.36v.91ZM124.45,109.26v-.06c0-1.14-.37-1.91-1.64-1.91s-1.64.77-1.64,1.91v.06h3.29Z"/>
          <path class="cls-7" d="M127.11,106.39h.98l.1.5c.4-.31,1.41-.6,2.23-.6,1.8,0,2.59.8,2.59,2.53v4.13h-1.27v-4.02c0-1.17-.45-1.66-1.64-1.66-.58,0-1.24.15-1.71.42v5.25h-1.28v-6.56Z"/>
          <path class="cls-7" d="M139.68,112.63c-.71.31-1.49.42-2.26.42-2.03,0-3.03-1.04-3.03-2.84v-1.09c0-1.8,1-2.84,3.03-2.84.77,0,1.55.12,2.26.42v.91c-.62-.21-1.32-.33-2.05-.33-1.4,0-1.96.72-1.96,1.95v.86c0,1.22.56,1.94,1.96,1.94.73,0,1.44-.12,2.05-.33v.92Z"/>
          <path class="cls-7" d="M146.13,112.63c-.69.31-1.53.42-2.27.42-2.18,0-3.18-1.13-3.18-2.89v-.82c0-1.72.73-3.05,2.87-3.05s2.86,1.33,2.86,3.05v.87h-4.47v.09c0,1.13.54,1.77,1.98,1.77.76,0,1.54-.14,2.21-.36v.91ZM145.23,109.26v-.06c0-1.14-.37-1.91-1.64-1.91s-1.64.77-1.64,1.91v.06h3.29Z"/>
          <path class="cls-7" d="M147.97,111.52h1.28l-1.01,2.85h-1.07l.8-2.85Z"/>
          <path class="cls-7" d="M161.05,112.6c-.64.24-1.59.45-2.59.45-2.66,0-3.94-1.45-3.94-3.9v-1.4c0-2.46,1.28-3.89,3.94-3.89,1,0,1.95.19,2.59.44v1.09c-.69-.24-1.62-.42-2.5-.42-1.8,0-2.71.99-2.71,2.78v1.4c0,1.81.91,2.78,2.71,2.78.89,0,1.81-.18,2.5-.42v1.09Z"/>
          <path class="cls-7" d="M162.56,103.96h1.28v2.82c.44-.28,1.33-.5,2.03-.5,1.8,0,2.59.8,2.59,2.53v4.13h-1.27v-4.02c0-1.17-.45-1.66-1.64-1.66-.58,0-1.24.19-1.71.46v5.21h-1.28v-8.98Z"/>
          <path class="cls-7" d="M170.26,103.76h1.28v1.57h-1.28v-1.57ZM170.26,106.39h1.27v6.56h-1.27v-6.56Z"/>
          <path class="cls-7" d="M177.82,112.43c-.4.31-1.18.62-2.07.62-1.48,0-2.53-.45-2.53-1.93v-.22c0-1.37.96-1.87,2.57-1.87,1.09,0,1.82.15,1.82.15v-.36c0-1.14-.27-1.57-1.67-1.57-.85,0-1.62.14-2.3.35v-.91c.71-.3,1.53-.41,2.37-.41,2.14,0,2.87.78,2.87,2.46v4.2h-.96l-.12-.51ZM177.62,110.09s-.86-.14-1.57-.14c-.96,0-1.62.12-1.62.94v.21c0,.89.68.96,1.57.96.55,0,1.16-.15,1.62-.41v-1.55Z"/>
          <path class="cls-7" d="M180.67,106.39h.98l.1.5c.4-.31,1.41-.6,2.23-.6,1.8,0,2.59.8,2.59,2.53v4.13h-1.27v-4.02c0-1.17-.45-1.66-1.64-1.66-.58,0-1.24.15-1.71.42v5.25h-1.28v-6.56Z"/>
          <path class="cls-7" d="M188.38,114.15c.67.21,1.5.35,2.34.35,1.41,0,1.94-.42,1.94-1.58v-.51c-.44.27-1.33.47-1.96.47-1.86,0-2.72-1.01-2.72-2.76v-1.19c0-1.75.86-2.64,2.64-2.64.83,0,1.82.3,2.23.63l.12-.53h.96v6.52c0,1.68-.87,2.57-3.12,2.57-.85,0-1.73-.12-2.43-.41v-.91ZM192.66,107.75c-.46-.28-1.13-.46-1.71-.46-1.19,0-1.72.53-1.72,1.71v1.07c0,1.17.53,1.82,1.72,1.82.58,0,1.24-.15,1.71-.41v-3.72Z"/>
          <path class="cls-7" d="M200.45,103.96h1.94l2,6.6h.08l2-6.6h1.94l.8,8.98h-1.27l-.65-7.6h-.08l-2,6.57h-1.54l-2-6.57h-.08l-.64,7.6h-1.27l.78-8.98Z"/>
          <path class="cls-7" d="M215.2,112.43c-.4.31-1.18.62-2.07.62-1.48,0-2.53-.45-2.53-1.93v-.22c0-1.37.96-1.87,2.57-1.87,1.09,0,1.82.15,1.82.15v-.36c0-1.14-.27-1.57-1.67-1.57-.85,0-1.62.14-2.3.35v-.91c.71-.3,1.53-.41,2.37-.41,2.14,0,2.87.78,2.87,2.46v4.2h-.96l-.12-.51ZM215,110.09s-.86-.14-1.57-.14c-.96,0-1.62.12-1.62.94v.21c0,.89.68.96,1.57.96.55,0,1.16-.15,1.62-.41v-1.55Z"/>
          <path class="cls-7" d="M218.18,103.76h1.28v1.57h-1.28v-1.57ZM218.18,106.39h1.27v6.56h-1.27v-6.56Z"/>
          <path class="cls-7" d="M226.78,103.95v5.94c0,1.58.87,2.04,2.3,2.04s2.28-.46,2.28-2.04v-5.94h1.31v6.06c0,2.17-1.41,3.04-3.59,3.04s-3.61-.87-3.61-3.04v-6.06h1.31Z"/>
          <path class="cls-7" d="M234.45,106.39h.98l.1.5c.4-.31,1.41-.6,2.23-.6,1.8,0,2.59.8,2.59,2.53v4.13h-1.27v-4.02c0-1.17-.45-1.66-1.64-1.66-.58,0-1.24.15-1.71.42v5.25h-1.28v-6.56Z"/>
          <path class="cls-7" d="M242.15,103.76h1.28v1.57h-1.28v-1.57ZM242.15,106.39h1.27v6.56h-1.27v-6.56Z"/>
          <path class="cls-7" d="M244.67,106.39h1.35l1.85,5.56h.04l1.86-5.56h1.35l-2.39,6.56h-1.67l-2.39-6.56Z"/>
          <path class="cls-7" d="M257.38,112.63c-.69.31-1.53.42-2.27.42-2.18,0-3.18-1.13-3.18-2.89v-.82c0-1.72.73-3.05,2.87-3.05s2.86,1.33,2.86,3.05v.87h-4.47v.09c0,1.13.54,1.77,1.98,1.77.76,0,1.54-.14,2.21-.36v.91ZM256.49,109.26v-.06c0-1.14-.37-1.91-1.64-1.91s-1.64.77-1.64,1.91v.06h3.29Z"/>
          <path class="cls-7" d="M259.14,106.67c.47-.26,1.73-.35,2.73-.35.39,0,.73.01.99.04v1.01c-.24-.04-.64-.05-1.05-.05-.51,0-1.07.03-1.39.09v5.53h-1.28v-6.28Z"/>
          <path class="cls-7" d="M263.53,111.7c.67.23,1.63.37,2.37.37,1.21,0,1.53-.28,1.53-.83s-.42-.77-.89-.94l-1.54-.56c-1.03-.36-1.41-.96-1.41-1.72,0-1.09.72-1.73,2.62-1.73.77,0,1.58.12,2.26.41v.94c-.67-.22-1.53-.37-2.3-.37-1,0-1.36.21-1.36.76,0,.49.27.65.69.81l1.58.58c1.09.4,1.59.94,1.59,1.84,0,1.13-.65,1.81-2.71,1.81-.76,0-1.76-.13-2.44-.41v-.94Z"/>
          <path class="cls-7" d="M270.27,103.76h1.28v1.57h-1.28v-1.57ZM270.27,106.39h1.27v6.56h-1.27v-6.56Z"/>
          <path class="cls-7" d="M272.95,106.39h1.1v-1.77h1.24v1.77h1.44v.99h-1.44v3.41c0,1.04.41,1.33,1.75,1.22v.91c-.33.05-.63.08-.91.08-1.48,0-2.12-.71-2.12-2.17v-3.45h-1.07v-.99Z"/>
          <path class="cls-7" d="M278.49,114.15c.67.21,1.5.35,2.34.35,1.41,0,1.99-.42,1.99-1.58v-.55c-.45.27-1.36.51-2.08.51-1.8,0-2.59-.81-2.59-2.54v-4h1.27v3.89c0,1.17.46,1.66,1.64,1.66.58,0,1.24-.15,1.71-.41v-5.13h1.27v6.57c0,1.68-.87,2.57-3.12,2.57-.85,0-1.73-.12-2.43-.41v-.91Z"/>
        </g>
        <rect class="cls-7" x="284.04" y="110.25" width="32.85" height="1.15"/>
        <rect class="cls-7" x="7.93" y="110.25" width="31.78" height="1.15"/>
      </g>
    </g>
  </g>
</svg>