<?xml version="1.0" encoding="UTF-8"?>
<svg id="Layer_2" data-name="Layer 2" xmlns="http://www.w3.org/2000/svg" viewBox="0 0 127.79 185">
  <defs>
    <style>
      .cls-1 {
        fill: #dbe4ee;
      }

      .cls-2 {
        fill: #195ea3;
      }

      .cls-3 {
        fill: #2767a7;
      }

      .cls-4 {
        fill: #80a5cb;
      }

      .cls-5 {
        fill: #1a5fa4;
      }

      .cls-6 {
        fill: #a7c0da;
      }

      .cls-7 {
        fill: #06549d;
      }

      .cls-8 {
        fill: #3d77b1;
      }

      .cls-9 {
        fill: #3f79b2;
      }

      .cls-10 {
        fill: #f5f6f9;
      }

      .cls-11 {
        fill: #4f83b8;
      }

      .cls-12 {
        fill: #1459a0;
      }

      .cls-13 {
        fill: #e0e8f1;
      }

      .cls-14 {
        fill: #0f589f;
      }

      .cls-15 {
        fill: #13589f;
      }

      .cls-16 {
        fill: #b2c8de;
      }

      .cls-17 {
        fill: #2465a6;
      }

      .cls-18 {
        fill: #1359a0;
      }

      .cls-19 {
        fill: #8bc241;
      }

      .cls-20 {
        fill: #f9fbfd;
      }

      .cls-21 {
        fill: #f4f6f9;
      }

      .cls-22 {
        fill: #eff3f8;
      }

      .cls-23 {
        fill: #ebeff6;
      }

      .cls-24 {
        fill: #487eb4;
      }

      .cls-25 {
        fill: #c1d3e5;
      }

      .cls-26 {
        fill: #165da1;
      }

      .cls-27 {
        fill: #e6ecf3;
      }

      .cls-28 {
        fill: #ebf1f6;
      }

      .cls-29 {
        fill: #fafdff;
      }

      .cls-30 {
        fill: #1f61a4;
      }

      .cls-31 {
        fill: #5587ba;
      }

      .cls-32 {
        fill: #4179b2;
      }

      .cls-33 {
        fill: #fcfdff;
      }

      .cls-34 {
        fill: #3f78b2;
      }

      .cls-35 {
        fill: #0a539c;
      }

      .cls-36 {
        fill: #4a80b5;
      }

      .cls-37 {
        fill: #3875b0;
      }

      .cls-38 {
        fill: #326fac;
      }

      .cls-39 {
        fill: #2163a5;
      }

      .cls-40 {
        fill: #0d559e;
      }

      .cls-41 {
        fill: #d2dfeb;
      }

      .cls-42 {
        fill: #dde6ef;
      }

      .cls-43 {
        fill: #a9c2db;
      }

      .cls-44 {
        fill: #4980b5;
      }

      .cls-45 {
        fill: #d6e2ed;
      }

      .cls-46 {
        fill: #ccdae9;
      }

      .cls-47 {
        fill: #d1ddea;
      }

      .cls-48 {
        fill: #447bb3;
      }

      .cls-49 {
        fill: #296aa9;
      }

      .cls-50 {
        fill: #145ba1;
      }

      .cls-51 {
        fill: #427ab3;
      }

      .cls-52 {
        fill: #afc6dd;
      }

      .cls-53 {
        fill: #2566a7;
      }

      .cls-54 {
        fill: #1c5fa3;
      }

      .cls-55 {
        fill: #e8eef5;
      }

      .cls-56 {
        fill: #3471ae;
      }

      .cls-57 {
        fill: #b9cde1;
      }

      .cls-58 {
        fill: #0e58a0;
      }

      .cls-59 {
        fill: #eff3f7;
      }

      .cls-60 {
        fill: #e5ebf3;
      }

      .cls-61 {
        fill: #9fbbd7;
      }

      .cls-62 {
        fill: #e7edf3;
      }

      .cls-63 {
        fill: #f6f8fa;
      }

      .cls-64 {
        fill: #0d569e;
      }

      .cls-65 {
        fill: #487fb5;
      }

      .cls-66 {
        fill: #5788bb;
      }

      .cls-67 {
        fill: #5b8abc;
      }

      .cls-68 {
        fill: #155ca1;
      }

      .cls-69 {
        fill: #5687bb;
      }

      .cls-70 {
        fill: #2364a6;
      }

      .cls-71 {
        fill: #2f6dab;
      }

      .cls-72 {
        fill: #b5cadf;
      }

      .cls-73 {
        fill: #f2f5f8;
      }

      .cls-74 {
        fill: #d5e0ec;
      }

      .cls-75 {
        fill: #c4d5e6;
      }

      .cls-76 {
        fill: #2d6dab;
      }

      .cls-77 {
        fill: #f0f4f8;
      }

      .cls-78 {
        fill: #bdd0e2;
      }

      .cls-79 {
        fill: #bbcfe2;
      }

      .cls-80 {
        fill: #fff;
      }

      .cls-81 {
        fill: #3672ae;
      }

      .cls-82 {
        fill: #3c76b1;
      }

      .cls-83 {
        fill: #316eac;
      }

      .cls-84 {
        fill: #b6cae0;
      }

      .cls-85 {
        fill: #e4ebf2;
      }

      .cls-86 {
        fill: #d6e0ec;
      }

      .cls-87 {
        fill: #d9e3ee;
      }

      .cls-88 {
        fill: #3773ae;
      }

      .cls-89 {
        fill: #5386ba;
      }

      .cls-90 {
        fill: #d7e1ed;
      }

      .cls-91 {
        fill: #e0e8f0;
      }

      .cls-92 {
        fill: #f5f9fb;
      }

      .cls-93 {
        fill: #e3eaf1;
      }

      .cls-94 {
        fill: #e9eff4;
      }

      .cls-95 {
        fill: #2869a9;
      }

      .cls-96 {
        fill: #5284b9;
      }

      .cls-97 {
        fill: #dbe4ef;
      }

      .cls-98 {
        fill: #3a76b0;
      }

      .cls-99 {
        fill: #2766a7;
      }

      .cls-100 {
        fill: #d8e2ed;
      }

      .cls-101 {
        fill: #d3e0ed;
      }

      .cls-102 {
        fill: #9eb9d7;
      }

      .cls-103 {
        fill: #dde6f0;
      }

      .cls-104 {
        fill: #f1f5f9;
      }

      .cls-105 {
        fill: #185ca1;
      }

      .cls-106 {
        fill: #d4dfeb;
      }

      .cls-107 {
        fill: #2263a6;
      }

      .cls-108 {
        fill: #0e579f;
      }

      .cls-109 {
        fill: #3a75b0;
      }

      .cls-110 {
        fill: #cddbea;
      }

      .cls-111 {
        fill: #0f579e;
      }

      .cls-112 {
        fill: #2768a9;
      }

      .cls-113 {
        fill: #467db4;
      }

      .cls-114 {
        fill: #d0ddea;
      }

      .cls-115 {
        fill: #a8c2da;
      }

      .cls-116 {
        fill: #5c8bbc;
      }

      .cls-117 {
        fill: #f6fafd;
      }

      .cls-118 {
        fill: #3673af;
      }

      .cls-119 {
        fill: #8cc340;
      }

      .cls-120 {
        fill: #ecf1f6;
      }

      .cls-121 {
        fill: #ebf1f5;
      }

      .cls-122 {
        fill: #c2d4e5;
      }

      .cls-123 {
        fill: #3471ad;
      }

      .cls-124 {
        fill: #2f6caa;
      }

      .cls-125 {
        fill: #eca02a;
      }

      .cls-126 {
        fill: #2b6baa;
      }

      .cls-127 {
        fill: #edf1f6;
      }

      .cls-128 {
        fill: #dfe8f1;
      }

      .cls-129 {
        fill: #dee6f0;
      }

      .cls-130 {
        fill: #08529c;
      }

      .cls-131 {
        fill: #cbdae9;
      }

      .cls-132 {
        fill: #f3f6f9;
      }

      .cls-133 {
        fill: #195da1;
      }

      .cls-134 {
        fill: #0d569f;
      }

      .cls-135 {
        fill: #d8e3ee;
      }

      .cls-136 {
        fill: #5f8dbe;
      }

      .cls-137 {
        fill: #1a5fa3;
      }

      .cls-138 {
        fill: #f1f4f9;
      }

      .cls-139 {
        fill: #3370ad;
      }

      .cls-140 {
        fill: #abc3dd;
      }

      .cls-141 {
        fill: #e1e9f1;
      }

      .cls-142 {
        fill: #d3e0eb;
      }

      .cls-143 {
        fill: #2d6caa;
      }

      .cls-144 {
        fill: #f4f7fa;
      }

      .cls-145 {
        fill: #e2e9f1;
      }

      .cls-146 {
        fill: #3c77b0;
      }

      .cls-147 {
        fill: #d9e4ee;
      }

      .cls-148 {
        fill: #477fb4;
      }

      .cls-149 {
        fill: #d5e1ec;
      }

      .cls-150 {
        fill: #07539b;
      }

      .cls-151 {
        fill: #1e61a4;
      }

      .cls-152 {
        fill: #3974b0;
      }

      .cls-153 {
        fill: #155ca0;
      }

      .cls-154 {
        fill: #8ac441;
      }

      .cls-155 {
        fill: #2062a5;
      }

      .cls-156 {
        fill: #2c6caa;
      }

      .cls-157 {
        fill: #a3bdd9;
      }

      .cls-158 {
        fill: #296aaa;
      }

      .cls-159 {
        fill: #90b0d1;
      }

      .cls-160 {
        fill: #d0dceb;
      }

      .cls-161 {
        fill: #c8d9e8;
      }

      .cls-162 {
        fill: #d1deec;
      }

      .cls-163 {
        fill: #2b6aaa;
      }
    </style>
  </defs>
  <g id="Layer_1-2" data-name="Layer 1">
    <g>
      <path class="cls-150" d="M127.79,0v185H0V.32s.3-.32.32-.32h127.47Z"/>
      <rect class="cls-119" x="1.91" y="2.33" width="123.97" height="180.34"/>
      <path class="cls-130" d="M60.14,12.78c38.36-2.53,66.4,35.07,51.43,70.92-15.97,38.26-68.91,42.37-90.8,7.11C.75,58.59,22.29,15.27,60.14,12.78Z"/>
      <path class="cls-150" d="M85.83,121.64v4.34c0,.54-1.07,2.37-1.91,2.23,1.03.94,1.74,1.57,1.91,3.07.24,2.14.21,7.16,0,9.32-.24,2.37-1.76,3.89-4.13,4.13-3.4.34-11.01.34-14.41,0-2.32-.23-3.89-1.54-4.13-3.92-.1-1-.15-4.16.04-5.04.62-2.76,6.53-1.53,7.9-5.24.65-1.76.48-4.51-2.01-4.02,1.3,4.22-.99,6.61-5.31,5.84-4.49-.8-4.03-7.77.32-8.18,2.01-.19,6.48-.21,8.46.03,2.82.34,4.02,2.79,3.38,5.45-.75,3.07-5.3,4.55-5.58,6.92-.08.68-.1,3.69.27,4.08.71.75,5.73.9,6.74.6.57-.17,1.15-.91,1.25-1.51.23-1.44.23-7.86,0-9.3-.07-.44-.29-.79-.61-1.08-.46-.42-1.28-.4-1.3-.83-.05-1.15.59-.83,1.17-1.4.23-.22.76-1.32.76-1.57v-3.92h7.21Z"/>
      <path class="cls-150" d="M49.59,137.96v-9.43c0-.13-.47-.72-.65-.84-.85-.55-6.02-.46-7.03-.06-1.68.67-1.3,2.06-1.43,2.06h-6.78c-.36-3.34.95-5.25,4.34-5.52,3.91-.31,10.96-.33,14.85,0,1.86.16,3.21.93,3.8,2.76.65,1.98.52,11.2.33,13.67-.11,1.43-.8,3.64-2.46,3.9-1.34.21-5.78.17-7.19.01-2.23-.25-2.95-2.04-2.6-4.08.44-2.55,2.68-2.55,4.82-2.49Z"/>
      <path class="cls-150" d="M57.32,153.85c1.5.18,3.75,1.28,4.08,2.91.65,3.13-1.57,4.37-4.19,5.04,2.06,1.62,3.7,4.63,5.72,6.15.88.66,2.14.61,1.91,1.8-1.96-.31-3.93-.25-5.89-.04-1.14-1.47-2.27-3.04-3.54-4.41-.43-.47-2.16-2.34-2.53-2.55-.49-.28-.87-.22-1.39-.2v4.98c0,1.47,2.62,1.24,2.75,1.38.06.06-.03.63,0,.84h-9.75c-.3-1.25.78-.77,1.7-1.17,1-.43.99-1.12,1.07-2.11.17-2.22.3-8.32-.06-10.34-.11-.62-.39-1.12-1-1.33-.69-.24-1.95.12-1.7-.95h12.82Z"/>
      <path class="cls-150" d="M39.42,164.45v-7.73c0-1.16-1.59-2.35-2.76-2.01.03-.15-.04-.85,0-.85h6.57c.3,1.27-.76.71-1.64,1.22-.23.13-.69.58-.69.79v14.09c-.61-.04-1.29.16-1.81-.2l-12.17-11.77-.64-.32v9.01c0,.46.55,1.3.95,1.59.89.65,2.09.2,1.8,1.48-2.21.24-4.4-.51-6.57,0-.27-1.18.59-.85,1.35-1.3s1.02-1.21,1.14-2.04c.27-1.83.31-7.88.07-9.7-.08-.57-.81-1.38-1.29-1.68-.77-.47-1.85-.07-1.69-1.17h6.04l10.7,10.28.64.32Z"/>
      <rect class="cls-125" x="19.92" y="148.34" width="87.95" height="1.27"/>
      <path class="cls-150" d="M103.42,153.64l.21,4.66c-1.51.22-1.03-.43-1.44-1.21s-1.15-1.51-2.01-1.81c-.5-.18-3.55-.73-3.55-.06v12.5c0,.98,2.07,1.08,2.76.95v1.06s-10.17,0-10.17,0v-1.06c.75-.04,1.89.22,2.43-.43,1.15-1.37.26-10.52.49-12.77-1.1-1.29-4.39-.43-5.35.93-.78,1.1-.27,2.28-2.03,1.89l.21-4.66h18.44Z"/>
      <path class="cls-150" d="M81.16,154.91c0-1.3.22-1.41,1.49-1.27l.21,5.09c-1.6.15-1.04,0-1.51-.93-1.4-2.74-4.13-3.95-7.09-2.89-5.46,1.96-5.12,12.94.87,13.76,2.34.32,4.36-.04,5.77-2.03.87-1.23.58-2.78,2.37-2.4-.32,1.81-.21,3.49,0,5.3-1.25.16-1.52-.12-1.8-1.28-5.14,3.42-15.28,1.81-15.99-5.4-.69-7,6.4-10.46,12.51-9.12,1.19.26,2.06.78,3.17,1.17Z"/>
      <rect class="cls-150" x="89.22" y="138.81" width="7.42" height="5.72"/>
      <path class="cls-80" d="M62.26,13.84c39.7-1.83,65.73,42.44,44.55,76.34-19.49,31.19-64.9,31.6-84.65.51C1.45,58.07,24,15.6,62.26,13.84Z"/>
      <path class="cls-19" d="M65.01,126.76c1.93-.32,3.17,2.38,1.31,3.44-2.71,1.54-4.17-2.97-1.31-3.44Z"/>
      <path class="cls-19" d="M49.32,139.91c3.51-.6,3.44,3.4-.22,2.66-1.95-.4-1.57-2.35.22-2.66Z"/>
      <path class="cls-154" d="M51.5,161.48v-6.25c0-.86,3.92-.49,4.84,1.09,1.98,3.39-1.68,5.83-4.84,5.16Z"/>
      <path class="cls-130" d="M61.62,14.9c36-2.03,61.81,34.59,47.82,67.96-14.79,35.28-62.98,40.54-85.12,9.27C2.03,60.65,23.37,17.05,61.62,14.9Z"/>
      <path class="cls-80" d="M63.96,15.52c37.12-.31,60.89,40.51,41.95,72.7-18.97,32.25-65.88,31.56-83.91-1.19C4.41,55.07,27.76,15.82,63.96,15.52Z"/>
      <path class="cls-130" d="M62.05,25.07c31.21-1.87,51.81,32.53,35.31,59.26-14.64,23.71-49.2,24.66-65.02,1.69-17.24-25.03-.45-59.14,29.71-60.95Z"/>
      <path class="cls-64" d="M28.4,40.48c-1.17.53-1.45-1.41-1.03-2.2.4-.74.56-.21.67-1.35.09-.93.48-.11.8.03.79.35,1.23.4,2.05.92.55.35,2.16,1.39,1.44,1.95-1.28-1.17-3.09-1.88-2.86.64.49.04.61-.48,1.15-.43,1.21.1.94,2.27-.67,1.55-.24-.11-.88-.68-1.11-.9-.41-.14-.61-1.38-.51-1.37.06,0,.15,1.03.08,1.16Z"/>
      <path class="cls-40" d="M95.57,32.85c-.86,1.58-.86,1.65,0,.21h1.91s0,.63,0,.63c-1.6-.22-1.01.17-1.48.74-.69.84-1.72,1.59-2.45,2.43l-1.8-1.8c.29-.55.75-.11,1.07-.22s1.07-1.21,1.47-1.47c-.26-.44-1.08-.18-1.25-.66-.52-1.46,2.44-2.69,2.52.13Z"/>
      <path class="cls-64" d="M101.08,41.11c-.11.26-.07.58-.42.74-.66.31-4.29-.06-3.73-.96.14-.23,3.2-1.91,3.62-1.91,1.25,0,.94.7,1.29,1.27.31.51.86.51.7,1.34-.18.92-2.91,2.23-3.78,2.7.08-.27-.25-.47-.12-.64.44-.58,2.69-1.34,2.98-1.9.52-1-.28-.81-.32-.85-.17-.04-.23.03-.21.21Z"/>
      <path class="cls-40" d="M86.25,28.39c.08.07,1.7-.81,1.91-.96.49-.33.35-1.18,1.48-.63,1.05.52.01,1.21-.2,1.54-.26.39-1.84,3.01-2.02,3.01-.04,0-.48-.45-.49-.52,0-.21,1.9-2.43,1.65-2.65-.82-.16-3.3,2.09-3.81,1.48-.25-.3,1.46-2.37,1.59-2.76.04-.11-.95-1.84.42-1.83,2.19.02-.68,3.17-.53,3.31Z"/>
      <path class="cls-64" d="M77.35,22.47c.03.52,1.26.71,1.27.95,0,.03-.19.51-.21.53-.04.05-.95-.45-1.25-.19-.05.04-.28,1.15-.22,1.23s1.82.72,1.89.66c.16-.51.93-3.66,1.08-3.79.13-.11.6.01.82-.02l-1.49,4.66-3.39-1.06c-.08-.1.95-1.95,1-2.26.09-.63-.46-1.15.47-1.89,1.75-1.39,3.05,2.2.02,1.18Z"/>
      <path class="cls-64" d="M54.1,22.83c.14.19,1.55.98.59,1.66-.62.44-1.25-.28-1.4-.28-.19,0-1.26,1.35-1.79,1.22-.18-.13-.54-2.45-.83-2.84-.18-.25-.78-.04-1.1-.43-.69-.81.5-1.91,1.19-1.19.44.45.93,3.37,1.26,3.39,2.32-1.08.9-2.51.53-4.34,1.25-.51,1.03,2.09,1.55,2.8Z"/>
      <path class="cls-108" d="M36.2,29.08c.13.08,1.16,1.5,1.63,1.86.57.43,1.36.18,1.38,1.18.02,1.28-1.26.6-1.46.74-.33.23-.33,2.38-1.4,1.46-.24-.2-1.11-1.25-1.39-1.59-.16-.2-.19-.51-.21-.53-.07-.05-.86.74-1.42.16-.62-.63-.04-1.65.85-1.4.42.12,2.51,2.65,2.69,2.51.02-.61.7-1.14.61-1.75-.13-.83-1.6-1.55-1.84-2.2-.19-.5.15-.7.56-.45Z"/>
      <path class="cls-40" d="M27.97,84.34c.72.55-1.12,2.34-1.27,2.96.23.21,1.61-1.06,2.02-1.07.32,0,.68.41.52.64-.12.18-3.5,2.13-3.71,2.12-1.17-.08.9-2.6.74-2.75l-2.01.85c-.18,0-.16-.66-.07-.82.11-.18,3.61-2.07,3.78-1.94Z"/>
      <path class="cls-40" d="M35.82,97.69c-.11.14.03,1.84-.53,2.11-1.15-.58.18-1.91-.21-2.54-.44-.7-1.2.78-1.49.85l-.53-.53,2.86-3.07c.68.67,2.38,1.49,1.6,2.65-.73,1.1-1.65.44-1.71.52Z"/>
      <path class="cls-64" d="M109.56,73.11c.76.82-2.3,1.39-2.75,1.48l2.33.63-.21.85c-.55-.38-4.16-.86-4.25-1.19-.03-.12,0-.67.02-.71.09-.1,2.35-.35,2.75-.44-.18-.63-2.16-.62-2.33-.85-.12-.16.1-.55.34-.6.2-.04,3.97.66,4.11.81Z"/>
      <path class="cls-64" d="M20.34,71.63c-.26.04-1.3.21-1.37.2-.26-.05-.5-.49-.12-.73.18-.12,4.09-.89,4.24-.74.12.13-.04.74-.2.97-.34.47-1.59.81-1.92,1.36,1.08.29,2.9-1.03,2.54.64l-4.45.42c-.45-.44,1.53-1.85,1.91-2.12.05-.15-.16-.15-.64,0Z"/>
      <path class="cls-64" d="M78.83,107.65c-1.39.36-1.63-1.23-2.75-1.48.17.53.63,1.49.64,1.99,0,.1-.61.36-.64.34-.18-.13-1.41-4.07-1.28-4.24.63-.79,2.14,1.89,2.54,1.48l-.64-2.12.85-.22,1.27,4.24Z"/>
      <path class="cls-40" d="M53.57,106.12c-.22.22-.77.14-.81.39-.05.32.54,1.9.44,1.99-.16.15-.68-.08-.86-.3-.51-.63-.65-4.26-1.47-.33l-.85-.22,1.28-4.24c.61.31,1.94.38,2.34.94.3.42.28,1.42-.06,1.77Z"/>
      <path class="cls-64" d="M69.04,105.15c2.07-.27,2.67,3.4,1.23,4.21-2.8,1.57-4.1-3.84-1.23-4.21Z"/>
      <path class="cls-40" d="M72.48,21.4s.02.24-.1.21c-.23-.07-.59-.17-.5-.49.67-2.46,3.94-1.46,3.74.55-.02.25-1.1,3.02-1.24,3.11-1.19.81-.53-1.93-.61-2.19-.02-.07-.54-.24-.86-.55-.12-.63-.26-.84-.42-.64Z"/>
      <path class="cls-40" d="M90.2,96.7c1.42-.07,3.24,2.39,2.2,3.65-2.25,2.72-5.82-3.47-2.2-3.65Z"/>
      <path class="cls-40" d="M24.52,81.64c3.4-.71,3.28,3.15.36,3.54-3.12.41-2.77-3.03-.36-3.54Z"/>
      <path class="cls-64" d="M45.14,101.93s-.24.8-.21.84c.05.06,1.13.29,1.39.64.05.07-.1.62-.12.64-.22.2-1.24-.7-1.57-.62-.16.04-.55.66-.54.73.02.31,1.61.72,1.68,1.06.27,1.17-2.44-.21-2.74-.66l1.69-3.68c.13-.1,2.65.83,2.53,1.37-.2.91-1.88-.49-2.12-.32Z"/>
      <path class="cls-64" d="M58.7,105.11c-.36,1.48-.57,1.76,1.06,1.91-.03-.26.15-1.64.22-1.7.12-.1.75,0,.79.31.05.32-.59,4.13-.9,4.14-.03,0-.51-.19-.53-.21-.2-.25.82-1.65-.32-1.91-1.55-.35-.12,2.14-1.8,1.69.25-.82.25-3.6.61-4.11.18-.26.6-.09.87-.12Z"/>
      <path class="cls-64" d="M102.57,90.06c-.56.45-1.72-1.98-2.54.11l1.48,1.06c.06.26-.21.53-.5.5-.21-.02-3.5-2.2-3.51-2.41,0-.12.17-.61.51-.54.43.08,1.22,1.08,1.56.84.04-.03.44-.83.43-.91-.06-.42-1.22-.9-1.23-1.08,0-.11.17-.61.51-.54.2.04,3.3,2.16,3.4,2.34.05.09-.09.62-.12.64Z"/>
      <path class="cls-40" d="M109.77,72.48l-4.45-.42c-.17-2.21.62-3.05,2.84-2.74,1.97.28,1.63,1.55,1.61,3.16Z"/>
      <path class="cls-134" d="M42.81,101.3c-.56-.39-.63-.32-.21.21,1.56,2.3-3.65,3.45-2.54,0,1.39-.18.1,1.13,1.25,1.38,1.65.36-.37-1.63-.4-2.14-.14-2.21,3.24-1.39,2.73.41-.16.55-.56.12-.83.13Z"/>
      <path class="cls-64" d="M38.6,98.94c.09.17,1.41.58,1.24.98-.4.96-1.57-.49-1.8-.49-.15,0-.55.57-.73.7,0,.44,2.2,1.1,1.16,1.8-.21.04-2.15-1.32-2.17-1.59l2.31-3.26c.41-.24,2.37,1.25,2.3,1.55-.3,1.27-1.5-.61-2-.52-.24.05-.44.57-.29.82Z"/>
      <path class="cls-111" d="M55.94,23.95s-.61.02-.63,0c-.1-.09-.2-2.21-.39-2.67-.17-.44-.67-.37-.68-.81-.05-1.42,2.91-2.27,3.78-.6.18.34.71,3.3.67,3.55-.05.26-.51.5-.74.12-.62-1,.48-4.32-2.1-3.82-1.33.26-.34,1.05-.2,1.68.07.34.39,2.47.3,2.56Z"/>
      <path class="cls-108" d="M43.02,29.88c-.66.66-2.13-2.54-2.48-2.76-.8-.5-2.18.33-2.18,1.28.67-.08,2.29,2.1,2.45,2.55.08.24-.39.63-.43.63-.18,0-1.15-1.83-1.47-2.13-.69-.64-1.53-.31-1.08-1.7.32-.99,1.68-1.69,2.67-1.38.64.2,2.83,3.21,2.53,3.51Z"/>
      <path class="cls-64" d="M108.92,76.29c-.09,1.09-1.34.74-1.47.86-.04.04-.21,1.08-.19,1.13.09.39,1.12.33.6,1.39-.49-.54-3.58-2.03-3.77-2.37-.17-.29.04-1.02.28-1.02h4.56Z"/>
      <path class="cls-64" d="M104.9,85.62c.1,1.45-.95.29-1.46.97-.91,1.21.38,1.16.18,1.88-.15.15-.26.38-.53.32-.32-.07-2.43-2.95-3.07-3.28-.02-1.22,4.17.28,4.87.11Z"/>
      <path class="cls-64" d="M49.59,102.78s-.21.46-.22.73c-.02.48-.08,3.58-.21,3.72-.05.05-.49.02-.65-.09-.44-.31.3-1.22-1.05-1.52-.7-.16-.98,1.13-1.69.23.8-.47,2.16-2.88,2.75-3.19.24-.13,1.01.05,1.06.12Z"/>
      <path class="cls-108" d="M71.84,104.9c.31.25.11,3.53,1.38,3.4,1.42-.14-.97-4.15.42-3.83.25.06,1.02,3.05.96,3.48-.1.78-1.35,1.42-2.12,1.07-.65-.3-1.52-3-1.48-3.62.03-.46.61-.7.84-.51Z"/>
      <path class="cls-64" d="M30.72,88.58c.14.1.17.73.07.99s-1.65,2.45-1.92,2.76c-.16.18-.23.55-.58.48-.85-.18.61-1.44-.44-2.34-.3-.26-1.56.49-1.57-.31,0-.26,4.24-1.73,4.44-1.59Z"/>
      <path class="cls-108" d="M24.16,75.02c.16.16-.06.83-.31,1.07-.16.16-3.34,2.23-3.51,2.11-.03-.03-.24-.81-.22-.84,1.12.32.83-1.5.62-1.68-.18-.16-1.53.31-1.26-.86.64.15,4.5.05,4.66.21Z"/>
      <path class="cls-108" d="M65.91,21.4c-.01.79-.11,2.75-1.4,1.71-1.2-.96.67-1.44.73-1.53.67-1.09-.85-1.32-1.66-1.24-.22-2.18,3.05-2.84,3.38-.73.11.69-.09.53-.63.52l-.2-.17-.22,1.44Z"/>
      <path class="cls-64" d="M82.01,104.9c.49.5-.49,2.7-2.17,1.86-2.45-1.23-1.19-6.13,1.54-3.45-.58.96-.85-.1-1.55.13-1.36.44.5,3.61,1.23,2.52.06-.09.35-1.68.96-1.06Z"/>
      <path class="cls-64" d="M64.9,108.87c.79.82,1.21-.57,1.34-.59,1.34-.24.47,1.79-.84,1.7-3.11-.2-1.26-7.27,1.57-3.49-.63.9-1.08-.32-1.54-.29-1.06.08-.99,2.18-.52,2.67Z"/>
      <path class="cls-40" d="M57.22,106.17s-.75.03-.83-.03c-.07-.06.15-.78-.56-.73-1.33.09-1.55,3.14-.24,2.85.33-.07.6-.81,1.2-.6.16,1.54-1.7,1.91-2.55.75-1.05-1.45.23-4.54,2.33-3.6.39.18.9,1.12.64,1.37Z"/>
      <path class="cls-111" d="M44.25,23.78c.18.1,1.9,3.49,1.92,3.7.02.22-.13.44-.31.48-.29.07-3.15-.92-3.27-1.16-.57-1.24,2.16.27,2.33.11-.05-.27-.59-1.63-.66-1.68-.21-.15-1.28.54-1.42-.59-.12-.96.76-1.23,1.4-.86Z"/>
      <path class="cls-108" d="M89.64,29.67c1.13-.26.78,1.68.85,2.54.23-.21,1.21-1.26,1.24-1.41.06-.31-.38-.61-.35-.99.07-1.05,1.56-1.02,1.66-.03.08.84-2.09,2.93-2.66,3.7-.23.05-.43-.14-.49-.35-.1-.33-.37-3.35-.24-3.46Z"/>
      <path class="cls-58" d="M70.51,19.13c.73.67.16,4.36-.18,4.58-.71.45-2.03-.56-1.19-1.41.4-.4.95.54,1.02-1.2.03-.68.2-1.44-.54-1.6-1.6-.34-.62,1.21-1.8.74-.18-1.41,1.75-1.99,2.7-1.11Z"/>
      <path class="cls-64" d="M93.67,94.93c-.07.1-1.26.36-1.06,1.17.22.88,1.41-.49,1.59-.48.08,0,.52.45.52.49,0,.12-1.05.94-1.05,1.06s1.27,1.15,1.26,1.27c0,.04-.49.53-.53.53-.22,0-2.6-2.75-3.07-3.07l1.8-1.79c.18.17.71.59.53.84Z"/>
      <path class="cls-58" d="M62.94,23.31h-.85c-.05-.92.3-4.57-1.28-4.15-.86.23-.54,1.08-.64,1.17-.22.22-1,.25-.74-.63.28-.93.9-1.39,1.9-1.26,2.18.28.99,3.52,1.61,4.87Z"/>
      <path class="cls-14" d="M31.52,33.52c.83-.15,3.75,2.36,3.66,2.83-.21,1.01-1.75-.95-2.02-1.16-.65-.51-1.72-1.5-2.28-.37-.28.57.67,1.85-.26,1.64s-.56-2.67.9-2.93Z"/>
      <path class="cls-108" d="M97.62,35.02c1.28-.13,2.07,1.18,1.73,2.34-.13.43-2.8,2.57-3.24,2.48-.32-.07-.3-.26-.11-.53.55-.8,3.06-1.72,2.73-2.92-.3-1.08-1.77-.11-1.88-.68-.06-.35.49-.66.77-.68Z"/>
      <path class="cls-108" d="M96.95,90.07s.46.41.47.52c.01.18-.31.45-.34.67-.07.61,2.51,2.14,2.51,2.51,0,.04-.49.52-.53.52-.2,0-2.43-2.29-2.76-2.28-.07,0-.99,1.13-1.16.28-.04-.18,1.66-2.22,1.8-2.22Z"/>
      <path class="cls-111" d="M45.56,24.37c-.57-1.47.7-2.73,2.18-2.29.96.29,1.51,3.01,2.06,3.87-.19.2-.33.47-.64.22-.53-.42-1.11-4.61-2.66-3.31-.51.42-.02,1.56-.93,1.5Z"/>
      <path class="cls-108" d="M32.63,90.91c.89.73-2.2,2.15-2.3,2.68s.76,1.02.8,1.27c.04.23-.44.71-.51.71-.13,0-1.61-1.86-1.49-2.12.48-.34,3.17-2.82,3.5-2.54Z"/>
      <path class="cls-108" d="M24.58,76.71l.85,2.75-.85.22-.22-1.06c-.52.18-3.36,1.31-3.6,1.06-.06-.06-.06-.52.12-.65.41-.3,3.13-.88,3.26-1.04.07-.09-.54-.74-.42-1.05l.85-.22Z"/>
      <path class="cls-111" d="M107.44,80.11c.15.15-.69,2.48-.97,2.54-.49-.37-3.79-1.31-3.91-1.48s.07-.8.32-.85c.39-.07,2.98,1.48,3.27,1.27.09-.06.61-2.13,1.28-1.48Z"/>
      <path class="cls-58" d="M85.83,103.63c.3.21,1.63-1.32,1.9-.53.24.69-1.58,1.26-2,1.59-.29-.43-2.38-3.64-2.24-3.81.74-.86,2.06,2.2,2.33,2.75Z"/>
      <path class="cls-14" d="M81.59,26.06c.15.19,1.02,0,.49,1.23-.34.79-1.54.16-1.55-.48,0-.36,1.35-3.18,1.64-3.66.16-.27.09-.43.58-.27.44.15.2.31.12.53-.17.42-1.36,2.52-1.28,2.64Z"/>
      <path class="cls-12" d="M103.63,41.11c-.03-1.41-.91-2.51-1.27-3.81,2.33-.19,3.46,2.59,1.27,3.81Z"/>
      <path class="cls-15" d="M71.41,18.86c-1.32-.32-2.43-1.03-3.81-1.16,1.23-2.06,3.81-1.18,3.81,1.16Z"/>
      <path class="cls-14" d="M84.24,23.53c.92-.05-.74,2.82-.73,3.07.02.38.56.61.39,1.22-.27.96-1.83.7-1.58-.49.06-.27,1.71-3.8,1.92-3.81Z"/>
      <path class="cls-12" d="M76.71,19.29c.36.02.72.02,1.07-.1.3-.1,1.13-1.11,1.26-.43.24,1.26-3.75,1.66-3.97-.04-.16-1.21,2.25-1.42,1.64.57Z"/>
      <path class="cls-151" d="M105.53,63.15c.17,0,.24.13.21.42.11.58.33,1.15.64,1.7.27-.52.8-.29.85.21.59.51,1.65.15,2.12-.42.35-.67.5-1.37.42-2.12-.06-.2.01-.27.21-.21,1.63,2.82-2.57,5.04-4.24,2.44-.55-.86-.44-1.15-.21-2.01Z"/>
      <path class="cls-50" d="M37.08,25.01c.32,1.28-.65,2.78-1.91,3.09-1.44.36-1.56-1.99-.15-1.58.38.11.81,1.13,1.31-.03.23-.54-.15-1.51.74-1.48Z"/>
      <path class="cls-14" d="M105.75,84.77c-.19.19-3.91-1.37-4.14-1.69-.05-.07.1-.62.12-.64.15-.13,3.38,1.28,3.68,1.51.26.2.56.6.35.82Z"/>
      <path class="cls-15" d="M25.85,80.52c-.12.16-3.2,1.37-3.67,1.53-.61.22-.85-.38-.29-.73,1.06-.66,2.58-.94,3.65-1.64.1-.03.38.75.31.84Z"/>
      <path class="cls-30" d="M18.22,64c.07-.56.26-.54.42,0,.2.61.34.89.42.85.28-.38.89.19.85.64.46.21.95.28,1.48.21.07-.24.58-.45.85-.42.32-.76.47-1.54.42-2.33-.24-.3-.14-.41.21-.21,1.96,3.75-4.42,5.04-4.66,1.27Z"/>
      <path class="cls-14" d="M83.5,105.53c-.15-.11-1.56-3.18-1.61-3.37-.1-.38-.1-.39.23-.64.34-.07.44.28.57.49.2.31,1.6,2.86,1.64,3.03.09.41-.6.66-.82.5Z"/>
      <path class="cls-94" d="M101.3,40.9c-.08.06-.18.13-.21.21-.26-.51-.97-.93-1.5-.54-.44.32.35,1.07-1.25.54-.18-.17,1.88-1.49,2.23-1.49.69,0,.44.98.73,1.28Z"/>
      <path class="cls-50" d="M27.49,34.36c1.51-.43,1.3,2.29-.15,1.56-.64-.32-.54-1.37.15-1.56Z"/>
      <path class="cls-73" d="M95.57,33.06c-.12,1.27-.67,1.37-1.49,2.23-.17.18-.19.51-.21.52-.17.12-.63-.2-.63-.32,0-.33,2.04-2.17,2.33-2.65,0,.07,0,.14,0,.21Z"/>
      <path class="cls-27" d="M72.48,21.4c.83-2.07,3.04-.94,2.12,1.06-.42-.03-.12-.78-.24-1.13-.24-.74-1.85-.42-1.45.71-.14-.14-.31-.6-.42-.64Z"/>
      <path class="cls-22" d="M28.4,40.48c-.68-.78-.83-2.22.42-2.54.15.96-.42,1.84,0,2.75-.1-.09-.35-.13-.42-.21Z"/>
      <path class="cls-28" d="M66.33,20.13c-.02.19-.29,1.05-.42,1.27,0-.25.05-1.43,0-1.48s-1.48.15-1.48-.32c0-.58,2.05-1.01,1.9.53Z"/>
      <path class="cls-53" d="M22.46,62.3c-.06.16-.13.16-.21,0-.35.13-.81-.19-1.06-.42-.33-.19-.73-.19-1.06,0-.16.23-.44.44-.85.64-.05.31-.22.5-.42.21-.28.28-.36.16-.21-.21.7-1.13,2.37-1.57,3.49-.83.32.21.27.55.33.62Z"/>
      <path class="cls-81" d="M109.35,62.3c-.24.19-.67-.13-.64-.42-.54.06-1.11.06-1.7,0,.05.26-.16.47-.64.64-.1.26-.25.47-.42.21-.26.26-.27.14-.21-.21.66-1.05,1.99-1.44,3.13-.9.5.24.35.52.47.69Z"/>
      <path class="cls-151" d="M90.49,26.7c-1.05-.2.4-2.1.53-2.11.94-.08-.57,1.91-.53,2.11Z"/>
      <path class="cls-120" d="M42.81,101.3s-.15.16-.21.21c-.19-.27-.99-.62-.85-1.27l1.06,1.06Z"/>
      <path class="cls-70" d="M18.86,62.73c.27.2.07,1.07-.21,1.27h-.42c-.04-.65.1-.96.42-1.48l.21.21Z"/>
      <path class="cls-2" d="M105.96,62.73c.21.22.06.72-.21.85-.01-.07-.23-.26-.21-.42.06-.22.09-.44.21-.64l.21.21Z"/>
      <path class="cls-150" d="M109.35,62.3c.1.05.46-.1.6.03.11.1,0,.33.03.39-.06.08-.15.14-.21.21-.31-.03-.64-.38-.42-.64Z"/>
      <path class="cls-150" d="M22.46,62.3c.1.11.09-.21.42.42l-.21.21c-.22.22-.3.09-.21-.21-.28.07-.45-.21-.21-.42h.21Z"/>
      <path class="cls-84" d="M20.34,71.63c.14-.02.62-.41,1.06-.21v.21c-.13.03-.37-.04-.42,0h-.64Z"/>
      <path class="cls-80" d="M60.57,25.92c37.26-2.91,56.65,42.46,28.54,66.9-20.92,18.19-53.95,7.99-61.45-18.43-6.37-22.46,9.32-46.62,32.91-48.46Z"/>
      <path class="cls-131" d="M94.09,32c.07.08.13.79-.31.63-.65-.23.11-.85.31-.63Z"/>
      <path class="cls-46" d="M100.45,40.9c.12.12-.18.63-.32.63-.59,0,0-.95.32-.63Z"/>
      <path class="cls-25" d="M87.1,25.64c.07.08.13.79-.31.63-.65-.23.11-.85.31-.63Z"/>
      <path class="cls-45" d="M89.43,27.76c-.12.12-.63-.18-.63-.32,0-.59.95,0,.63.32Z"/>
      <path class="cls-25" d="M78.62,21.62c.22.21-.4.97-.63.31-.16-.45.55-.39.63-.31Z"/>
      <rect class="cls-135" x="53.83" y="23.52" width=".42" height=".63"/>
      <path class="cls-149" d="M38.15,32.42c-.07-.08-.13-.79.31-.63.65.23-.11.85-.31.63Z"/>
      <rect class="cls-80" x="33.7" y="31.36" width=".42" height=".63"/>
      <path class="cls-73" d="M36.66,97.06c-.2.15-1.37-.26-1.27-.73.26-1.23,1.96.19,1.27.73Z"/>
      <path class="cls-85" d="M52.98,104.69c.13,1.34-.51,1.04-1.48.84l.21-1.06,1.27.22Z"/>
      <path class="cls-20" d="M68.5,106.22c1.49-1.51,2.72,3.12.52,2.45-.72-.22-1.04-1.93-.52-2.45Z"/>
      <path class="cls-75" d="M73.96,21.4c.22.21-.4.97-.63.31-.16-.45.55-.39.63-.31Z"/>
      <path class="cls-117" d="M89.69,97.75c.92-.95,3.25,1.73,1.63,2.4-.81.34-2.56-1.44-1.63-2.4Z"/>
      <path class="cls-117" d="M26.01,82.49c1.12,1.12-1.76,2.68-2.39,1.64-.78-1.28,1.69-2.34,2.39-1.64Z"/>
      <path class="cls-132" d="M108.89,71.6l-2.72-.18c-.48-2.23,3.8-1.74,2.72.18Z"/>
      <path class="cls-138" d="M106.81,77.14c-.24.96-.61.67-1.27.1l1.27-.1Z"/>
      <path class="cls-147" d="M102.78,86.04c.5.51-1.04.91-1.27-.21.22.03,1.23.17,1.27.21Z"/>
      <polygon class="cls-59" points="48.53 105.11 47.68 104.79 48.74 103.84 48.53 105.11"/>
      <path class="cls-142" d="M29.45,89.64c.22,1.07-1.05,1.17-1.05.53,0-.21.83-.41,1.05-.53Z"/>
      <path class="cls-59" d="M22.89,75.66c-.03.39-1.12.79-1.27.63v-.63s1.27,0,1.27,0Z"/>
      <path class="cls-104" d="M65.27,22.25c.07.29-.11.56-.42.63v-.63s.42,0,.42,0Z"/>
      <rect class="cls-80" x="43.44" y="24.16" width=".42" height=".63"/>
      <rect class="cls-149" x="91.97" y="29.67" width=".63" height=".42"/>
      <path class="cls-79" d="M69.51,23.31c-.07-.08-.13-.79.31-.63.65.23-.11.85-.31.63Z"/>
      <path class="cls-79" d="M81.17,27.12c-.07-.08-.13-.79.31-.63.65.23-.11.85-.31.63Z"/>
      <path class="cls-97" d="M104.26,39.84c-.65.12-.32-.21-.44-.5-.15-.37-.35-.81-.4-1.19.64.31.92,1.01.84,1.69Z"/>
      <path class="cls-147" d="M70.36,17.38c.08.08.08.58-.28.39l-1.41-.6c.33-.04,1.52.03,1.69.21Z"/>
      <path class="cls-60" d="M83.28,27.34l-.1.63c-.22-.19-.39-.32-.32-.63h.42Z"/>
      <path class="cls-90" d="M76.29,18.86c-.08.07-.79.13-.63-.31.23-.65.85.11.63.31Z"/>
      <path class="cls-2" d="M107.23,62.3c.45-.28,1.08,0,.42.42-.05.19-.12.19-.21,0-.29.12-.58.33-.85.64.09.42.23.85.42,1.27.29-.29.42-.15.21.21.59.17.98.18,1.48-.21-.18-.06-.18-.13,0-.21.26-.22.4-.58.42-1.06-.26,0-.41-.22-.21-.42-.28-.3-.16-.41.21-.21.27-.19.46.11.42.42.43.5.18,1.56-.42,1.91-.15.66-1.44.9-1.91.42-.17-.01-.72-.14-.85-.21-.53-.62-.77-2.13,0-2.54.19-.35.55-.78.85-.42Z"/>
      <path class="cls-13" d="M106.38,62.73c-.59,1.09-.26,1.46,0,2.54-.78-.43-.54-1.03-.64-1.7.1-.22.11-.69.21-.85.05-.07.34-.12.42-.21.1.06.1.14,0,.21Z"/>
      <path class="cls-41" d="M109.35,65.06s.08.26-.14.43c-.44.35-2.21.82-1.98-.01.68.06,1.39.08,1.91-.42h.21Z"/>
      <path class="cls-141" d="M109.35,65.06h-.21c.63-.56.32-1.27.42-1.91-.3-.32-.17-.44.21-.21.43,1.12.17,1.31-.42,2.12Z"/>
      <path class="cls-110" d="M34.54,27.55c-.07-.08-.13-.79.31-.63.65.23-.11.85-.31.63Z"/>
      <path class="cls-151" d="M20.13,62.3c.67-.12,1.18-.04.42.42.14.51-.43.72-.85.64-.26.53-.19.96.21,1.27.18.07.18.14,0,.21.55.23,1.12.16,1.7-.21-.08-.22.23-.51.42-.64-.52.13-.59,0-.21-.42-.12-.22-.12-.43,0-.64-.28-.3-.16-.41.21-.21.22-.17.3-.06.21.21.62.31.56,1.89-.21,2.12.07.32-.56.55-.85.42-.21.4-.9.25-1.27,0-.35-.21-.69-.56-.85-.64-.38-.58-.32-2.01.42-2.33.03-.32.4-.47.64-.21Z"/>
      <path class="cls-122" d="M22.68,62.94c.33.99.41,1.58-.42,2.33-.31.21-.41.12-.21-.21.44-.49.47-1.52.21-2.12-.28-.3-.16-.41.21-.21.05.08.19.15.21.21Z"/>
      <path class="cls-103" d="M19.5,62.52c-.51.71-.46,1.49-.42,2.33-.01,0-.11.18-.2.21-.11-.36-.21-.68-.23-1.06,0-.18.14-1.15.21-1.27.03-.04.32-.16.42-.21.06-.12.13-.12.21,0Z"/>
      <path class="cls-74" d="M21.19,65.48c.29-.07.35-.07.21.21-.32.1-.39.31-.95.22-.45-.07-.45-.38-.54-.43.4-.05.9.07,1.27,0Z"/>
      <path class="cls-86" d="M22.25,65.27c-.38.34-.41.29-.85.42l-.21-.21c.1-.02.8-.37.85-.42l.21.21Z"/>
      <rect class="cls-149" x="27.34" y="34.97" width=".63" height=".42"/>
      <path class="cls-145" d="M20.13,61.88c.32-.2.74-.19,1.06,0,.39.05.72.24,1.06.42.08.13.12.3.21.42l-.21.21c-.02-.05-.15-.14-.21-.21-.65-.36-1.2-.44-1.91-.42-.23.05-.42.11-.64.21-.06.03-.15-.03-.21,0,.18-.42.4-.56.85-.64Z"/>
      <path class="cls-78" d="M21.19,61.88c-.25-.03-.82-.04-1.06,0,.14-.33.92-.33,1.06,0Z"/>
      <path class="cls-80" d="M108.71,61.88c.32.32.19.46-.21.21-.44.38-.82.34-1.27,0-.36.27-.48.16-.21-.21.69-.33,1-.2,1.7,0Z"/>
      <path class="cls-42" d="M109.35,62.3c.12.18.36.47.42.64-.05.06-.2.12-.21.21-.16-.12-.28-.29-.42-.42-.23.07-.5-.24-.64-.42-.19-.06-.18-.13,0-.21.1,0,.19-.11.21-.21.17.05.42.32.64.42Z"/>
      <path class="cls-91" d="M107.23,62.09c.19.06.18.13,0,.21-.34.04-.59.23-.85.42v-.21c.22-.24.24-.45.64-.64.02.1.11.2.21.21Z"/>
      <path class="cls-130" d="M63.11,26.76c30.48-1.03,49.2,33.43,31.58,58.49-15.55,22.11-49.3,20.52-62.59-3.03-13.73-24.34,3.2-54.52,31.01-55.46Z"/>
      <path class="cls-124" d="M108.08,62.52c.54.33.82.68.85,1.06.22.2.13.74-.21.85-.03.06.03.16,0,.21-.44.41-.95.41-1.48.21-.07-.05-.16-.14-.21-.21-.31-.46-.39-.88-.21-1.27,0-.28.35-.63.64-.64.06-.02.15.02.21,0,0-.44.11-.51.42-.21Z"/>
      <path class="cls-120" d="M108.71,64.63c-.49.85-.87.64-1.48.21l1.48-.21Z"/>
      <path class="cls-160" d="M108.92,62.94c.06.07.19.34.21.42,0,.22-.08.29-.21.21-.25-.54-1-.5-.85-1.06.36-.2.9-.01.85.42Z"/>
      <path class="cls-113" d="M108.5,62.09v.21c.02.13-.12.2-.42.21-.11.03-.27.16-.42.21.05-.46.03-.47-.42-.42v-.21c.33.05.93.03,1.27,0Z"/>
      <path class="cls-30" d="M108.5,62.3c.51,0,.43.24.64.42l-.21.21c-.12-.15-.72-.54-.85-.42.05-.01.14-.21.42-.21Z"/>
      <path class="cls-20" d="M107.02,64.63c-.32-.41-.61-.49-.42-1.27.06-.12.13-.11.21,0l.21,1.27Z"/>
      <path class="cls-47" d="M107.44,62.73l-.64.64h-.21c.04-.18.48-.67.64-.75.14-.07.19.12.2.11Z"/>
      <path class="cls-20" d="M109.14,63.36c.1.47.13,1.27-.42,1.06.16-.35.13-.55.21-.85.02-.09.12-.17.21-.21Z"/>
      <path class="cls-126" d="M20.98,62.52c.51.32.8.67.85,1.06.06.1.21.35.21.42l-.64.64c-.33.39-1.04.53-1.48.21-.03-.05.02-.14,0-.21-.53-.28-.42-.79-.21-1.27.1-.13.15-.32.31-.43.21-.15.36-.13.54-.2.09-.34.14-.49.42-.21Z"/>
      <path class="cls-155" d="M22.04,62.73l-.21.21c-.29.17-.65-.16-.85-.42-.09,0-.3.16-.42.21.05-.45.03-.47-.42-.42.85-.17,1.19-.4,1.91.42Z"/>
      <path class="cls-59" d="M21.4,64.63c.06-.17.13-.17.21,0-.48.51-1.2,1.03-1.7.21l1.48-.21Z"/>
      <path class="cls-131" d="M21.83,62.94c.11.15.18.34.21.53l-.21.11c-.29-.46-.91-.55-.85-1.06.24,0,.72.25.85.42Z"/>
      <path class="cls-80" d="M19.92,64.63c-.93-.14-.66-.72-.21-1.27,0,.43.07.87.21,1.27Z"/>
      <path class="cls-46" d="M22.04,64c.02.49-.24.44-.42.64h-.21c.15-.36.16-.75.64-.64Z"/>
      <path class="cls-80" d="M33.27,46.2c.28.12.42.55.42,1.27.33.09.77.52.85.85.46.25.53.46.21.64.19.06.19.13,0,.21.31.33.19.43-.21.21-.21.72.91.87,1.48.66l.21.19c-.03-.3.47-.69.64-.21.3-.3.42-.17.21.21.4.04.68,1.01.3.63.64-1.29,1.38-2.53,2.2-3.72-.35.34-.69.45-1.02.33-.06.14-.13.14-.21,0-.18-.07-.18-.14,0-.21l-.05-1.19c-.05-.46-1.14-1.47-1.01-.71.2.31.12.41-.21.21-.18.26-.93-.11-1.06-.42-.3.3-.42.17-.21-.21-.34-.41-.49-1.16,0-1.48-.53.21-.64.14-.42-.42,15.14-20.89,46.38-19.76,59.72,2.48,15.83,26.39-7.12,59.06-37.26,53.58-24.14-4.39-36.73-31.43-24.58-52.88Z"/>
      <path class="cls-127" d="M35.81,43.44c-.45.41-.35,1.02,0,1.48.07.06.13.16.21.21.33.22.41.35,0,.42,0,.41-.31.36-.42,0-.54.23-1.03.3-1.48.21-.27.45-.41,1.01-.42,1.7-.25-.52-.13-.9-.42-1.27.7-1.24,1.3-2.05,2.12-3.18.11.11.41.3.42.42Z"/>
      <path class="cls-89" d="M108.5,63.58c.35.48-1.11,1.3-1.21.32-.08-.8,1.08-.49,1.21-.32Z"/>
      <path class="cls-31" d="M20.56,64.42c-.27-.27-.4-.73-.21-1.06.47-.07.78.18,1.06.53-.22.24-.47.57-.84.53Z"/>
      <path class="cls-47" d="M20.56,64.42c-.48-.06-.63-.99-.21-1.06l.21,1.06Z"/>
      <path class="cls-150" d="M66.01,34.75c.14.04.88,1.03.92,1.22.11.52-.59,1.12-.39,1.75,3.13.03,6.17,1.08,9,2.33.41-.82.39-2.3,1.86-2.08.28.04,2.57,1.34,2.72,1.54.15.21.48,1.68.39,1.8-.05.07-1.39.37-1.16.87.11.22,1.67,1.26,2.02,1.58.97.88,2.08,2,2.97,2.96.49.53,1.36,2.37,2.02,1.82.61-.51.83-1.52,2.2-.53.18.13,1.64,2.61,1.67,2.78.01.08-.56,1.46-.62,1.52-.28.24-1.86-.32-1.66.35.31,1.04,1.06,2.22,1.42,3.46.39,1.37.66,2.8.88,4.2.06.4-.14,1.62.46,1.47.39-.09.75-.61,1.32-.51.07.01,1.21.54,1.21.6v3.71c0,.15-1.11.73-1.38.73-.44,0-1-.6-1.59-.41-.03,3.13-1.05,6.18-2.33,9.01-.1.69,1.26.1,1.66.35.06.04.56,1.15.58,1.24.11.51-1.14,2.73-1.59,3.09-1.61,1.28-2.34-.97-2.67-.97-1.4,1.82-2.96,3.53-4.66,5.09-.4.37-1.77,1.2-1.93,1.47-.4.72,1.14.96,1.19,1.2.08.33-.19,1.61-.44,1.87-.35.38-2.48,1.43-3.02,1.34-1.5-.25-1.03-1.26-1.54-2.29-2.3,1.16-4.9,1.93-7.45,2.3-.47.07-1.8-.19-1.69.47.08.47.6.99.52,1.53-.04.28-.77,1.21-.92,1.21h-3.5c-.08,0-.63-1.3-.64-1.39-.04-.58.6-1.12.43-1.78-3.16-.02-6.38-.99-9.22-2.33-.51,1.13.27,2.15-1.5,2.33-.44.04-3.08-1.29-3.22-1.52-.09-.16-.11-1.48-.05-1.72.04-.17,1.44-.86,1.18-1.21-1.61-1.12-3.14-2.36-4.46-3.81-.38-.42-1.95-2.72-2.12-2.76-.58-.14-.87,1.17-.98,1.24-.42.27-1.58.04-1.99-.38-.3-.31-1.56-2.49-1.53-2.84,0-.08.56-1.34.62-1.38.4-.25,1.77.33,1.66-.35-.14-.91-1.11-2.74-1.43-3.88-.46-1.65-.82-3.42-.91-5.13-.59-.2-1.15.41-1.59.41-.08,0-1.38-.55-1.38-.62v-3.5c0-.15.94-.88,1.21-.92.51-.08,1.24.48,1.75.6.04-1.71.41-3.52.87-5.17.33-1.18,1.35-3.12,1.46-4.05.08-.64-.97-.1-1.48-.41-.2-.12-.61-1.03-.63-1.29-.05-.77,1.3-2.96,2.1-3.18,1.76-.46,1.05.32,1.81.97.63.55.53-.11.91-.59,1.18-1.49,2.46-2.9,3.86-4.19.39-.36,1.88-1.31,2.03-1.58.35-.63-.9-.94-.97-1.21-.34-1.22.12-1.59,1-2.14s2.85-1.66,3.56-.47c.3.5-.22,1.58.42,1.49,2.8-1.36,5.9-2.19,9.01-2.33.11-.59-.48-1.02-.43-1.58,0-.08.56-1.39.64-1.39.8,0,2.92-.16,3.5,0Z"/>
      <path class="cls-108" d="M63.36,29.24c.29.23.39.62.28,1.18.31-.38.79-.47,1.24-.3.05-.5.25-.8.6-.89.64.61.18,1.91.23,2.84,0,.08.18,1.12.4.55.04-.52.18-.8.42-.85l.21.1c-.02-.69.02-1.49.54-2.01.24,1.28.42,2.98-1.26,3.19-.65.08-2.9.1-3.51,0-.28-.31-.15-.43.21-.21-.08-.73,0-1.37.21-1.91-.3-.42-.3-.85,0-1.27.34-.43.23-.24.42-.42Z"/>
      <path class="cls-77" d="M36.24,78.41c.29-.65.8-.42.85.21l.07.52c-1.74,1.21-2,1.71.14.51l.43.24c.69.15.38,1.03-.21.64.21.34-.32.51-.64.42-.18.17-.39.38-.64.64.02.45-.25.4-.42,0-.17.45-.93.5-1.27.21-.8.05-1.1-.9-.64-1.48-.03-.39.46-1.21.85-.85l-.02-.18c.6-.13.61-.21.02-.25-.18-.37.26-.66.64-.64.07-.07.14-.14.21-.21.24-.05.45.02.64.21Z"/>
      <path class="cls-73" d="M80.32,33.69c.66-.76,2.22-.63,2.12.64.15.31.1.83-.21,1.06.34.19.12.61-.21.64-.25.18-.47.39-.64.64-.1.6-.34,1.42-.85.64l-.27-.13c.67-2.12.58-2.38-.27-.76l-.52.05c-.55.39-1.08-.07-.42-.42-.42.02-.38-.33,0-.42,0-.36.29-.88.64-1.06-.13-.32,0-.87.42-.85.06.02.15,0,.21,0Z"/>
      <path class="cls-132" d="M65.06,29.03c.1.04.37.16.42.21-.3,1.06.53,2.82-.42,3.6-.3-.45.1-2.24-.34-2.34-1.59-.37-.54,2.34-1.25,2.34-.53,0-.37-3.05-.11-3.6.07-.07.13-.14.21-.21.23-.52,1.22-.53,1.48,0Z"/>
      <path class="cls-21" d="M30.94,62.73c.81-.19,3.24-.42,2.38.77-2.22.09-3.02.64-.19.49,1.51,1.2-2.12,1.31-2.83,1.06-.76-.15-1.75-1.33-.85-1.91.06-.06.15-.15.21-.21.2-.41,1-.57,1.27-.21Z"/>
      <path class="cls-54" d="M34.97,61.46v4.87c-.23-.04-.69.08-.82-.03-.3-.24-.53-4.56.29-5.06l.53.21Z"/>
      <path class="cls-18" d="M31.36,62.52c.42.01.85,0,1.27,0,1.31-.92,1.19,2.22.64,2.75-.81.29-2.3.44-2.97,0-.18-.05-.18-.12,0-.21.56-.33,2.78.1,2.96-.32.2-.47-.49-.3-.74-.31-.51-.02-1.61.21-1.6-.53,0-.88,1.51-.68,2.02-.74.29-.04.66-.16.31-.42-.77.02-1.56-.03-2.33,0-.17-.2-.03-.27.42-.21Z"/>
      <path class="cls-137" d="M66.97,94.09c-.25.27-4.77.33-5.06-.02-.11-.13.01-.59-.03-.82.9-.18,1.81.2,2.64.22.54,0,1.94-.59,2.35-.02.11.16.14.59.1.65Z"/>
      <path class="cls-105" d="M50.65,91.12c-.45.19-1.11-.44-1.27-.85-.4-.04-.82-.18-1.27-.42-.4.36-.5.33-.42-.21.07-.45-.9-.97-.11-1.48.54.68,3.79,1.92,4.04,2.32.49.77-.33.9-.96.64Z"/>
      <path class="cls-14" d="M50.22,36.87c.32-.15.79-.5,1.14-.41.3.08.46.63.33.83s-3.75,1.61-4.12,2.34c-.94-.91-.24-.94.53-1.48-.06-.52.8-.78,1.27-.85.14-.29.57-.55.85-.42Z"/>
      <path class="cls-12" d="M37.09,77.56c-.26-.54-.26-1.2.5-1.03.23.05,2.43,3.87,2.41,4.11-.02.2-.59.67-.79.53-.04-.03-.26-.6-.43-.85-.27.17-.65-.55-.64-.85-.48-.49-.93-1.25-1.06-1.91Z"/>
      <path class="cls-18" d="M38.57,47.47c.32-.51,1.63-1.41,1.47-.34-.1.64-2.24,3.14-2.32,4.16-1.04-.41-.68-.38-.63-1.06.03-.28.14-.75.42-.85-.12-.3.31-.73.64-.85-.08-.34.17-.84.42-1.06Z"/>
      <path class="cls-58" d="M94.73,61.46v4.56c0,.07-.35.4-.53.32-.23.04-.45-.15-.51-.35-.05-.17.21-2.54.2-3.15-.02-.98-.8-1.73.84-1.37Z"/>
      <path class="cls-2" d="M36.45,49.16l.08-.34c-3.16-1.27-1.14-3.46,1.26-1.36.04.02-.83-.33-.5-.63h.21c.23-.42.53-.2.64.21.3-.27.35-.16.21.21-.02.06.03.15,0,.21.06.26-.13.78-.42.85.14.27-.33.8-.64.85.1.28-.06.89-.42.85-.03.02-.46.13-.64.21-.6.12-.69-.04-.21-.42-.02-.29.12-.5.42-.64Z"/>
      <path class="cls-18" d="M78.2,36.66c.62.23,1.25.58,1.91,1.06.31-.09.8.33.85.64.76.55.83,1.25-.06,1.02-.21-.05-3.53-2-3.75-2.19-.57-.49.16-.91,1.06-.52Z"/>
      <path class="cls-18" d="M90.28,47.68c.19.06.18.13,0,.21.28.07.43.36.42.64.24.16.54.59.42.85.28-.04.36.19.21.42.15.31.37.6.42.95-.24.32-.49.45-.86.22-.19-.12-2.06-3.59-2.1-3.83-.25-1.41,1.21.29,1.48.54Z"/>
      <path class="cls-108" d="M81.16,89.22c-.15.21-.36.42-.64.64.12.37-.14.5-.42.21-.39.27-.99.59-1.48.64-.01.29-.38.5-.64.42-.69.05-.65.4-1.06-.63,1.49-.52,2.86-1.42,4.16-2.32l.08,1.04Z"/>
      <path class="cls-111" d="M91.34,77.77c-.08.47-.22.97-.64,1.27.1.34-.18.63-.42.85.18.06.18.13,0,.21-.12.26-.31.62-.64.64-.22.82-1.03.13-1.02-.1,0-.16,1.45-2.31,1.69-2.72.19-.31.55-1.36.61-1.41.19-.13.8.08.84.32.01.07-.33.75-.43.95Z"/>
      <path class="cls-7" d="M66.97,34.33h-5.09s-.04-.85,0-.85h4.77c.22,0,.4.6.32.85Z"/>
      <path class="cls-53" d="M95.36,62.09c.14.14.29.27.42.42l-.42.42c.19.04.18.11,0,.21.22.26.29.69.21,1.27.3.31.21.48-.21.42.16.16.16.3,0,.42.29,0,.56.1.28.21.99-.08,1.89,0,2.69.21.07,0,.15-.02.21,0,.12.06.12.13,0,.21-.7.02-1.42-.04-2.12,0-.13.14-.13.28,0,.42.35.06,1.46-.03,1.69.22.56.58-1.55.46-1.8.42-1.78-.34-1.59-3.88-1.17-5.08.18-.09.24,0,.21.21Z"/>
      <path class="cls-38" d="M33.48,61.88c.28.8.37,2.99.12,3.83-.39,1.28-1.98,1.38-3.08,1.26-.03-.86.78-.56,1.27-.63-.05-.26.6-.32.89-.33.05,0-.98.29-.89-.09-.4-.01-1.04.15-1.27-.21l.07-.19c.95.1,1.84.02,2.68-.23.46-.74.11-1.89.21-2.76-.28,0-.57,0-.85,0,.2-.16.43-.28.64-.42-.27-.3-.15-.42.21-.21Z"/>
      <path class="cls-151" d="M62.52,94.73c.21-.02.29,0,.21.21.06.27.05.36-.21.21.16.47.19,1.01,0,1.48.33.11.34.96,0,1.06,0,.07.01.15,0,.21-.32.31-.43.19-.21-.21-.13-.68-.21-1.42-.21-2.12l-.42,2.12c-.56.54-.46-1.35-.42-1.59.13-1.01.38-1.11,1.28-1.37Z"/>
      <path class="cls-30" d="M66.33,94.73c.67.23.97.38,1.07,1.15.03.24.13,2.14-.43,1.6l-.42-1.91v2.75c.18.06.18.13,0,.21-.31-.29-.36-.43-.42-.85.15-.48.18-1.01,0-1.48,0-.41-.04-.87,0-1.27-.27-.25-.14-.25.21-.21Z"/>
      <path class="cls-54" d="M62.09,29.46c.08.1.35-.28.42.42.36.16.3,1,0,1.27.26.44.33,1.01.21,1.7-.06.08-.15.13-.21.21-1.37-.25-1.48-2.1-1.17-3.18.64.55.55,1.35.53,2.12.65-.18.53-2.18.21-2.54Z"/>
      <path class="cls-155" d="M46.2,37.09c.19-.35.46-.16.42.21.27-.37.39-.4.64,0,.28-.43.52-.27.85,0,.19.06.18.13,0,.21.4.12.15.42-.21.42-1.49.82-2.75-.45-2.97-1.91.64-.03.86.72,1.27,1.06Z"/>
      <path class="cls-30" d="M82.44,89.64c.73.13,1.35,1.48,1.17,2.12-.11.05-1.27-1.69-1.17-.63.03.35-.09.54-.32.29l-.95-1.56c-.19-.06-.18-.13,0-.21.24-.25.66-.25,1.27,0Z"/>
      <path class="cls-54" d="M38.36,47.26c-.08-.05-.14-.18-.21-.21-.38-.29-.52-.57-.42-.85-.21-.28-.35-.56-.42-.85-.24-.28-.95-.49-.85-1.06.99.51,2.29.6,2.3,2.02,0,.49-.29.66-.39.95Z"/>
      <path class="cls-155" d="M91.97,49.38c.23.21.51.16.85-.15l.21.15c.21.25.56.25,1.06,0,.1-.03,1.13-.14,1.06.21-.98.34-1.54,1.41-2.7.9-.11-.05-.88-.64-.9-.69-.22-.08-.27-.36,0-.42.12-.37.34-.41.42,0Z"/>
      <path class="cls-112" d="M36.87,77.56c.27.22.42.51.42.85.09.18,0,.24-.21.21-.26-.19-.54-.2-.85-.21l-.42-.42c-.07,0-.23-.25-.51-.21-.49.07-1.23.66-1.61.53-.09-.03-.31-.19-.1-.32,1.34-.82,1.7-1.11,3.28-.42Z"/>
      <path class="cls-68" d="M38.57,80.53c.65,1.62-.74,2.41-2.12,2.75.02-.62.67-.82,1.06-1.27-.06-.28.08-.56.42-.85-.18-.04-.18-.12,0-.21-.19-.33.09-.6.42-.42.07-.19.14-.18.21,0Z"/>
      <path class="cls-18" d="M47.68,89.64c.38.5.07.64-.42.42.14.24.09.49-.21.42-.06.19-.13.18-.21,0-.19.14-.4.21-.64.21-.23.17-1.09,1.04-1.27.85.29-1.42,1.27-2.39,2.75-1.91Z"/>
      <path class="cls-155" d="M66.33,94.73c-.1.02-.2.12-.21.21-.13-.02-.32.03-.42,0-.14.16-.27.1-.42,0,.11.94-.03,1.51-.42,1.7l-.42-.23c.15-1.37-.07-1.65-.64-.83l-.32-.05c.13.77.02,1.35-.32,1.75-.06.19-.13.18-.21,0l-.21-.12c.11-.81.18-1.48,0-2.22-.05-.08-.14-.14-.21-.21,1.09-.32,2.75-.37,3.81,0Z"/>
      <path class="cls-39" d="M91.76,77.99c.04-.78.96-.92,1.57-.84.19.03,1.54.78,1.61.85.4.45-.28.37-.42.42-.53-.22-1.02-.29-1.48-.21-.2.24-.55.17-1.06-.21-.05.18-.12.18-.21,0Z"/>
      <path class="cls-2" d="M90.06,47.05c-.13-1.95.55-1.99,2.12-2.75.14.66-.82.86-1.01,1.11-.11.14-.02.33-.05.37.18.06.18.13,0,.21.28.28.07.57-.64.85.19.6-.06.73-.42.21Z"/>
      <path class="cls-151" d="M50.44,36.24c-.12-.06-.19-.2-.21-.42-.33.05-.54-.46-.21-.64v-.21c.09-.25.09-.53,0-.85-.17-.39-.34-.91.21-1.06.63,1.43,1.51,1.76.21,3.18Z"/>
      <path class="cls-133" d="M78.41,34.75c.39-.04.33.37.21.64.38.21.15.67-.21.85h-.21c-1.26-1.57-.06-1.94.43-3.39.61.37-.12,1.39-.21,1.91Z"/>
      <path class="cls-50" d="M90.49,80.95c.18.02.25.09.21.21.29.29.36.5.21.64.37.9,1.24.62,1.16,1.49-1.14-.28-1.52-.49-2.01-1.49-.32-.77-.25-1.19.21-1.27.36-.04.54.21.21.42Z"/>
      <path class="cls-2" d="M78.41,91.55c.35.49.35.77,0,.85.12.33.19.69.21,1.06.13.37.41.89.11,1.27-.91-1.22-1.78-2.01-.53-3.39.06-.19.13-.19.21,0,.19.06.18.13,0,.21Z"/>
      <path class="cls-2" d="M33.48,61.88c-.07.07-.13.15-.21.21h-.21c-.62-.02-1.04-.16-1.27-.42l1.06-.21c-.71-.02-1.89.04-2.33-.64,1.38.09,2.42-.51,2.97,1.06Z"/>
      <path class="cls-53" d="M50.65,91.34c.34.56.55,1.08.38,1.75-.02.08-.74,1.38-.8,1.43-.62.53-.31-.8-.21-1.06-.17-.35.05-.74.42-.85.09-.41.02-.55-.21-.42-.33-.06-.33-.34,0-.85-.05-.33.23-.23.42,0Z"/>
      <path class="cls-5" d="M95.15,61.88c.55-1.56,1.59-.97,2.97-1.06-.41.65-1.54.61-2.22.63l.53.21c-.03.23-.31.37-.85.42h-.21c-.07-.07-.15-.14-.21-.21Z"/>
      <path class="cls-50" d="M82.65,37.09c.36-.47.48-1.12,1.27-1.06-.7,1.48-.67,1.88-2.33,2.12-.3-.08-.45-.16-.21-.42.06-.36.3-.76.64-.42.21-.12.42-.19.64-.21Z"/>
      <path class="cls-54" d="M34.54,49.38c.41.08.83.23,1.27.42.05-.19.12-.19.21,0,.02.02.06.35.21.42-1.39.67-1.51,0-2.75-.74.16-.17.89-.16,1.06-.1Z"/>
      <path class="cls-54" d="M94.09,45.56c1.32.65,1.22,1.54.21,2.54-.28.23-.4.12-.21-.21l-.15-.45c.89-.91-.18-1.38-1.09-1.17l-.46-.29c-.19-.06-.18-.13,0-.21.07-.18.14-.18.21,0,.3-.41.8-.49,1.48-.21Z"/>
      <path class="cls-70" d="M65.48,97.91c.15-.19.22-.12.21.21-.15.36-1.01,1.2-1.38,1.2-.5,0-1.08-.84-1.38-1.2-.19-.33-.32-.61,0-.85h.21c.35.28.7.63,1.06,1.04.44-.11.86-.25,1.28-.41Z"/>
      <path class="cls-129" d="M98.54,65.27l-.21.42c-.82-.11-2.13.18-2.83,0-.26-.06-.09-.32-.13-.43.87-.15,2.29-.19,3.18,0Z"/>
      <path class="cls-8" d="M96.42,61.67c.75-.1,1.4,0,2.28-.17.42-.08.38.25.27.37-.36.38-2.74.15-3.39.22.19-.12.68-.4.85-.42Z"/>
      <path class="cls-71" d="M80.32,33.69c-.68-.77,1.56-.69,1.76-.64.13.03.52.89.57,1.07-.02.19-.09.26-.21.21-.64-1.41-1.01-.71-2.12-.64Z"/>
      <path class="cls-139" d="M48.74,33.91c.18.07.18.14,0,.21l-.42.21c-.79-.56-1.21-.68-1.91,0-.07.56-.26.54-.42,0,.32-1.71,1.82-1.56,2.75-.42Z"/>
      <path class="cls-38" d="M82.44,92.18c.2-.05.27.02.21.21.17.44-.15.78-.21,1.06-.06.19-.13.18-.21,0-.52-.32-.82-1.46-.85-2.12-.29-.03-.53-.49-.21-.64.06-.19.13-.18.21,0,.42.08,1.1.92,1.06,1.48Z"/>
      <path class="cls-55" d="M33.27,65.27c-.17.26-.15.35-.53.42-.18.03-2.12.03-2.23,0-.35-.09-.15-.32-.21-.42.88.14,2.04-.1,2.97,0Z"/>
      <path class="cls-30" d="M95.79,62.52c.73-.05,2.28-.31,2.81,0,.23.14.12.38.15.42l-.51.34c-.95-.25-1.9-.33-2.88-.34,0-.02-.3-.2-.21-.42.21-.01.42.01.63,0Z"/>
      <path class="cls-100" d="M81.16,89.85c.59.2.62.82.92,1.21.07.1.34.03.36.06.06.07.06.47.21.64.49.37.36.51-.21.42-.32-.31-.87-1.08-1.06-1.48-.56-.4-.63-.68-.21-.85Z"/>
      <path class="cls-48" d="M91.97,77.99c.8.26,1.36.69,1.7,1.27.19.06.18.13,0,.21-.05.09-.11.17-.19.22-.1.05-1.72-.92-1.93-1.06-.26.26-.3.14-.21-.21-.17-.07-.17-.14,0-.21.14-.04.3-.19.42-.21.07-.01.14,0,.21,0Z"/>
      <path class="cls-93" d="M50.22,92.18c-.06.21-.2.42-.42.64.18.05.18.12,0,.21-.25.46-.53.74-.85.85l-.21-.21c.02-.43.26-1.04.64-1.27.04-.42.4-1.21.85-1.06-.05.25.07.65,0,.85Z"/>
      <path class="cls-99" d="M91.55,81.59c.27.04.55.11.85.21.04-.19.11-.18.21,0,.39.1.59.17.21.42.02.14-.01.29,0,.42-.47-.27-1.38-.53-1.91-.85-.07-.18-.3-.34-.21-.64.3-.07.75.13.85.42Z"/>
      <path class="cls-158" d="M46.41,93.46c.7.05,1.19.26,1.48.64.31-.28.43-.15.21.21-.91.44-1.79.48-2.04-.64-.06-.27.13-.4.13-.42.09-.07.16,0,.21.21Z"/>
      <path class="cls-124" d="M98.96,65.06c-.28.07-.37.04-.21-.21-.17-.24-.14-.57.1-.98-.3-.36-.34-.67-.1-.92.04,0,.26-.19.42-.09.89.56.57,1.71-.21,2.21Z"/>
      <path class="cls-140" d="M62.94,97.27c0,.28,0,.57,0,.85-.13-.15-.28-.29-.42-.42.04-.33-.01-.72,0-1.06.18-.48.15-1,0-1.48.01-.1.11-.19.21-.21.38.66.21,1.56.21,2.33Z"/>
      <path class="cls-64" d="M98.75,64.85c.09,0,.25.09.21.21-.1.06-.34.2-.42.21-.94.15-2.19-.11-3.18,0-.02-.05-.19-.09-.17-.26.01-.08.14-.11.17-.16.99-.07,2.03-.2,3.11-.4l.28.4Z"/>
      <path class="cls-114" d="M93.03,78.2c.32-.26.43-.15.21.21.39.06.74.27,1.06.64.19.06.19.13,0,.21v.21c-.12.27-.5.01-.64-.21-.58-.38-1.25-.72-1.7-1.27.27,0,.83.1,1.06.21Z"/>
      <path class="cls-95" d="M29.46,63.15c-.57,1.13.43,1.32.85,1.91.03.05-.03.16,0,.21-.72-.12-1.8-1.28-1.29-1.99.16-.22.42-.1.44-.13Z"/>
      <path class="cls-69" d="M31.79,61.67c.21.02,1.04.29,1.27.42h-2.75c-.67-.51,1.27-.45,1.48-.42Z"/>
      <path class="cls-35" d="M65.69,94.94c-.19.84.29,2.48,0,3.18l-.21-.21-.37-.37.16-2.6c.29-.37.23-.06.42,0Z"/>
      <path class="cls-156" d="M66.12,31.36c-.03-.84-.14-2.1.78-2.5.16-.07.77-.19.7.17-.7-.04-.84.3-1.06.85-.01.7-.15,1.19-.42,1.48Z"/>
      <path class="cls-49" d="M33.91,80.32c.06.71-.14,1.03.64,1.48.19.06.18.13,0,.21-1.28-.34-1.23-.66-.85-1.91.32-.33.46-.19.21.21Z"/>
      <path class="cls-83" d="M81.59,36.66c.26.3.19.65-.21,1.06.03.13.16.28.21.42-.14.02-.29-.02-.42,0-.27.1-.91-.33-.64-.64-.2-.05-.19-.12,0-.21.42.02.62-.35.85-.64.06-.19.13-.18.21,0Z"/>
      <path class="cls-141" d="M38.14,79.47c-.06.19-.13.18-.21,0-.61.18-1.08-.6-.64-1.06-.14-.28-.28-.57-.42-.85h.21c.2.4.82,1.52,1.06,1.91Z"/>
      <path class="cls-44" d="M79.47,33.91c.46-.08.26.4,0,.64-.05.34-.26.81-.64.64.16.29.08.39-.21.21-.26-.03-.25-.44-.21-.64.56-.16.49-.97,1.06-.85Z"/>
      <path class="cls-30" d="M49.38,92.4c-.24.38-.39.92-.64,1.27-.2.29-.28.46-.64.64-.08-.04-.17-.21-.21-.21-.02-.71.74-1.55,1.27-1.91.3-.28.41-.16.21.21Z"/>
      <path class="cls-27" d="M79.04,36.87c.53-.41,1.42.23,1.06.85-.68,0-1.37-.83-1.91-1.06l.21-.21c.35-.33.61,0,.64.42Z"/>
      <path class="cls-47" d="M49.38,37.09c.15.06.14.13,0,.21-.32.18-.94.61-1.27.85l-.21-.21c.07-.04.14-.39.21-.42.02-.65.87-.93,1.27-.42Z"/>
      <path class="cls-139" d="M49.8,35.81c.32.2.46.2.42,0,.06.12.23.23.21.42-.12.13-.29.32-.42.42,0,.24-.23.35-.42.21-.51.26-.75.09-.42-.42.04-.25.13-.45.42-.42-.29-.33-.17-.45.21-.21Z"/>
      <path class="cls-98" d="M66.54,31.79c-.02.15-.32.66-.42.85.04-.41-.05-.87,0-1.27.04-.35.28-1.12.42-1.48-.05.62.07,1.31,0,1.91Z"/>
      <path class="cls-37" d="M92.82,82.65c.68.39.38,1,.42,1.69-.56.74-.4-1.52-.42-1.69Z"/>
      <path class="cls-88" d="M94.3,79.47c.31.21.56.47.64.85-.02.21-.09.35-.21.42-.53.2-1.27-.78-1.06-1.27v-.21c.12.08.44.07.64.21Z"/>
      <path class="cls-150" d="M94.94,80.32c.26,1.3.12,1.38-.85,1.7-.27.06-.33.04-.21-.21.13-.41.37-1,.85-1.06.04-.17-.01-.37.21-.42Z"/>
      <path class="cls-158" d="M63.57,29.03s-.05-.27.05-.37c.38-.39,1.6-.31,1.44.37-.53-.19-.95-.23-1.48,0Z"/>
      <path class="cls-36" d="M34.12,48.32c.11.65-.18.33-.52.43-1.92.54-.76-.67.52-.43Z"/>
      <path class="cls-67" d="M37.3,81.8c-.24.26-1.24,1.01-1.48.85-.07-.19.21-.39.21-.42-.23-.41.52-.66.85-.64.06-.19.13-.19.21,0,.18-.09.24,0,.21.21Z"/>
      <path class="cls-49" d="M31.36,62.52l-.42.21c-.44.02-.85.06-1.27.21.06-.05-.22-.44.58-.58.71-.13,1,.16,1.12.16Z"/>
      <path class="cls-128" d="M50.65,91.12v.21c-.13-.02-.31.03-.42,0-.4.38-.45.33-.42-.21-.63.06-.84-.15-.64-.64-.28-.3-.16-.41.21-.21.37.21.97.72,1.27.85Z"/>
      <path class="cls-49" d="M37.09,45.56c.34-.08.61.36.42.64-.14.34-.54.1-.64-.21-.37.31-.51-.06-.64-.42-.07.18-.14.18-.21,0v-.42c.23.14.71.21,1.06.42Z"/>
      <path class="cls-32" d="M94.51,48.74c-.19.05-.43.34-.64.42-.12.44-.9.86-.85.21.13-.38.48-.73,1.06-1.06.05-.19.12-.19.21,0,.4.07.51.12.21.42Z"/>
      <path class="cls-17" d="M45.99,35.39c.29-.3.41-.17.21.21.44.02.44.57.21.85-.06.19-.13.18-.21,0-.1-.38-.64-.9-.85-1.27-.19-.06-.18-.13,0-.21.11.04.56.34.64.42Z"/>
      <path class="cls-17" d="M82.65,91.76c.21.24,1.02.63,1.06.74.21.64-.94-.02-1.06-.11-.07-.05-.14-.14-.21-.21l.21-.42Z"/>
      <path class="cls-123" d="M92.18,45.77c.08-.39.77-1.57,1.06-1.27.12.12-.13.49-.21.63.11.19-.03.41-.42.64-.07,0-.14,0-.21,0-.07.19-.14.19-.21,0Z"/>
      <path class="cls-116" d="M93.88,81.8s.13.17.21.21c-.41.13-.72.35-1.27.21-.01-.1-.15-.29-.21-.42.14-.61,1.18-.65,1.27,0Z"/>
      <path class="cls-101" d="M82.44,89.64c-.27-.05-.98-.04-1.27,0,.07.63-.27.62-.64.21-.16-.34.37-.64.64-.64.07,0,1.11.3,1.27.42Z"/>
      <path class="cls-61" d="M92.18,45.77c.07,0,.14,0,.21,0v.21c.19.05.18.12,0,.21-.31.27-.59.34-.85.21-.5.25-.71.09-.42-.42.03-.05-.03-.16,0-.21.35,0,.71.01,1.06,0Z"/>
      <path class="cls-82" d="M46.41,34.33c.55.1.74,1.02.21,1.27-.04.56-.23.52-.42,0-.05-.09-.14-.14-.21-.21.2-.27-.02-.95,0-1.06h.42Z"/>
      <path class="cls-62" d="M94.51,78.41c-.15.05-.37-.02-.42.21-.23.01-.51-.06-.85-.21-.06-.03-.12-.16-.21-.21-.19-.89,1.07-.03,1.48.21Z"/>
      <path class="cls-72" d="M62.94,30.94c-.07.39-.14.57-.42.21-.01-.41.04-.87,0-1.27.11-.08.36-.13.42-.21,0,.42,0,.85,0,1.27Z"/>
      <path class="cls-137" d="M90.7,47.26c.51-.02.49.03.21.42.28.29.17.4-.21.21,0,.44-.18.29-.42,0-.02-.06.02-.14,0-.21-.05-.19-.21-.54-.21-.64.22.07.36-.19.42-.21.07-.1.14-.1.21,0,.33.1.25.22,0,.42Z"/>
      <path class="cls-76" d="M79.04,36.03c.06.38-.18.49.42.42.38.48.11.7-.42.42-.2-.14-.46-.27-.64-.42-.07-.07-.15-.14-.21-.21h.21c.23-.53.44-.6.64-.21Z"/>
      <path class="cls-51" d="M34.97,48.32c.35.5-.2.58-.42,0-.02-.06-.64-.42-.85-.85l.21-.21c.62-.17,1.22.44,1.06,1.06Z"/>
      <path class="cls-163" d="M35.81,82.86c-.49.49.47,1.63-.42,1.48.13-.39-.38-1.65.42-1.48Z"/>
      <path class="cls-38" d="M66.54,98.33c.45.13,1.12.15,1.27.63-.59.06-.87-.04-1.27-.42v-.21Z"/>
      <path class="cls-50" d="M49.16,32.64c.11.72.13.82.42,1.48.06.2,0,.27-.21.21-.32.16-.58-.34-.42-.64-.04-.18-.04-1.09,0-1.27.32-.31.43-.19.21.21Z"/>
      <path class="cls-123" d="M34.54,79.26c.2-.06.27.01.21.21-.33.23-.58.56-.85.85,0-.1-.11-.19-.21-.21.03-.08.35-.71.42-.85-.14-.13-.07-.2.21-.21.32-.3.44-.16.21.21Z"/>
      <path class="cls-38" d="M79.89,94.51c-.14.36-.23.93-.63,1.06.2-.76.28-.95,0-1.7.06-.19.13-.18.21,0,.34-.05.44.33.42.64Z"/>
      <path class="cls-9" d="M49.8,93.03c.18.07.18.14,0,.21-.13.36-.34.8-.64,1.06-.08.14-.15.07-.21-.21.01-.07-.02-.15,0-.21.03-.13.58-1.09.85-.85Z"/>
      <path class="cls-57" d="M78.83,93.03c.11.06.11.13,0,.21l-.21.21c-.04-.11-.35-.26-.4-.58s.18-.45.19-.48c.28-.46,1.05.31.42.64Z"/>
      <path class="cls-152" d="M46.62,91.97c.65.15.28,1.23-.21,1.48-.03-.07-.16-.13-.21-.21-.04-.57-.01-.75,0-1.27.07-.56.26-.54.42,0Z"/>
      <path class="cls-31" d="M94.3,48.32c.42-.03.85.02,1.27,0v.42c-.32.05-.78-.07-1.06,0-.06-.14-.15-.28-.21-.42Z"/>
      <path class="cls-111" d="M83.07,35.6c-.22.25-.26.84-.64,1.06-.06.19-.13.18-.21,0-.41.03-.33-.24,0-.42-.06-.33.22-.93.64-.85.2-.06.27.01.21.21Z"/>
      <path class="cls-131" d="M90.28,80.1c.28.14.3.31,0,.42-.05.3-.41.78-.21,1.27-.09-.19-.42-.96-.42-1.06,0-.24.3-.81.64-.64Z"/>
      <path class="cls-106" d="M82.86,35.39c-.21.22-.33.65-.64.85-.26.17-.26.08-.21-.21.08-.2.15-.43.21-.64.17-.38.31-.45.42-.21.02.09.16.15.21.21Z"/>
      <path class="cls-128" d="M35.6,49.59c.3-.32.43-.18.21.21-1.04-.01-.76-.28-1.27-.42.17.02.2-.05.21-.21.3-.05.74.1.85.42Z"/>
      <path class="cls-62" d="M94.09,49.38c-.23.07-.74.7-1.16.64-.12-.02.08-.61.1-.64.01-.02.25.17.42.07.14-.09.31-.23.42-.28l.21.21Z"/>
      <path class="cls-81" d="M62.09,29.46c-.11-.13-1.5-.48-1.06-.85.48-.39.97.74,1.06.85Z"/>
      <path class="cls-56" d="M62.09,98.54c-1.06.96-1.73.05-.21-.21.4-.28.52-.16.21.21Z"/>
      <path class="cls-136" d="M79.89,33.48c.17.37-.17.58-.42.21v-1.27c.06-.14.13-.13.21,0,.23.46.12.72.21,1.06Z"/>
      <path class="cls-115" d="M36.87,81.59c-.25.13-.52.53-.85.64-.01-.27-.21-.2-.21-.21-.6-.05-.52-.16,0-.42.13-.03.31.03.42,0,.08-.25.22-.41.42-.21.31-.1.37-.09.21.21Z"/>
      <path class="cls-43" d="M80.1,33.69c0,.36-.3.58-.42.85-.06.18-.13.18-.21,0v-.85l.42-.21c.05.18.05.17.21.21Z"/>
      <path class="cls-99" d="M35.81,43.44c.04.3-.38,1,0,1.48-.56-.48-.76-1.59,0-1.48Z"/>
      <path class="cls-83" d="M98.54,65.69c.4.12.79.74.85,1.16-.58.46-.48-.76-.85-.95v-.21Z"/>
      <path class="cls-103" d="M36.24,78.41s-.4.49-.64-.21c.07-.07.14-.15.21-.21.13.02.89-.43.42.42Z"/>
      <path class="cls-148" d="M35.39,78.41c-.23.22-.42.38-.64.64.06.2,0,.28-.21.21-.06-.05-.12-.19-.21-.21.21-.32.37-1.02,1.06-.64Z"/>
      <path class="cls-98" d="M94.09,78.62c.19.21.14.21.21.42-.8-.15-.75-.47-1.06-.64.26-.27.64-.01.85.21Z"/>
      <path class="cls-3" d="M45.35,34.97v.21l-1.48-.21c.56-.1.91-.2,1.48,0Z"/>
      <path class="cls-162" d="M38.78,80.32c-.08.05-.14.18-.21.21-.06.03-.17-.03-.21,0-.37.03-.51-.25-.42-.85-.19-.06-.19-.13,0-.21h.21c.1.16.45.59.64.85Z"/>
      <path class="cls-89" d="M83.5,34.97c.37-.16.57-.34,1.06-.21.15.72-.41.3-.85.42-.35.14-.41.13-.21-.21Z"/>
      <path class="cls-159" d="M34.97,48.32c.36-.37.7,0,.42.42.25.23.11.3-.42.21-.06.19-.13.18-.21,0-.2-.46-.14-.44-.21-.64l.32.21.1-.21Z"/>
      <path class="cls-113" d="M48.95,32.42c.06-.26.57-.73.85-.85l-.63,1.06c-.01-.1-.11-.19-.21-.21Z"/>
      <path class="cls-162" d="M91.34,78.2c0,.07.02.16,0,.21.28.55.23.85-.42.64-.06.19-.13.18-.21,0,.2-.48.44-.85.64-1.27,0,.14,0,.28,0,.42Z"/>
      <path class="cls-107" d="M37.51,82.01c-.07-.07-.14-.14-.21-.21s-.15-.14-.21-.21c.14-.38.45-.46.85-.42.01.68-.15.53-.42.85Z"/>
      <path class="cls-96" d="M46.62,37.3c-.12-.05-.34-.14-.42-.21-.03-.2.05-.47,0-.64h.21c.43,0,1.02.93.21.85Z"/>
      <path class="cls-157" d="M50.44,92.61c-.14.4-.35.65-.42.85l-.21-.21c.02-.06-.02-.15,0-.21s-.02-.15,0-.21c.26-.43.84-.89.64-.21Z"/>
      <path class="cls-47" d="M94.09,45.56c-.53-.17-1.09.17-1.48.21-.09-.4.36-.53.42-.64.3.24.66.23,1.06.42Z"/>
      <path class="cls-110" d="M81.16,38.14c-.1.01-.18.12-.21.21-.36-.26-.46-.22-.85-.64-.12-.55.01-.6.42-.21.09.28.45.43.64.64Z"/>
      <path class="cls-26" d="M35.81,82.01c-.48.2-.79.13-1.27,0v-.21c.49.12.86-.12,1.27-.21.02.13-.04.32,0,.42Z"/>
      <path class="cls-11" d="M29.67,66.33c.26,1.22-1.17,1.35-.21,0h.21Z"/>
      <path class="cls-16" d="M82.65,37.09c-.17.22-.3.47-.53.63l-.1-.42c-.31-.29-.21-.59.21-.64h.21l.21.42Z"/>
      <path class="cls-9" d="M46.83,90.49c.13.2-.09.78-.42.64-.06.19-.13.18-.21,0,.02-.13-.02-.29,0-.42.17-.13.16-.59.64-.21Z"/>
      <path class="cls-66" d="M29.46,61.67c-.09-.47-.41-.85.21-1.06-.01.46.39.9-.21,1.06Z"/>
      <path class="cls-7" d="M81.8,94.3c.36-.27.48-.16.21.21-.33.19-.93.14-1.27,0-.32-.32-.19-.46.21-.21.15-.62.71-.63.85,0Z"/>
      <path class="cls-84" d="M31.79,65.91c.25,0,1.06-.09,1.06.11-.24.28-.72.26-1.06.32v-.42Z"/>
      <path class="cls-139" d="M34.33,79.04c-.05.08-.17.14-.21.21-.56.08-.81.02-1.27-.21-.28-.3-.16-.41.21-.21.57.21.88.11,1.27.21Z"/>
      <path class="cls-63" d="M38.14,48.53c-.3.28-.41.16-.21-.21.12-.21.33-.63.42-.85h.21c-.12.19-.23.72-.42,1.06Z"/>
      <path class="cls-158" d="M82.01,94.51c-.02-.1-.11-.2-.21-.21-.31-.49-.14-.79.42-.85h.21c-.11.48.2.69-.42,1.06Z"/>
      <path class="cls-72" d="M46.62,91.55c.19.05.19.12,0,.21.19.04.18.11,0,.21h-.42c0-.25-.1-.31,0-.85h.21c.33-.08.37.15.21.42Z"/>
      <path class="cls-87" d="M37.51,49.38c-.12.21-.06.67-.42.85,0-.04-.16-.15-.21-.21.14-.12.28-.64.42-.85.3-.28.41-.16.21.21Z"/>
      <path class="cls-51" d="M44.5,92.4c.43-.06.85-.11,1.27-.21-.06.29-.61.6-.85.63-.43-.06-.57-.2-.42-.42Z"/>
      <path class="cls-102" d="M49.38,34.33c.06.2-.01.27-.21.21-.06.19-.13.18-.21,0-.54.17-.58,0-.21-.42,0-.07,0-.14,0-.21,0-.03.17-.13.21-.21,0,.04.32.44.42.64Z"/>
      <path class="cls-83" d="M44.5,92.4l.42.42c-.4.06-.96.01-1.06-.42.21-.02.44.03.64,0Z"/>
      <path class="cls-50" d="M78.83,93.03c.38-.67.57.14.64.64.19.05.19.13,0,.21h-.21c-.08-.2-.33-.42-.42-.64v-.21Z"/>
      <path class="cls-126" d="M49.8,34.33c.35.1.54.41.21.64v.21c-.41.12-.7-.45-.64-.85.08-.06.14-.14.21-.21.03.07.17.13.21.21Z"/>
      <path class="cls-41" d="M50.22,36.87c-.22.11-.66.32-.85.42v-.21c-.27-.31-.15-.43.21-.21.13-.08.31-.13.42-.21l.21.21Z"/>
      <path class="cls-87" d="M78.62,90.7c.35-.15.41-.13.21.21.12.42,0,.68-.42.42-.04.03-.18-.04-.21,0-.06-.06-.17-.22-.21-.21.1-.38.46-.32.64-.42Z"/>
      <path class="cls-150" d="M49.16,94.3c.06.35-.03.7.21,1.06h-.42c.04-.4-.06-.88,0-1.27.1.03.2.11.21.21Z"/>
      <path class="cls-131" d="M50.01,34.12c.13.31.97.88,0,.85-.02-.23-.11-.43-.21-.64l.21-.21Z"/>
      <path class="cls-9" d="M34.97,48.95c.62-.12,1.47.3.64.64-.28-.13-.61-.16-.85-.42,0-.07.02-.17,0-.21h.21Z"/>
      <path class="cls-40" d="M82.65,35.18l-.42.21c.12-.36.12-.74.21-1.06.03-.09.12-.17.21-.21.07.29-.06.75,0,1.06Z"/>
      <path class="cls-150" d="M66.12,97.69c-.06-.42,0-1.02,0-1.48.35.27.35,1.22,0,1.48Z"/>
      <path class="cls-65" d="M62.52,97.91c-.06.26-.23.46-.42.64.04-.13-.12-.23-.21-.21l.42-.64c.02.1.11.18.21.21Z"/>
      <path class="cls-133" d="M79.68,32.42h-.21l-.63-.53.11-.11c.35-.01.6.36.74.64Z"/>
      <path class="cls-3" d="M83.71,35.18c-.09.02-.57.35-.64.42-.06-.08-.16-.14-.21-.21.22-.22.35-.3.64-.42l.21.21Z"/>
      <path class="cls-150" d="M99.39,61.24h-.42c-.12-.12.3-1.1.42-.85v.85Z"/>
      <path class="cls-11" d="M29.46,66.33c.78-1.11,1.26-.24.21,0h-.21Z"/>
      <path class="cls-52" d="M80.1,94.09c-.19.09-.16.28-.21.42-.14-.2-.33-.42-.42-.64-.03-.06.03-.16,0-.21.06-.19.13-.18.21,0,.17-.29.49.15.42.42Z"/>
      <path class="cls-32" d="M94.3,48.1c.02.06-.03.15,0,.21-.07,0-.14,0-.21,0-.16.26-.42.48-.64.21-.85-.1.12-1.38.64-.64.05.08.19.15.21.21Z"/>
      <path class="cls-153" d="M33.06,78.83l-.21.21c-.25-.12-.56-.36-.64-.63.39-.12.54.31.85.42Z"/>
      <path class="cls-99" d="M80.32,93.88c.11.06.11.13,0,.21h-.21l-.42-.42c-.18-.06-.17-.13,0-.21-.17-.28-.09-.38.21-.21.55-.29.78.16.42.64Z"/>
      <path class="cls-150" d="M94.3,79.04c.27.05,1.27-.12,1.27.11l-1.27.11c-.02-.07.02-.15,0-.21Z"/>
      <path class="cls-79" d="M37.72,46.2c-.06.19-.13.18-.21,0,.07-.35-.16-.47-.42-.64l.21-.21c.46.54.25.49.42.85Z"/>
      <path class="cls-80" d="M91.55,49.38c0,.13-.03.35,0,.42h-.21c-.06-.14-.14-.29-.21-.42-.12-.33-.11-.39.21-.21.15-.01.22.06.21.21Z"/>
      <path class="cls-81" d="M80.95,94.3c-.1.01-.19.11-.21.21-.21-.09-.35-.2-.42-.42v-.21c.37-.55.91-.19.64.42Z"/>
      <path class="cls-4" d="M96.42,65.91v.42c-.28-.05-.58-.08-.64-.42.21-.01.42,0,.64,0Z"/>
      <path class="cls-7" d="M34.33,46.2c.09.29-.23.42-.21.38.29-.42.36.66-.22.68-.03.15-.02.23-.21.21.04-.7-.25-1.29.42-1.7.53-.17.64.04.21.42Z"/>
      <path class="cls-150" d="M35.6,45.56c.29.34.17.46-.21.21.09.59-.69.83-1.06.42l-.21-.42c.49-.29.96-.2,1.48-.21Z"/>
      <path class="cls-65" d="M36.03,45.56c.07.01.15-.02.21,0,.29.26.47.54,0,.64-.25.62-1.32.23-.85-.42.09-.02.17-.12.21-.21.05,0,.4,0,.42,0Z"/>
      <path class="cls-80" d="M44.93,65.06l.43-.27c2.48,1.55,5.29,2.48,8.42,2.77.53.11.56.43.47.92-1,1.29-4.89,7.43-3.28,8.73s7.1-2.26,8.58-3.33c.34-.24.67-.39,1.06-.14.23.15,1.27,4.68.86,5.25l.75.57c1.18,2.45,2.66,4.36,4.39,1.03,1.03-1.98,1.46-4.41,1.82-6.59.16-.56.48-.71,1-.45,2.21,1.69,4.62,2.83,7.25,3.43.78-.11,1.43-.06,1.96.15.06-.19.13-.18.21,0,.23.5,2.53,2.87,2.53,3.07,0,.1-.61.57-.73.74-.53-.41-2.71-2.54-3.18-2.55-1.47-.02.92,2.4.91,2.66l-.49.53-2.12-2.11c-.14.17-.45.34-.49.56-.12.58,3.85,7.33,3.53,7.88-.04.07-.62.27-.75.43l-5.08-6.72-.5.07c-.2.61.83,2.56.11,2.86-.45.18-.42,0-.58-.26-.22-.35-.72-2-.8-2.06-.12-.08-.78.29-1.05.21.01.68,1.13,3.98.32,4.23-.38.12-.52-.06-.7-.36-.31-.52-.96-3.34-1.1-3.46-.07-.06-.5,0-.65.09-.43.32-.1,2.25-.2,2.87-1.43.65-1.01-2.5-1.28-2.75-.03-.03-.81-.03-.84,0-.31.31-.39,7.6-.64,8.69h-1.27s-.67-8.23-.67-8.23c-1.4-1.05-1.19,2.03-1.47,2.28-.03.03-.8.04-.83.01-.12-.11.02-2.35.21-2.75-.27.08-.95-.29-1.06-.21-.16.12-1,3.6-1.29,3.81-.12.08-.78-.29-1.05-.21-.15-.14.88-3.44.8-3.93-.26-1.67-1.98,2.11-2.39,2.02-.77-.17,1.28-4.87-.63-2.74-1.51,1.69-2.8,4.48-4.3,6.29-.18.65-1.5-.31-1.07-.84.32-1.18,3.35-6.3,3.29-7.05-.02-.19-.42-.55-.65-.51-.39.06-1.47,1.77-1.93,1.68-1.14-.24,1.97-2.98.42-3.13-.34-.03-2.34,1.99-2.97,2.3-.55.27-.87-.38-.65-.86.4-.85,3.14-2.46,1.7-3.37-.63.32-2.2,2.08-2.65.92l1.7-1.68.1-.75-7.68,3.35c-.64.3-.92-.84-.38-1.24.8-.74,6-3.82,6.22-4.37.69-1.72-2.71.39-2.93-.61-.14-.61,1.76-.95,2.01-1.37.11-.18.17-.78.1-.85-.25-.25-3.57.69-4.24.42.04-.25-.08-.63.03-.82.1-.17,3.27-1.18,3.78-1.3.23-1.65-2.85-.5-2.97-.63.04-.24-.07-.99,0-1.06.24-.23,3.41.17,2.33-1.27.04-.19.11-.18.21,0Z"/>
      <path class="cls-150" d="M63.36,44.5c0-.58.99-.56,1.41-.41,1.64.58,2.41,2.76,2.94,4.29.48,1.38.77,2.83,1.05,4.26l3.51-2.11c.47-.8,1.25-1.22,2.34-1.25.89-.19,2.38-.47,2.96.09.07-.01.16.02.21,0,1.2-.42,1.23,2.26,1.1,3.04-.78,2.3-1.89,4.5-3.34,6.59,2.49.35,4.99.88,7.24,2.04.65.34.89.58.93,1.25.12.06.32.05.42.21.98.92.08,2.09-.83,2.76-.98.41-1.76.99-2.34,1.74-1.79,0-3.56.39-5.17,1.06l3.12,5.35c.31.72.99,2.48.13,2.87,0,.29-.14.57-.42.85-2.2,1-5.37-.77-7.35-1.87-.82-.46-1.54-1.12-2.4-1.52-.22,2.33-2.21,12.42-5.93,7.94-.51-.62-.68-1.3-1.06-1.85-.19-.28-.71-.31-.83-.73-.14-.49.18-.92.14-1.39-.08-1.02-1-2.56-.8-3.76-.14-.17-3.07,1.94-3.46,2.15-1.33.74-5.89,3.12-6.62.82-.77-2.46,2.38-6.89,3.72-8.91-2.64-.42-5.19-.92-7.64-2.01-.46-.21-1.12-.87-1.47-.96-1.41-.59-.35-2.49.6-3.14,2.26-1.46,4.94-2.04,7.53-2.58-.8-1.52-1.82-2.83-3.03-3.91-.03-1.43-.34-2.76-.77-4.17l.34-.39c.08-.12.12-.32.21-.42-.35-.5.25-.85.73-.95s1.77-.06,2.32.03c2.35.77,4.62,1.82,6.8,3.16.45-2.8.97-5.77,2.9-7.97l.8-.2Z"/>
      <path class="cls-80" d="M63.15,44.5c.04-1.02.34-8.59.77-8.7.29-.08.8.07,1.14.01l.64,8.48c1.79.45.59-2.99,2.33-2.55.23.75-.41,2.01-.23,2.63.05.16.76.31.87.24.38-.21,1.23-3.53,1.48-3.72.03-.02.78.2.81.23.29.3-.64,3.37-.56,3.91.05.33.51.39.8.21.36-.23.96-2.16,1.06-2.23.14-.1.62.23.84.22.17.23-.84,2.4-.85,2.83,0,.13.62.36.72.35.38-.03,3.56-5.52,4.28-6.35.63-.71,1.06-.95,1.55.05l-3.37,7.26c.59,1.6,2.08-1.5,2.76-1.07.97.61-2.05,2.21-.64,3.07-1.1.16-3.44.24-4.46.74-.27.13-.31.56-.58.75-1.25.87-2.85,1.55-4.08,2.54-.32-2.16-1.42-7.25-3.18-8.58-.78-.59-1.16-.31-1.9-.32h-.21Z"/>
      <path class="cls-80" d="M84.13,62.52l8.27.63v1.27s-8.48.64-8.48.64c-.63,1.36,2.32,1.26,2.53,1.5.03.03.04.8.01.83-.25.27-2.63-.28-2.74-.2-.07.05-.29.98-.22,1.05.12.13,2.93.79,3.39,1.17.24.2.3.86.21.95-.33.34-3.71-.73-4.04-.53-.1.06-.44.71-.41.74.56.1,3.21,1.22,2.33,1.91-.48.38-2.93-1.66-3.18-.1.73.75,6.93,4.44,6.96,4.87.01.15-.5,1.31-.87.92l-7.05-3.35-.52.32c-.2.73,1.54,1.56,1.69,2.32-.18.86-2.21-.71-2.75-.95-.3.32-.43.18-.21-.21.17-.78-.31-2.14-.6-2.9l-3.43-5.79c1.43-.04,3.05-.82,4.37-.99.4-.05.83.33,1.36.05.27-.14.32-.57.48-.68.82-.6,2.62-1.09,2.87-2.34.09-.43-.21-.86.03-1.11Z"/>
      <path class="cls-80" d="M44.71,65.06l-8.27-.63v-1.27s8.22-.67,8.22-.67l.25-.81c-.94-.43-2.91-.12-2.54-1.48.48-.25,2.65.31,2.75.21.03-.03.15-.82.13-.86-.26-.35-2.75-.94-3.37-1.3-.57-.33-.3-1.01.17-1.04.61-.04,4.76,1.28,3.82-.2-.17-.28-1.56-.75-1.96-1-.26-.16-.45-.11-.27-.58.24-.62,2.05.28,2.6.37.18.03.48.26.58-.16.1-.45-.13-.48-.35-.71-1.48-1.51-4.62-2.82-6.3-4.3-.65-.23-.11-1.26.36-1.22,2.15.57,5.44,3.05,7.46,3.36.39.06.51-.43.42-.64-.15-.34-1.8-1.61-1.8-1.8,0-.09.46-.52.7-.5.69.06,1.55,1.6,2.26,1.03l.81,3.13c-.26,1.29-.02,1.48,1.07,2.08l2.35,3.68c-1.93.02-8.42,1.68-9.02,3.59-.19.61-.07,1.12.12,1.71-.06-.02-.14.01-.21,0Z"/>
      <path class="cls-80" d="M49.8,50.44c-.21-.64-2.32-2.69-2.28-3.08,0-.1.28-.39.38-.43.68-.33,2.86,2.36,3.31,2.43.22.04.65-.33.66-.51.03-.36-1.35-1.79-1.41-2.16-.03-.24.43-.7.5-.7.33,0,1.43,1.84,1.8,2.02.34.17.77-.19.79-.43.04-.52-3.2-6.2-3.51-7.26-.18-.48.12-.92.59-1.03.69-.16,4.27,6.46,5.09,6.81.13.05.61-.1.63-.13.37-.48-.71-2.63-.62-2.74.03-.03.68-.23.85-.12.47.29.66,1.91,1.06,2.15.19.12.77-.07.82-.15.18-.29-.45-3.41-.61-4,.28,0,.86-.34,1.05-.21.16.12,1.13,3.68,1.28,3.81.07.06.5,0,.65-.09.6-.44-.07-2.17.01-2.54s.99-.5,1.03-.2c.13.87.22,1.74.45,2.6.27.07.55.01.82.02.07,0,.14,0,.21,0-2.41,2.16-2.9,5.85-3.39,8.9-1.75-.76-3.24-1.98-5.01-2.72-1.38-.58-3.98-1.59-5.16-.24Z"/>
      <path class="cls-80" d="M77.77,49.38c.48-.16,2.67-2.52,3.07-2.51.06,0,.39.31.44.39.33.66-2.45,2.99-2.4,3.5.13,1.29,2.42-.94,2.81-.9.11.01.52.44.52.48,0,.15-2.11,1.97-2.11,2.12,0,.04.4.46.52.47.63.06,7.08-3.87,7.7-3.51.07.04.27.62.43.75l-6.65,4.94c-.06,1.65,2.64-.5,3.08.54.19.45.02.43-.27.58-1,.52-2.61.44-1.85,1.86.54-.23,3.81-.85,4.02-.64.09.09.03.75-.21.95-.46.39-3.28,1.03-3.39,1.17-.06.07,0,.5.09.65.34.47,2.72.04,2.87.2.03.03.02.8-.01.83-.08.08-1.84.3-2.25.41-.54.14-.56-.09-.49.67-.25-.13-.64-.63-1.13-.88-2.41-1.24-5.1-1.74-7.77-2.09.71-1.56,1.92-2.89,2.66-4.44.78-1.63,1.92-4.09.31-5.52Z"/>
      <path class="cls-52" d="M79.26,76.5c-.14.13-.32.58-.42.64-.05.03-.15-.03-.21,0-.11-.35.4-.76.42-.85.06.07.13.17.21.21Z"/>
      <path class="cls-138" d="M62.73,32.85c-.32-.53-.19-1.12-.21-1.7l.42-.21c0,.62.16,1.45-.21,1.91Z"/>
      <path class="cls-40" d="M37.93,79.47c.03.05-.03.16,0,.21.28.34.17.46-.21.21-.47.25-2.08,1.38-2.33.52-.2-.67,1.22-1.25,1.69-1.8.07-.08.14-.15.21-.21.21.4.44.71.64,1.06Z"/>
      <path class="cls-99" d="M38.36,80.53c-.11.08-.14.3-.42.42-.5,0-.65-.14-.42-.42.3-.25.58-.18.21-.64.1-.05.23-.05.21-.21.13.23.48.42.42.85Z"/>
      <path class="cls-150" d="M34.75,79.04c.4-.09,1-.46.85.1-.05.17-.6.14-.85.32-.08-.06-.14-.16-.21-.21.07-.07.15-.14.21-.21Z"/>
      <path class="cls-150" d="M36.87,80.95c.34-.16.41-.12.21.21.11.28-.18.35-.42.21-.14.05-.28.17-.42.21-.07-.63.43-.5.64-.64Z"/>
      <path class="cls-163" d="M37.93,80.95c-.17.24-.64.43-.85.21l-.21-.21c.18-.12.5-.32.64-.42.1.12.39.3.42.42Z"/>
      <path class="cls-40" d="M79.47,36.45c.47-.69.6-1.71,1.69-1.48.27.88-.6,1.6-.63,2.33,0,.07-.02.16,0,.21-.13.04-.32.21-.42.21-.52-.55-.42-.38-1.06-.85.12-.15.32-.27.42-.42Z"/>
      <path class="cls-6" d="M79.68,34.54c-.17.35-.11.89-.64,1.06-.3.1-.32-.2-.21-.42.18-.26.31-.52.64-.64h.21Z"/>
      <path class="cls-104" d="M79.04,35.6c.01.14-.02.29,0,.42l-.64.21c.09-.26.1-.62.21-.85.03-.06.16-.13.21-.21.21.06.19.24.21.42Z"/>
      <path class="cls-113" d="M82.01,36.03c.16.34,0,.87-.42.64h-.21c.14-.17-.04-.71.64-.64Z"/>
      <path class="cls-126" d="M48.1,89.85c.28-.04.59.13.42.42.14.56-.01.59-.42.21-.32.2-.53.2-.64,0-.19,0-.26-.14-.21-.42.05-.1.4-.28.42-.42.21.07.27.13.42.21Z"/>
      <path class="cls-127" d="M49.38,90.28l-.21.21c-.27.55-.71.4-.64-.21-.15-.09-.28-.35-.42-.42.34-.3.87.19,1.27.42Z"/>
      <path class="cls-106" d="M38.14,48.53c-.19.32-.49.59-.64.85l-.21-.21c.18-.26.52-.64.64-.85l.21.21Z"/>
      <path class="cls-63" d="M35.39,45.77c.16.38.65.3.85.42.29-.3.41-.17.21.21.28-.11.65.19.85.42.28.19.71.45.63.85-.27.25-2.25-1.53-2.53-.5-.3,1.09,1.4,1.22,1.68,1.57.44.53-.6.38-.63.42-.47.47-.82.06-1.06-.42-.04-.02-.25-.29-.42-.42-.4-.31-.74-.67-1.06-1.06.05-.28-.1-.88.02-1.04.07-.09.34.02.4-.02.49-.27.51-.28,1.06-.42Z"/>
      <path class="cls-94" d="M35.39,48.74c.23.14.79.17,1.06.42-.08.1.24.82-.42.64-.02-.02-.14,0-.21,0-.06-.08-.13-.17-.21-.21.12-.48-.28-.47-.64-.64l.42-.21Z"/>
      <path class="cls-47" d="M37.51,46.2h.21c.07.13.62.33.42.85-.2-.11-.4-.19-.64-.21-.43-.13-.72-.34-.85-.64-.09-.18-.01-.25.21-.21.17.08.46.07.64.21Z"/>
      <path class="cls-34" d="M37.51,46.83h-.21c-.1-.07-.58-.27-.85-.42-.09-.18,0-.24.21-.21l.85.64Z"/>
      <path class="cls-110" d="M90.7,47.89c.56,0,.56.21.21.64-.06.16-.13.16-.21,0-.04-.09-.26-.11-.42-.64.13-.03.33.04.42,0Z"/>
      <path class="cls-131" d="M91.34,49.16l-.21.21c-.16-.31-.28-.52-.42-.85h.21c.57-.14.77.15.42.64Z"/>
      <path class="cls-76" d="M81.16,89.85c.09.26.1.62.21.85h-.21c-.23-.02-.45-.09-.64-.21-.42.4-.51.36-.42-.21-.19-.06-.18-.13,0-.21.14-.05.29-.18.42-.21.22-.05.5-.19.64-.21v.21Z"/>
      <path class="cls-80" d="M80.1,90.06v.21c.11.7-.72.86-1.27.64l-.21-.21c.71-.42.73-.39,1.48-.64Z"/>
      <path class="cls-65" d="M91.12,80.1c-.14.15-.14.36,0,.64.28.29.17.27-.21.21-.07.17-.21.17-.42,0-.09-.12-.13-.3-.21-.42.02-.13-.03-.3,0-.42.02-.07-.02-.15,0-.21.15-.28.29-.35.42-.21.54-.2.64-.11.42.42Z"/>
      <path class="cls-75" d="M90.91,79.04c.57.22.4.72-.21.64-.05.07-.32.13-.42.21.14-.5.32-.59.42-.85h.21Z"/>
      <path class="cls-132" d="M98.75,62.94c.65.88.75.99,0,1.91-1.03.09-2.4.55-3.39,0,.07-.14.14-.28.21-.42l.34-.41c2.13,0,1.18-.49-.28-.46l-.27-.4c0-.07,0-.14,0-.21,1.12-.26,2.3-.23,3.39,0Z"/>
      <path class="cls-30" d="M95.57,64.42c-.14,0-.28.01-.42,0-.22-.45.2-1.07.21-1.27,2.53-.28,3.7,1.44.21,1.27Z"/>
      <path class="cls-117" d="M62.52,96.63c.01-.47-.06-1.04,0-1.48.35.27.35,1.22,0,1.48Z"/>
      <path class="cls-10" d="M48.74,34.12c0,.11.19.29.21.42.2.5.41.99.64,1.48-.08.26.18.53-.42.42l-.27.09c-1.34-2.06-1.34-1.78-.39.41l-.4.35c-.37.4-.7.01-.85,0-.38.04-.3-.31,0-.42-.22-.33-.36-.69-.42-1.06-.3.28-.41.16-.21-.21-.12-.42-.24-.83-.21-1.27.08-1.49,1.53-.85,2.33-.21Z"/>
      <path class="cls-108" d="M48.1,37.3c.14-.67-1.24-1.91-.43-2.45.73-.49,1.27,1.23,1.49,1.6.09.15.3.28.42.42-.08.05-.14.17-.21.21-.27.16-.95.27-1.27.42v-.21Z"/>
      <path class="cls-93" d="M46.62,35.6s.15.15.21.21l.42,1.06c-.02.13.01.29,0,.42-.16-.01-.09.21-.64,0,.55-.18-.14-.68-.21-.85-.1-.24-.1-.66-.21-.85.13.02.32-.04.42,0Z"/>
      <path class="cls-63" d="M94.09,47.89c-.22.2-.79.08-.64.64.06.37-.18.51-.42.21-.44.06-.75.35-1.06.64-.05-.05-.37.05-.42,0l-.24-.69c2.1-1.65,2.11-1.9.03-.76l-.42-.25c-.21-.06-.19-.24-.21-.42.06-.29.36-.48.64-.42.3-.27.65-.48,1.06-.64.03-.04-.02-.14,0-.21,1.53-.64,3.27.5,1.7,1.91Z"/>
      <path class="cls-120" d="M94.09,48.32c.11.35-.73.87-1.06,1.06-1.31.74-.79.27-1.06,0,.18-.29.67-.6,1.06-.64.16-.09.25-.14.42-.21.22-.09.39-.18.64-.21Z"/>
      <path class="cls-80" d="M37.93,80.95c.02.05,0,.14,0,.21-.28.14-.57.28-.85.42-.06.03-.16-.03-.21,0l-.21-.21c.14-.05.28-.16.42-.21.31-.12.7-.15.85-.21Z"/>
      <path class="cls-95" d="M47.47,90.49c.42.3-.35,2.19-.85,1.27,0-.07.01-.15,0-.21-.07-.36.18-.83.42-1.06.07-.14.15-.28.21-.42.2.02.23.27.21.42Z"/>
      <path class="cls-94" d="M46.62,91.55c0-.05-.26-.25-.21-.42l.42-.64h.21c-.11.23-.04.79-.42,1.06Z"/>
      <path class="cls-144" d="M63.15,97.27c-.07-.76.05-1.57,0-2.33.38-.19.61.47.63.63.39.11.55.55.48,1.32.16-.12.35-.21.58-.26.27-.69.08-1.26.42-1.7.24.66.38,2.34.21,2.97-.26,1.01-2.15,1.44-2.33-.64Z"/>
      <path class="cls-153" d="M63.79,95.57c-.14-1.08.11-.87,1.06-.85v1.91c-.07.19-.05.55-.32.63-1.01.31-.66-1.2-.74-1.69Z"/>
      <path class="cls-60" d="M91.55,46.41c.18.2.05.27-.21.21-.16.25-.41.43-.64.21-.06.02-.15-.02-.21,0,.18-.31.46-.53.64-.85l.42.42Z"/>
      <path class="cls-121" d="M50.01,35.18c.07.12.11.42.21.64.02.77-.16.39-.42,0-.4-.07-.98-.95-.64-1.27.07-.07.14-.15.21-.21.18.34.49.59.64.85Z"/>
      <path class="cls-77" d="M90.91,80.95c.26-.14.79.13.85.42.28.3.16.41-.21.21-.31-.14-.54-.17-.85-.42-.08-.06-.15-.13-.21-.21.13.02.3-.03.42,0Z"/>
      <path class="cls-54" d="M80.53,90.49c.37-.16.68.73.64,1.06,1.37,1.52-.74,2.75-1.52.65l-.17.2c-.33.88-.89-.29-1.06-.85v-.21c.14-.13.29-.34.42-.42.27-.17,1.01-.57,1.27-.64.07-.02.31.2.42.21Z"/>
      <path class="cls-74" d="M79.47,92.4c.19.06.18.13,0,.21.18.21.26.6.21.85v.21h-.21c-.42-.7-.49-.48-.64-.64-.08-.08-.05-.59-.42-.64.02-.28-.01-.57,0-.85.45.22.48.89,1.06.85Z"/>
      <path class="cls-146" d="M50.44,92.61l-.1-.21-.53.42c.16-.49.41-.6.42-.64.73-.45.38-.05.21.42Z"/>
      <path class="cls-23" d="M82.22,36.24c.02.08.01.31,0,.42-.03.22-.09.46-.21.64-.09.13-.49.28-.64.42-.09-.38.03-.58.21-1.06.05-.12.31-.34.42-.64.22.03.17.06.21.21Z"/>
      <path class="cls-104" d="M79.47,92.4c-.1-.39-.55-.76-.42-1.27.72-.06.62,1.11,1.15,1.5,1.23.89,1.03-.34.97-1.07-.19-.4-.13-.52.21-.21.44.81.98,1.02.85,2.12-.04.34-.22.59-.42.85-.22-.03-.62-.02-.85,0-.1-.25-.54-.32-.64-.42-.05-.05-.36-.53-.42-.64-.21-.09-.35-.3-.42-.64-.02-.07.02-.15,0-.21Z"/>
      <path class="cls-94" d="M80.53,90.49c.08,0,.3-.53.64.21.03.23.1.44.21.64-.12-.04-.22.13-.21.21l-.64-1.06Z"/>
      <path class="cls-77" d="M93.67,79.47c.53.33.76.74,1.06,1.27-.14.65-.04.81-.85,1.06-.4-.05-.86.02-1.27,0-.2-.16-.43-.38-.64-.64-.24.12-.77-.15-.85-.42-.5-.33-.79-.63,0-.64l.37-.27c2.46,1.03.96.01-.15-.69l.21-.53c.53.14,1.7.58,2.12.85Z"/>
      <path class="cls-108" d="M91.55,78.62c.31.9,1.06.55,1.5,1.15,1.09,1.52-1.06.91-1.92.33-.16-.11-.28-.29-.42-.42.14-.21.13-.47.21-.64.09-.18.33-.32.42-.64.09.04.18.12.21.21Z"/>
      <path class="cls-143" d="M50.22,91.34c-.26.29-.65.75-.85,1.06l-.21-.21c-.15-.28,0-.64.42-1.06.05-.14.12-.13.21,0,.2.01.32.18.42.21Z"/>
      <path class="cls-110" d="M92.4,81.8s-.12.2-.29.17c-.31-.04-.42-.32-.56-.39l.21-.21c.06-.18.13-.18.21,0,.25-.04.51.17.42.42Z"/>
      <path class="cls-82" d="M91.97,81.16c.16.1.48.13.59.26s.02.31.05.38c-.07,0-.14,0-.21,0-.23-.02-.36-.39-.42-.42-.19-.06-.18-.13,0-.21Z"/>
      <path class="cls-92" d="M48.1,90.49l.17.24c-.64,2.05-.51,2.23.39.54.3-.43.59-.65.92-.14.09.48-.25.72-.42,1.06-.34.67-.59,1.54-1.27,1.91-1.05-.17-.94.45-1.48-.64-.13-.51.2-1.06.21-1.48,0-.07,0-.14,0-.21.5.16.78-.84.85-1.27l.51-.19.13.19Z"/>
      <path class="cls-76" d="M49.16,34.54c.13.42.39.91.64,1.27-.09.04-.18.12-.21.21-.27-.29-.64-.7-.76-1.07-.09-.26.13-.39.13-.41h.21Z"/>
      <path class="cls-64" d="M49.16,90.49c.23.14.49.4.64.64-.07,0-.14,0-.21,0-.96.08-.77,2.03-2.12,1.69-.1-.71.17-1.79.63-2.33.07-.08.31-.13.42-.21.22.13.51.14.64.21Z"/>
      <path class="cls-79" d="M36.87,45.99c-.07.07-.14.14-.21.21s-.14.15-.21.21c-.07-.04-.12-.16-.21-.21v-.64c.33.09.46.34.64.42Z"/>
      <path class="cls-118" d="M92.4,46.2c-.36.61-.62.42-1.06.64-.19-.06-.18-.13,0-.21.07-.03.14-.18.21-.21.28-.12.52-.24.85-.21Z"/>
      <path class="cls-64" d="M90.91,47.68c.47-.24,2.08-1.39,2.33-.52.29,1.01-1.75,1.09-1.69,2.22-.08-.07-.14-.14-.21-.21-.11-.1-.34-.48-.42-.64-.11-.2-.19-.41-.21-.64.08-.03.15-.18.21-.21Z"/>
      <path class="cls-65" d="M91.34,46.62v.21c-.17.08-.36.4-.64.42-.02-.14.01-.28,0-.42.21-.08.46-.14.64-.21Z"/>
      <path class="cls-150" d="M79.89,93.24l-.21.21c-.38-.3-.2-.8-.21-.85.4.08.32.45.42.64Z"/>
      <path class="cls-80" d="M59.54,68.46c-.03.87.78,4.29.46,4.76-.46.69-4.4,3-5.33,3.38-7.49,3.09-1.83-6.09.1-8.39l4.77.25Z"/>
      <path class="cls-80" d="M54.63,67.35c-1.92-.09-8.14-1.14-8.96-2.93-.7-1.53,1.83-2.55,2.96-2.97.9-.34,5.21-1.48,5.84-1.16.56.28,2.12,2.95,2.95,3.43l-2.78,3.64Z"/>
      <path class="cls-80" d="M73.29,67.87c.17,0,.34-.09.56-.06.65.08,2.58,3.09,2.98,3.82,5.05,8.97-4.53,4.07-7.84,1.29l.41-4.48c.11-.16,3.41-.54,3.9-.57Z"/>
      <path class="cls-80" d="M64.14,45.19c2.05-.17,3.65,6.96,3.8,8.54-.04.24-3.55,3.09-3.8,3.04-.57-.77-3.45-2.27-3.53-3.05-.05-.55.55-3.22.74-3.92.33-1.26,1.28-4.49,2.79-4.61Z"/>
      <path class="cls-80" d="M59.72,54.08c.12.2-.14,4.43-.26,4.63-.39.58-3.81.42-4.65.8-.21-.05-2.4-3.14-2.58-3.56-.25-.6-.05-1.2-.28-1.55-.2-.3-.67-.19-.89-.5-.14-.2-.5-1.48-.53-1.76-.35-3.2,4.05-1.02,5.43-.33.48.24,3.65,2.08,3.77,2.27Z"/>
      <path class="cls-80" d="M77.72,50.49c.72.76-.17,2.85-.54,3.69-.28.64-2.66,4.63-3,4.84-.21.13-4.12-.02-4.56-.1-.17-.03-.33-.04-.44-.2.12-1.18-.61-3.11-.52-4.14.05-.51,3.26-2.77,3.83-2.98s.98.28,1.47.02c.42-.23.25-.78.69-1.03.71-.42,2.44-.76,3.07-.09Z"/>
      <path class="cls-80" d="M74.48,59.85c1.3.18,2.62.38,3.89.69,1.78.44,7.36,1.99,3.71,4.27-1.17.73-1.36.09-2.04.27-.43.11-.49.76-.94.99-.55.28-4.29,1.04-4.79.86-.32-.11-2.41-2.93-2.87-3.43l3.03-3.66Z"/>
      <path class="cls-80" d="M68.19,73.15c.55.94-1.49,8.09-2.92,8.75-1.15.53-2.43-1.02-2.66-2.01-.14-.58.26-1.07.1-1.55-.1-.29-.58-.39-.8-.7-.41-.58-1.04-3.65-.76-4.32.31-.73,2.87-2.05,3.39-2.96.45.76,3.41,2.36,3.66,2.79Z"/>
      <path class="cls-80" d="M62.66,59.38c.41-.12,3.11-.12,3.52,0,.23.07,2.58,2.41,2.65,2.65.12.4.12,2.69,0,3.09-.05.17-2.26,2.6-2.43,2.66-.33.11-3.37.1-3.74,0-.23-.07-2.37-2.21-2.44-2.44-.13-.46-.3-2.82-.16-3.25.12-.37,2.28-2.61,2.6-2.7Z"/>
      <polygon class="cls-33" points="73.53 59.76 70.88 62.93 69.34 61.31 69.3 59.34 73.53 59.76"/>
      <path class="cls-29" d="M60.18,58.91c-.13-.13.15-3.21.21-3.71.03-.24-.08-.43.31-.31.27.08,3.07,2.24,3.07,2.43-.98,1.11-2.05,1.85-3.6,1.59Z"/>
      <path class="cls-33" d="M73.53,67.18l-4.24.43c-.33-1.68.52-2.49,1.59-3.6l2.65,3.17Z"/>
      <path class="cls-29" d="M60.4,68.45c1.5-.2,2.66.49,3.6,1.59l-2.86,2.44c-.23.05-.43-.14-.49-.35-.11-.36-.38-3.55-.25-3.68Z"/>
      <path class="cls-33" d="M59.34,59.55c.18,1.73.02,2.55-1.38,3.6-.19,0-2.57-2.68-2.65-2.86-.17-.41.94-.47,1.19-.5.9-.12,1.92-.15,2.84-.24Z"/>
      <path class="cls-33" d="M68.66,68.45c.08,1.36-.09,2.7-.32,4.03-.46-.46-3.15-2.12-3.06-2.62.18-1,2.42-1.78,3.38-1.41Z"/>
      <path class="cls-33" d="M68.24,54.89l.42,3.81c-1.69.21-2.7-.09-3.81-1.38.59-.19,2.98-2.87,3.39-2.44Z"/>
      <path class="cls-33" d="M59.55,67.81c-1.17-.07-2.56-.07-3.71-.21-.3-.04-.37.11-.31-.31l2.43-2.86c1.13.93,1.83,1.82,1.6,3.39Z"/>
      <path class="cls-131" d="M69.3,64.63c.1-.24-.28-2.15.31-1.91,1.19.49.58,1.46-.31,1.91Z"/>
      <path class="cls-161" d="M67.39,67.81l1.48-1.48c.16,1.36-.11,1.64-1.48,1.48Z"/>
      <path class="cls-145" d="M68.66,59.34v1.27c-.24.28-1.26-1-1.48-1.17l1.48-.11Z"/>
      <polygon class="cls-1" points="65.48 68.45 64.53 69.5 63.79 68.77 65.48 68.45"/>
      <path class="cls-132" d="M65.27,58.7l-1.69-.1c.73-.94,1.08-.92,1.69.1Z"/>
      <path class="cls-45" d="M61.46,67.81h-1.27s0-1.06,0-1.06c.21-.24,1.19.8,1.27,1.06Z"/>
      <path class="cls-55" d="M61.24,59.34c.23.22-.79,1.18-1.06,1.27-.15-1.09.03-1.14,1.06-1.27Z"/>
      <polygon class="cls-33" points="59.33 64.42 58.49 63.68 59.23 62.94 59.33 64.42"/>
      <path class="cls-150" d="M91.97,81.16v.21c-.05-.03-.16.03-.21,0-.24-.12-.62-.37-.85-.42l.21-.21c.18.12.55.23.85.42Z"/>
      <path class="cls-24" d="M47.26,36.87c-.4-.19-.73-.67-.42-1.06.41.38.5.56.42,1.06Z"/>
      <path class="cls-109" d="M93.03,48.74c-.22.13-.82.86-1.06.64-.32-.3.72-.94,1.06-.64Z"/>
      <path class="cls-150" d="M62.16,65.83c-2.61-2.68,1.9-7.27,4.59-3.85,2.34,2.98-1.98,6.52-4.59,3.85Z"/>
    </g>
  </g>
</svg>